<?xml version="1.0" standalone="no"?>
<!DOCTYPE svg PUBLIC "-//W3C//DTD SVG 1.1//EN" "http://www.w3.org/Graphics/SVG/1.1/DTD/svg11.dtd" >
<svg>
<metadata>
Created by FontForge 20090622 at Mon May  4 17:41:15 2015
 By deploy user
Part of the digitally encoded machine readable outline data for producing the Typefaces provided is copyrighted &#194;&#169; 2007 Linotype GmbH, www.linotype.com. All rights reserved. This software is the property of Linotype GmbH, and may not be reproduced, used, displayed, modified, disclosed or transferred without the express written approval of Linotype GmbH.  The digitally encoded machine readable software for producing the Typefaces licensed to you is copyrighted (c) 1989, 1995 Adobe Systems. All Rights Reserved. This software is the property of Adobe Systems Incorporated and its licensors, and may not be reproduced, used, displayed, modified, disclosed or transferred without the express written approval of Adobe. Avenir is a trademark of Linotype GmbH and may be registered in certain jurisdictions. This typeface is original artwork of Adrian Frutiger. The design may be protected in certain jurisdictions.
</metadata>
<defs>
<font id="AvenirLTPro-HeavyOblique" horiz-adv-x="260" >
  <font-face 
    font-family="Avenir LT Pro 85 Heavy Oblique"
    font-weight="700"
    font-style="oblique"
    font-stretch="normal"
    units-per-em="1000"
    panose-1="2 11 7 3 2 2 3 9 2 4"
    ascent="756"
    descent="-244"
    x-height="480"
    cap-height="708"
    bbox="-165 -276 1184.83 940"
    underline-thickness="50"
    underline-position="-50"
    unicode-range="U+000D-U+FB02"
  />
<missing-glyph horiz-adv-x="512" 
d="M278 117h-56v67h56v-67zM271 234h-46l-2 17q0 56 13 81q15 28 46 59q30 28 40 45.5t10 37.5q0 36 -22.5 60.5t-53.5 24.5q-71 0 -82 -95l-50 8q6 69 42 103t93 34q55 0 89.5 -36t34.5 -95q0 -34 -13 -60t-50 -60q-37 -33 -43 -52q-6 -20 -6 -72zM50 50h412v617h-412v-617
zM0 718h512v-718h-512v718z" />
    <glyph glyph-name="IJ" unicode="IJ" horiz-adv-x="767" 
d="M76 0l100 708h126l-100 -708h-126zM793 708l-72 -512q-13 -90 -77.5 -152t-166.5 -62q-175 0 -185 163l122 28q2 -35 21 -56t52 -21q51 0 77 34.5t36 102.5l67 475h126z" />
    <glyph glyph-name="ij" unicode="ij" horiz-adv-x="484" 
d="M70 0l67 480h120l-67 -480h-120zM143 643q5 29 29.5 50.5t56.5 21.5q33 0 52.5 -20.5t15.5 -51.5t-29.5 -51.5t-58.5 -20.5q-32 0 -51 21.5t-15 50.5zM361 480h120l-71 -509q-15 -103 -56 -157t-136 -54q-37 0 -63 9l23 104q22 -5 37 -5q21 0 35.5 9t22.5 26.5t11 31
t6 35.5zM367 643q5 29 29.5 50.5t56.5 21.5q33 0 52.5 -20.5t15.5 -51.5t-29.5 -51.5t-58.5 -20.5q-32 0 -51 21.5t-15 50.5z" />
    <glyph glyph-name="napostrophe" unicode="&#x22;n" horiz-adv-x="574" 
d="M68 0l67 480h114l-10 -77h2q52 89 159 89q90 0 125 -53.5t24 -135.5l-43 -303h-120l34 243q21 141 -68 141q-56 0 -88 -34.5t-39 -87.5l-37 -262h-120zM7 510l88 198h122l-113 -198h-97z" />
    <glyph glyph-name="fi" unicode="fi" horiz-adv-x="593" 
d="M111 0l53 378h-99l14 102h99l10 68q16 111 61 165.5t149 54.5q41 0 75 -7l-22 -102q-30 7 -49 7q-46 0 -65.5 -26t-25.5 -73l-13 -87h111l-14 -102h-111l-53 -378h-120zM420 0l67 480h120l-67 -480h-120zM494 643q5 29 29.5 50.5t56.5 21.5q33 0 52.5 -20.5t15.5 -51.5
t-29.5 -51.5t-58.5 -20.5q-32 0 -51 21.5t-15 50.5z" />
    <glyph glyph-name="fl" unicode="fl" horiz-adv-x="593" 
d="M111 0l53 378h-99l14 102h99l10 68q16 111 61 165.5t149 54.5q41 0 75 -7l-22 -102q-30 7 -49 7q-46 0 -65.5 -26t-25.5 -73l-13 -87h111l-14 -102h-111l-53 -378h-120zM420 0l106 756h120l-106 -756h-120z" />
    <glyph glyph-name=".notdef" horiz-adv-x="512" 
d="M278 117h-56v67h56v-67zM271 234h-46l-2 17q0 56 13 81q15 28 46 59q30 28 40 45.5t10 37.5q0 36 -22.5 60.5t-53.5 24.5q-71 0 -82 -95l-50 8q6 69 42 103t93 34q55 0 89.5 -36t34.5 -95q0 -34 -13 -60t-50 -60q-37 -33 -43 -52q-6 -20 -6 -72zM50 50h412v617h-412v-617
zM0 718h512v-718h-512v718z" />
    <glyph glyph-name=".null" horiz-adv-x="200" 
 />
    <glyph glyph-name="nonmarkingreturn" horiz-adv-x="333" 
 />
    <glyph glyph-name="CR" unicode="&#xd;" horiz-adv-x="0" 
 />
    <glyph glyph-name="space" unicode=" " horiz-adv-x="296" 
 />
    <glyph glyph-name="exclam" unicode="!" horiz-adv-x="296" 
d="M308 708l-69 -486h-120l69 486h120zM78 70q4 32 31 55t60 23t53 -22t16 -54t-31 -55t-60 -23q-32 0 -52.5 22t-16.5 54z" />
    <glyph glyph-name="quotedbl" unicode="&#x22;" horiz-adv-x="519" 
d="M182 444l38 264h102l-38 -264h-102zM359 444l38 264h102l-38 -264h-102z" />
    <glyph glyph-name="numbersign" unicode="#" horiz-adv-x="592" 
d="M107 0l59 209h-90l12 84h101l35 122h-90l12 84h101l60 209h88l-60 -209h103l60 209h87l-60 -209h90l-12 -84h-102l-34 -122h90l-12 -84h-100l-60 -209h-87l59 209h-104l-59 -209h-87zM414 415h-103l-34 -122h103z" />
    <glyph glyph-name="dollar" unicode="$" horiz-adv-x="592" 
d="M428 786l-9 -66h9q53 0 103.5 -18t82.5 -51l-96 -93q-43 54 -114 54l-28 -200l4 -1q40 -11 64.5 -19.5t55.5 -25.5t47 -36.5t25 -50.5t4 -71q-13 -95 -85.5 -152t-174.5 -67l-10 -72h-54l10 71q-146 -2 -220 89l104 93q38 -65 131 -74l30 211l-5 1q-46 13 -77 27t-60 37
t-40 58.5t-5 82.5q12 85 83.5 141t161.5 65l9 67h54zM324 427l26 183q-39 -6 -68.5 -30.5t-34.5 -60.5q1 -11 -1 -18.5t2 -15.5t5 -12.5t7.5 -10t9.5 -8.5t12 -7.5l13 -6.5t14 -6.5t15 -6.5zM359 291l-28 -195q47 9 79.5 35t38.5 68q3 21 -3 36.5t-23.5 26.5t-28 15.5
t-35.5 13.5z" />
    <glyph glyph-name="percent" unicode="%" horiz-adv-x="907" 
d="M529 174q11 77 73.5 131.5t139.5 54.5t123.5 -54.5t35.5 -131.5q-10 -77 -72.5 -131.5t-139.5 -54.5t-124 54.5t-36 131.5zM805 174q5 38 -17.5 64t-59.5 26q-38 0 -68 -26.5t-35 -63.5t17.5 -63.5t60.5 -26.5q37 0 67 26t35 64zM105 534q11 77 73 131.5t139 54.5
t124 -54.5t36 -131.5q-10 -77 -72.5 -131.5t-139.5 -54.5t-124 54.5t-36 131.5zM381 534q5 38 -17.5 64t-59.5 26q-38 0 -68 -26.5t-35 -63.5q-5 -38 17.5 -64t59.5 -26q38 0 68 26.5t35 63.5zM206 6l519 734l78 -38l-519 -734z" />
    <glyph glyph-name="ampersand" unicode="&#x26;" horiz-adv-x="741" 
d="M768 372l-171 -205l130 -167h-155l-64 81q-98 -99 -223 -99q-99 0 -161.5 55.5t-48.5 152.5q9 68 59.5 120.5t121.5 78.5q-23 31 -35 50t-20 49.5t-3 63.5q11 83 76 128.5t151 45.5t137 -43t39 -125q-15 -111 -166 -183l96 -123l96 120h141zM412 618q-35 0 -63 -20
t-32 -51q-6 -41 52 -103q103 52 112 108q4 28 -16 47t-53 19zM444 160l-122 158q-24 -13 -39 -22.5t-33.5 -25t-28.5 -33.5t-13 -40q-7 -46 22 -76.5t75 -30.5q59 0 139 70z" />
    <glyph glyph-name="quotesingle" unicode="'" horiz-adv-x="296" 
d="M159 444l38 264h102l-38 -264h-102z" />
    <glyph glyph-name="parenleft" unicode="(" horiz-adv-x="296" 
d="M297 732l78 -52l-2 -4q-152 -176 -183 -388q-29 -213 74 -389l-92 -55q-117 201 -84 444q34 242 209 444z" />
    <glyph glyph-name="parenright" unicode=")" horiz-adv-x="296" 
d="M80 -156l-78 52l2 4q73 84 120.5 185t61.5 203q30 209 -73 388l92 56q117 -202 83 -444q-33 -241 -208 -444z" />
    <glyph glyph-name="asterisk" unicode="*" horiz-adv-x="463" 
d="M374 708l-20 -142l141 44l14 -80l-142 -44l70 -117l-76 -50l-70 118l-100 -115l-60 51l102 113l-130 47l37 80l130 -47l20 142h84z" />
    <glyph glyph-name="plus" unicode="+" horiz-adv-x="666" 
d="M112 354h220l31 220h102l-31 -220h220l-15 -102h-220l-31 -220h-102l31 220h-220z" />
    <glyph glyph-name="comma" unicode="," horiz-adv-x="296" 
d="M20 -126l107 264h122l-122 -264h-107z" />
    <glyph glyph-name="hyphen" unicode="-" horiz-adv-x="315" 
d="M323 297l-15 -102h-247l15 102h247z" />
    <glyph glyph-name="period" unicode="." horiz-adv-x="296" 
d="M78 70q4 32 31 55t60 23t53 -22t16 -54t-31 -55t-60 -23q-32 0 -52.5 22t-16.5 54z" />
    <glyph glyph-name="slash" unicode="/" horiz-adv-x="389" 
d="M488 726l-421 -774l-79 30l422 776z" />
    <glyph glyph-name="zero" unicode="0" horiz-adv-x="592" 
d="M90 354q13 95 43 166t62.5 108t73.5 59t69.5 27.5t58.5 5.5q17 0 33.5 -2t38.5 -8t40 -17.5t38 -30t31.5 -45.5t22.5 -64.5t9 -86.5t-8 -112q-13 -95 -43 -166t-62.5 -108t-74 -59t-70 -27.5t-58.5 -5.5q-17 0 -33 2t-38.5 8t-40 17.5t-37.5 30t-32 45.5t-22.5 64.5
t-8.5 86.5t8 112zM210 354q-6 -40 -6.5 -77.5t6.5 -80t32.5 -68.5t67.5 -26q34 0 62.5 18.5t46 44.5t31.5 62.5t20.5 66t11.5 60.5q6 41 6 78t-7 80t-32.5 68.5t-67.5 25.5t-75 -26t-51.5 -68.5t-28.5 -80t-16 -77.5z" />
    <glyph glyph-name="one" unicode="1" horiz-adv-x="592" 
d="M268 0l80 570l-150 -123l-59 83l240 178h109l-100 -708h-120z" />
    <glyph glyph-name="two" unicode="2" horiz-adv-x="592" 
d="M59 0l18 127l312 266q25 21 40 35t31 38t19 47q6 42 -20.5 67.5t-69.5 25.5q-44 0 -77 -26t-45 -70l-125 10q22 96 93 148t170 52q101 0 158 -51.5t43 -149.5q-9 -62 -43.5 -110.5t-94.5 -97.5l-248 -203h328l-15 -108h-474z" />
    <glyph glyph-name="three" unicode="3" horiz-adv-x="592" 
d="M266 315l15 108h31q30 0 52 3t45 12.5t37 29.5t18 51q6 40 -19 66.5t-69 26.5q-36 0 -67.5 -21t-49.5 -57l-122 34q33 76 99.5 114t148.5 38q97 0 155 -49.5t46 -139.5q-8 -58 -47 -102t-97 -58v-2q64 -9 93.5 -56.5t20.5 -115.5q-14 -97 -91.5 -153t-177.5 -56
q-92 0 -150.5 40.5t-68.5 125.5l132 34q11 -92 102 -92q49 0 88.5 31.5t46.5 79.5q5 33 -5.5 55.5t-33.5 33.5t-47.5 15t-55.5 4h-29z" />
    <glyph glyph-name="four" unicode="4" horiz-adv-x="592" 
d="M335 0l20 144h-301l17 119l348 445h136l-65 -456h103l-15 -108h-103l-20 -144h-120zM370 252l41 286h-2l-218 -286h179z" />
    <glyph glyph-name="five" unicode="5" horiz-adv-x="592" 
d="M605 708l-16 -108h-285l-22 -141q28 9 77 9q105 0 161.5 -64.5t41.5 -170.5q-16 -112 -98 -178.5t-193 -66.5q-86 0 -139.5 41t-66.5 121l131 34q14 -82 104 -82q54 0 93.5 34.5t46.5 86.5q10 70 -32 103.5t-114 33.5q-80 0 -153 -34l61 382h403z" />
    <glyph glyph-name="six" unicode="6" horiz-adv-x="592" 
d="M391 708h146l-207 -262l1 -2q24 12 68 12q92 0 143.5 -66t37.5 -160q-15 -109 -95.5 -175.5t-190.5 -66.5q-113 0 -173.5 65t-44.5 176q13 89 93 194zM202 231q-7 -53 25.5 -91t85.5 -38t96 38t51 91t-24.5 91t-85.5 38t-97 -38t-51 -91z" />
    <glyph glyph-name="seven" unicode="7" horiz-adv-x="592" 
d="M125 594l17 114h481l-16 -110l-367 -598h-141l372 594h-346z" />
    <glyph glyph-name="eight" unicode="8" horiz-adv-x="592" 
d="M397 720q94 0 148.5 -50t42.5 -136q-8 -58 -41.5 -101t-87.5 -58l-1 -2q51 -11 82.5 -59.5t22.5 -112.5q-14 -101 -89.5 -157t-179.5 -56t-163.5 56t-45.5 157q9 63 54 112t99 60l1 2q-50 15 -71.5 58t-13.5 101q12 87 81 136.5t162 49.5zM383 618q-44 0 -74.5 -27.5
t-36.5 -68.5q-6 -43 16.5 -71t66.5 -28q40 0 72.5 28.5t38.5 70.5q6 40 -18 68t-65 28zM342 327q-50 0 -89 -31.5t-46 -79.5q-7 -50 22 -82t81 -32t90 32t45 82q7 48 -23 79.5t-80 31.5z" />
    <glyph glyph-name="nine" unicode="9" horiz-adv-x="592" 
d="M301 0h-146l207 262l-2 2q-22 -12 -68 -12q-92 0 -143 66t-38 160q16 109 96 175.5t190 66.5q113 0 173.5 -65t44.5 -176q-12 -89 -93 -194zM489 477q7 53 -25.5 91t-85.5 38t-96 -38t-51 -91q-7 -53 25.5 -91t85.5 -38t96 38t51 91z" />
    <glyph glyph-name="colon" unicode=":" horiz-adv-x="296" 
d="M78 70q4 32 31 55t60 23t53 -22t16 -54t-31 -55t-60 -23q-32 0 -52.5 22t-16.5 54zM125 409q5 32 31.5 55t59.5 23t53.5 -22t16.5 -54t-31 -55t-60 -23q-32 0 -53 22t-17 54z" />
    <glyph glyph-name="semicolon" unicode=";" horiz-adv-x="296" 
d="M20 -126l107 264h122l-122 -264h-107zM125 409q5 32 31.5 55t59.5 23t53.5 -22t16.5 -54t-31 -55t-60 -23q-32 0 -53 22t-17 54z" />
    <glyph glyph-name="less" unicode="&#x3c;" horiz-adv-x="666" 
d="M592 42l-474 225l10 72l537 225l-15 -110l-359 -151l316 -151z" />
    <glyph glyph-name="equal" unicode="=" horiz-adv-x="666" 
d="M124 444h542l-14 -102h-542zM99 264h542l-14 -102h-542z" />
    <glyph glyph-name="greater" unicode="&#x3e;" horiz-adv-x="666" 
d="M159 564l475 -225l-10 -72l-538 -225l15 110l360 151l-317 151z" />
    <glyph glyph-name="question" unicode="?" horiz-adv-x="519" 
d="M359 209h-120l8 55q6 42 19.5 62.5t51.5 54.5l88 78q28 25 34 65q5 39 -17 63.5t-61 24.5q-41 0 -72.5 -28t-41.5 -70l-126 10q24 94 94.5 148t166.5 54q92 0 144 -51.5t40 -143.5q-6 -39 -26 -72t-39.5 -52t-58.5 -51q-7 -6 -11 -9q-27 -22 -36 -31t-18.5 -26.5
t-12.5 -42.5zM200 70q4 32 31 55t60 23t53 -22t16 -54t-31 -55t-60 -23q-32 0 -52.5 22t-16.5 54z" />
    <glyph glyph-name="at" unicode="@" horiz-adv-x="800" 
d="M465 456q-49 0 -82.5 -35t-40.5 -86q-13 -92 70 -92q52 0 79.5 35.5t34.5 85.5q6 41 -9.5 66.5t-51.5 25.5zM636 133h110q-63 -73 -149.5 -112t-179.5 -39q-162 0 -260 105.5t-75 265.5q22 159 148.5 266t285.5 107q67 0 126.5 -22t104.5 -62.5t66.5 -104t10.5 -140.5
q-9 -60 -33 -106.5t-52.5 -71.5t-63.5 -41t-60 -20.5t-47 -4.5q-39 0 -57 16t-15 38h-2q-60 -54 -135 -54q-64 0 -98 47t-23 121q13 92 77.5 158.5t154.5 66.5q79 0 100 -57h2l14 45h94l-65 -197q-16 -51 -17 -57q-5 -37 22 -37q35 0 65.5 38t41.5 111q17 117 -46 180.5
t-181 63.5q-123 0 -211 -79.5t-105 -203.5q-18 -129 53.5 -205t200.5 -76q112 0 198 61z" />
    <glyph glyph-name="A" unicode="A" horiz-adv-x="722" 
d="M0 0l408 708h109l205 -708h-144l-43 162h-307l-87 -162h-141zM286 270h220l-69 288z" />
    <glyph glyph-name="B" unicode="B" horiz-adv-x="648" 
d="M79 0l100 708h276q90 0 147 -44t44 -134q-8 -58 -46.5 -98t-97.5 -57l-1 -2q66 -8 102.5 -55.5t26.5 -115.5q-8 -55 -36 -96t-70.5 -63t-89.5 -32.5t-100 -10.5h-255zM289 600l-25 -180h115q61 0 97 24t42 65q6 46 -24 68.5t-101 22.5h-104zM249 312l-29 -204h116
q155 0 170 104q7 54 -25.5 77t-110.5 23h-121z" />
    <glyph glyph-name="C" unicode="C" horiz-adv-x="685" 
d="M749 614l-108 -72q-56 70 -139 70q-108 0 -186 -72.5t-93 -180.5q-16 -115 41 -189t165 -74q92 0 172 86l93 -74q-109 -126 -282 -126q-165 0 -255 102t-67 267q24 169 143 272t284 103q152 0 232 -112z" />
    <glyph glyph-name="D" unicode="D" horiz-adv-x="759" 
d="M79 0l100 708h279q150 0 241.5 -92t68.5 -262q-12 -87 -56.5 -157t-105.5 -111.5t-129 -63.5t-134 -22h-264zM221 114h94q128 0 216 59t105 181q17 123 -46.5 181.5t-186.5 58.5h-115z" />
    <glyph glyph-name="E" unicode="E" horiz-adv-x="611" 
d="M79 0l100 708h469l-17 -114h-343l-24 -174h325l-16 -114h-325l-27 -192h361l-16 -114h-487z" />
    <glyph glyph-name="F" unicode="F" horiz-adv-x="574" 
d="M79 0l100 708h457l-17 -114h-331l-26 -186h312l-16 -114h-312l-41 -294h-126z" />
    <glyph glyph-name="G" unicode="G" horiz-adv-x="778" 
d="M766 414l-51 -362q-140 -70 -303 -70q-165 0 -255 102t-67 267q24 169 143 272t284 103q179 0 267 -89l-107 -94q-60 69 -175 69q-108 0 -186 -72.5t-93 -180.5q-16 -115 41 -189t165 -74q101 0 172 37l23 167h-145l16 114h271z" />
    <glyph glyph-name="H" unicode="H" horiz-adv-x="741" 
d="M79 0l100 708h126l-40 -282h331l40 282h126l-100 -708h-126l44 312h-331l-44 -312h-126z" />
    <glyph glyph-name="I" unicode="I" horiz-adv-x="278" 
d="M76 0l100 708h126l-100 -708h-126z" />
    <glyph glyph-name="J" unicode="J" horiz-adv-x="500" 
d="M526 708l-72 -512q-13 -90 -77.5 -152t-166.5 -62q-175 0 -185 163l122 28q2 -35 21 -56t52 -21q51 0 77 34.5t36 102.5l67 475h126z" />
    <glyph glyph-name="K" unicode="K" horiz-adv-x="685" 
d="M79 0l100 708h126l-43 -300h6l336 300h170l-377 -327l299 -381h-177l-258 348h-7l-49 -348h-126z" />
    <glyph glyph-name="L" unicode="L" horiz-adv-x="519" 
d="M79 0l100 708h126l-84 -594h301l-16 -114h-427z" />
    <glyph glyph-name="M" unicode="M" horiz-adv-x="926" 
d="M82 0l100 708h192l119 -496l261 496h190l-100 -708h-120l83 588h-2l-298 -588h-88l-132 588h-2l-83 -588h-120z" />
    <glyph glyph-name="N" unicode="N" horiz-adv-x="796" 
d="M79 0l100 708h167l269 -526h2l74 526h126l-100 -708h-160l-274 543h-2l-76 -543h-126z" />
    <glyph glyph-name="O" unicode="O" horiz-adv-x="833" 
d="M90 351q24 169 143 272t284 103q167 3 258 -99.5t67 -271.5q-23 -165 -142.5 -267.5t-287.5 -105.5q-165 0 -255 102t-67 267zM223 359q-16 -115 41 -189t165 -74q109 0 187 74t94 189q15 108 -42.5 180.5t-165.5 72.5t-186 -72.5t-93 -180.5z" />
    <glyph glyph-name="P" unicode="P" horiz-adv-x="611" 
d="M79 0l100 708h238q115 0 181 -48t51 -157q-9 -64 -37.5 -107.5t-73.5 -65t-92.5 -29.5t-109.5 -8h-90l-41 -293h-126zM261 401h76q27 0 45.5 1t44 6.5t42 15.5t30 29.5t17.5 47.5q5 31 -5.5 52t-33.5 30.5t-45.5 13t-52.5 3.5h-90z" />
    <glyph glyph-name="Q" unicode="Q" horiz-adv-x="852" 
d="M853 102l-14 -102h-412q-169 0 -263.5 100t-70.5 269q14 102 76.5 184t154 127.5t191.5 45.5q154 0 248.5 -101.5t73.5 -255.5q-25 -179 -186 -265l-1 -2h203zM496 612q-103 0 -180 -70t-92 -176q-15 -109 43 -180.5t161 -71.5q105 0 183 71.5t93 180.5q15 106 -43 176
t-165 70z" />
    <glyph glyph-name="R" unicode="R" horiz-adv-x="630" 
d="M79 0l100 708h246q116 0 183 -46.5t52 -156.5q-11 -77 -61.5 -129t-129.5 -63l144 -313h-152l-122 300h-92l-42 -300h-126zM262 408h98q33 0 55.5 2.5t49 11.5t42.5 30t21 54q4 30 -5.5 50t-31.5 29t-43 12t-50 3h-109z" />
    <glyph glyph-name="S" unicode="S" horiz-adv-x="574" 
d="M610 653l-106 -97q-32 56 -116 56q-48 0 -85.5 -23t-43.5 -68q-4 -29 11.5 -48.5t43.5 -31.5t62.5 -23t68.5 -26t60.5 -36t39.5 -59t6 -89q-15 -109 -97.5 -167.5t-193.5 -58.5q-151 0 -218 96l108 92q18 -35 52.5 -54.5t76.5 -19.5q48 0 90 25.5t48 71.5q4 31 -11.5 53
t-43 34.5t-62 23.5t-68 25.5t-60.5 35.5t-40 58.5t-6 88.5q14 103 99 158.5t192 55.5q126 0 193 -73z" />
    <glyph glyph-name="T" unicode="T" horiz-adv-x="574" 
d="M224 0l83 594h-217l17 114h560l-17 -114h-217l-83 -594h-126z" />
    <glyph glyph-name="U" unicode="U" horiz-adv-x="722" 
d="M746 708l-63 -448q-18 -126 -109.5 -202t-215.5 -76t-193.5 76t-51.5 202l63 448h126l-63 -444q-9 -63 22.5 -112.5t113.5 -49.5t127.5 49.5t54.5 112.5l63 444h126z" />
    <glyph glyph-name="V" unicode="V" horiz-adv-x="667" 
d="M275 0l-178 708h145l117 -535l275 535h136l-386 -708h-109z" />
    <glyph glyph-name="W" unicode="W" horiz-adv-x="981" 
d="M209 0l-109 708h138l61 -510h2l231 510h124l84 -510h2l211 510h128l-306 -708h-120l-88 539h-2l-240 -539h-116z" />
    <glyph glyph-name="X" unicode="X" horiz-adv-x="685" 
d="M0 0l304 370l-188 338h159l130 -262l202 262h153l-280 -338l205 -370h-160l-145 299l-228 -299h-152z" />
    <glyph glyph-name="Y" unicode="Y" horiz-adv-x="630" 
d="M252 0l43 303l-209 405h158l134 -282l216 282h150l-323 -405l-43 -303h-126z" />
    <glyph glyph-name="Z" unicode="Z" horiz-adv-x="611" 
d="M35 0l16 114l445 480h-372l17 114h529l-17 -114l-448 -480h387l-16 -114h-541z" />
    <glyph glyph-name="bracketleft" unicode="[" horiz-adv-x="278" 
d="M361 732l-11 -78h-90l-103 -732h90l-11 -78h-192l125 888h192z" />
    <glyph glyph-name="backslash" unicode="\" horiz-adv-x="389" 
d="M105 726l88 32l202 -776l-87 -30z" />
    <glyph glyph-name="bracketright" unicode="]" horiz-adv-x="278" 
d="M-2 -156l11 78h90l103 732h-90l11 78h192l-125 -888h-192z" />
    <glyph glyph-name="asciicircum" unicode="^" horiz-adv-x="666" 
d="M235 343h-118l275 365h82l171 -365h-118l-113 239z" />
    <glyph glyph-name="underscore" unicode="_" horiz-adv-x="500" 
d="M482 -125h-500l7 50h500z" />
    <glyph glyph-name="grave" unicode="`" 
d="M178 708l78 -144h-94l-120 144h136z" />
    <glyph glyph-name="a" unicode="a" horiz-adv-x="537" 
d="M368 0l9 66h-3q-59 -78 -165 -78q-72 0 -118 38t-36 106q6 45 31 77t57 49t78 27t80.5 12t78.5 2h30l2 13q6 43 -21 66.5t-76 23.5q-74 0 -136 -50l-54 63q87 77 215 77q42 0 74.5 -9t51.5 -21.5t31.5 -34t17.5 -37.5t5 -42t-1 -38t-4 -34l-39 -276h-108zM387 188l4 27
h-25q-179 0 -190 -74q-4 -31 19 -47t56 -16q60 0 94.5 29t41.5 81z" />
    <glyph glyph-name="b" unicode="b" horiz-adv-x="630" 
d="M68 0l106 756h120l-47 -337h3q68 73 173 73q102 0 157 -72t40 -180q-15 -109 -89.5 -180.5t-183.5 -71.5q-114 0 -153 84h-2l-10 -72h-114zM500 240q8 59 -25 101.5t-96 42.5q-64 0 -108.5 -42.5t-52.5 -101.5q-9 -59 23.5 -101.5t96.5 -42.5t108.5 42.5t53.5 101.5z" />
    <glyph glyph-name="c" unicode="c" horiz-adv-x="482" 
d="M538 419l-95 -83q-40 48 -84 48q-64 0 -108.5 -42.5t-52.5 -101.5q-9 -59 23.5 -101.5t96.5 -42.5q60 0 100 45l68 -86q-38 -33 -91 -50t-92 -17q-111 0 -175.5 70.5t-49.5 181.5t100 181.5t196 70.5q108 0 164 -73z" />
    <glyph glyph-name="d" unicode="d" horiz-adv-x="630" 
d="M448 0l10 72h-2q-62 -84 -177 -84q-108 0 -162 71.5t-39 180.5q15 108 90 180t177 72q104 0 153 -73h3l47 337h120l-106 -756h-114zM198 240q-9 -59 23.5 -101.5t96.5 -42.5t108.5 42.5t53.5 101.5q8 59 -25 101.5t-96 42.5q-64 0 -108.5 -42.5t-52.5 -101.5z" />
    <glyph glyph-name="e" unicode="e" horiz-adv-x="574" 
d="M558 198h-366q-1 -52 30.5 -83t82.5 -31q77 0 138 65l77 -65q-92 -96 -217 -96q-111 0 -175.5 70.5t-49.5 181.5t100 181.5t196 70.5q102 0 154 -69t34 -192zM204 288h246q7 53 -21 83.5t-84 30.5q-52 0 -89.5 -30.5t-51.5 -83.5z" />
    <glyph glyph-name="f" unicode="f" horiz-adv-x="352" 
d="M111 0l53 378h-99l14 102h99l10 68q16 111 61 165.5t149 54.5q41 0 75 -7l-22 -102q-30 7 -49 7q-46 0 -65.5 -26t-25.5 -73l-13 -87h111l-14 -102h-111l-53 -378h-120z" />
    <glyph glyph-name="g" unicode="g" horiz-adv-x="630" 
d="M515 480h114l-61 -437q-19 -134 -97 -208.5t-214 -74.5q-148 0 -227 79l86 98q66 -69 155 -69q153 0 175 161l5 35h-2q-63 -70 -167 -70q-106 0 -162.5 71t-41.5 175q15 109 89.5 180.5t182.5 71.5q114 0 153 -84h2zM360 384q-63 0 -108 -39.5t-54 -103.5
q-8 -58 26.5 -98.5t94.5 -40.5q65 0 110 40t53 101q9 63 -24 102t-98 39z" />
    <glyph glyph-name="h" unicode="h" horiz-adv-x="574" 
d="M294 756l-48 -343h2q21 33 60.5 56t91.5 23q90 0 125 -53.5t24 -135.5l-43 -303h-120l34 243q21 141 -68 141q-56 0 -88 -34.5t-39 -87.5l-37 -262h-120l106 756h120z" />
    <glyph glyph-name="i" unicode="i" 
d="M70 0l67 480h120l-67 -480h-120zM143 643q5 29 29.5 50.5t56.5 21.5q33 0 52.5 -20.5t15.5 -51.5t-29.5 -51.5t-58.5 -20.5q-32 0 -51 21.5t-15 50.5z" />
    <glyph glyph-name="j" unicode="j" 
d="M137 480h120l-71 -509q-15 -103 -56 -157t-136 -54q-37 0 -63 9l23 104q22 -5 37 -5q21 0 35.5 9t22.5 26.5t11 31t6 35.5zM143 643q5 29 29.5 50.5t56.5 21.5q33 0 52.5 -20.5t15.5 -51.5t-29.5 -51.5t-58.5 -20.5q-32 0 -51 21.5t-15 50.5z" />
    <glyph glyph-name="k" unicode="k" horiz-adv-x="537" 
d="M68 0l106 756h120l-67 -475l213 199h154l-236 -218l182 -262h-159l-157 245h-2l-34 -245h-120z" />
    <glyph glyph-name="l" unicode="l" 
d="M70 0l106 756h120l-106 -756h-120z" />
    <glyph glyph-name="m" unicode="m" horiz-adv-x="870" 
d="M63 0l67 480h114l-10 -75h2q52 87 159 87q113 0 138 -89q63 89 170 89q91 0 124 -56t20 -150l-40 -286h-120l38 272q17 112 -73 112q-52 0 -82.5 -36t-37.5 -88l-37 -260h-120l40 286q13 98 -68 98q-56 0 -88 -34.5t-39 -87.5l-37 -262h-120z" />
    <glyph glyph-name="n" unicode="n" horiz-adv-x="574" 
d="M68 0l67 480h114l-10 -77h2q52 89 159 89q90 0 125 -53.5t24 -135.5l-43 -303h-120l34 243q21 141 -68 141q-56 0 -88 -34.5t-39 -87.5l-37 -262h-120z" />
    <glyph glyph-name="o" unicode="o" horiz-adv-x="610" 
d="M78 240q15 111 100 181.5t196 70.5t176 -70.5t50 -181.5t-100.5 -181.5t-196.5 -70.5t-175.5 70.5t-49.5 181.5zM198 240q-9 -59 23.5 -101.5t96.5 -42.5t108.5 42.5t53.5 101.5q8 59 -25 101.5t-96 42.5q-64 0 -108.5 -42.5t-52.5 -101.5z" />
    <glyph glyph-name="p" unicode="p" horiz-adv-x="630" 
d="M36 -228l99 708h114l-10 -72h2q62 84 177 84q109 0 163 -71.5t39 -180.5q-15 -108 -90.5 -180t-177.5 -72q-105 0 -152 73h-3l-41 -289h-120zM500 240q8 59 -25 101.5t-96 42.5q-64 0 -108.5 -42.5t-52.5 -101.5q-9 -59 23.5 -101.5t96.5 -42.5t108.5 42.5t53.5 101.5z
" />
    <glyph glyph-name="q" unicode="q" horiz-adv-x="630" 
d="M629 480l-99 -708h-120l41 289h-3q-71 -73 -174 -73q-102 0 -156.5 72t-39.5 180q15 109 89.5 180.5t182.5 71.5q114 0 153 -84h2l10 72h114zM198 240q-9 -59 23.5 -101.5t96.5 -42.5t108.5 42.5t53.5 101.5q8 59 -25 101.5t-96 42.5q-64 0 -108.5 -42.5t-52.5 -101.5z
" />
    <glyph glyph-name="r" unicode="r" horiz-adv-x="389" 
d="M68 0l67 480h120l-10 -76h2q26 41 66.5 64.5t87.5 23.5q19 0 42 -7l-16 -116q-34 9 -57 9q-39 0 -69 -14.5t-45.5 -37t-22.5 -39t-9 -30.5l-36 -257h-120z" />
    <glyph glyph-name="s" unicode="s" horiz-adv-x="444" 
d="M463 419l-90 -72q-29 49 -87 49q-27 0 -50.5 -13t-27.5 -38q-3 -23 22 -35.5t62 -20t73.5 -19.5t58.5 -44t15 -84q-8 -54 -45.5 -90t-84 -50t-99.5 -14q-121 0 -176 74l90 75q45 -59 106 -59q30 0 57 14.5t31 40.5q4 27 -21 41t-62 21.5t-73.5 18.5t-59 41.5t-15.5 81.5
q11 75 73 115t142 40q117 0 161 -73z" />
    <glyph glyph-name="t" unicode="t" horiz-adv-x="389" 
d="M164 378h-99l14 102h99l20 139h120l-20 -139h132l-14 -102h-132l-29 -210q-6 -39 6 -58.5t50 -19.5q44 0 67 15l-14 -101q-36 -16 -98 -16q-91 0 -118.5 40t-14.5 130z" />
    <glyph glyph-name="u" unicode="u" horiz-adv-x="574" 
d="M573 480l-67 -480h-114l11 77h-2q-54 -89 -160 -89q-90 0 -125 53.5t-23 135.5l42 303h120l-34 -243l-4 -60t15.5 -56t56.5 -25q56 0 88.5 35t39.5 87l36 262h120z" />
    <glyph glyph-name="v" unicode="v" horiz-adv-x="519" 
d="M199 0l-129 480h131l81 -336h2l176 336h123l-256 -480h-128z" />
    <glyph glyph-name="w" unicode="w" horiz-adv-x="796" 
d="M170 0l-100 480h130l57 -336h2l144 336h130l57 -336h2l147 336h121l-230 -480h-119l-68 328h-2l-147 -328h-124z" />
    <glyph glyph-name="x" unicode="x" horiz-adv-x="537" 
d="M-1 0l229 258l-135 222h146l76 -144l124 144h137l-195 -222l157 -258h-146l-101 172l-150 -172h-142z" />
    <glyph glyph-name="y" unicode="y" horiz-adv-x="519" 
d="M207 -4l-137 484h132l88 -333h2l166 333h125l-308 -583q-38 -72 -82.5 -104.5t-120.5 -32.5q-46 0 -90 12l30 108q31 -12 59 -12q42 0 62.5 15.5t42.5 55.5z" />
    <glyph glyph-name="z" unicode="z" horiz-adv-x="482" 
d="M34 0l16 111l295 271v2h-245l13 96h390l-15 -109l-299 -275h272l-13 -96h-414z" />
    <glyph glyph-name="braceleft" unicode="{" horiz-adv-x="278" 
d="M34 244l13 88q31 0 64.5 16.5t39.5 53.5l27 198q9 61 57.5 96.5t89.5 35.5h91l-12 -84h-55q-38 0 -53 -20t-19 -50l-26 -188q-5 -36 -28 -59.5t-43 -31t-41 -10.5l-1 -2q96 -9 83 -107l-25 -182q-10 -70 52 -70h55l-12 -84h-91q-41 0 -79.5 35.5t-29.5 96.5l26 191
q6 41 -23 59t-60 18z" />
    <glyph glyph-name="bar" unicode="|" horiz-adv-x="401" 
d="M206 829h91v-1105h-91v1105z" />
    <glyph glyph-name="braceright" unicode="}" horiz-adv-x="278" 
d="M325 332l-13 -88q-31 0 -65 -16.5t-39 -53.5l-27 -198q-9 -61 -57.5 -96.5t-89.5 -35.5h-91l12 84h55q38 0 53 20t19 50l26 188q5 36 28 59.5t43 31t41 10.5l1 2q-96 9 -83 107l25 182q10 70 -52 70h-55l12 84h91q41 0 79.5 -35.5t29.5 -96.5l-27 -191q-5 -41 24 -59
t60 -18z" />
    <glyph glyph-name="asciitilde" unicode="~" horiz-adv-x="666" 
d="M583 385l24 -84q-24 -27 -39 -42t-42 -29.5t-56 -14.5q-42 0 -97 33q-58 35 -110 35q-50 0 -96 -68l-24 84q57 86 134 86q44 0 112 -32q5 -2 20 -9.5t22 -10.5l18 -7.5t20 -6.5t16 -2q19 0 39 12.5t29.5 22.5t29.5 33z" />
    <glyph glyph-name="uni00A0" unicode="&#xa0;" horiz-adv-x="296" 
 />
    <glyph glyph-name="exclamdown" unicode="&#xa1;" horiz-adv-x="296" 
d="M57 -222l68 487h120l-68 -487h-120zM286 416q-5 -32 -31 -55t-59 -23t-53.5 22t-16.5 54t31 55t60 23q32 0 53 -22t16 -54z" />
    <glyph glyph-name="cent" unicode="&#xa2;" horiz-adv-x="592" 
d="M433 559l-10 -67q115 -4 160 -69l-88 -78q-34 42 -86 45l-42 -300q55 0 103 46l62 -79q-70 -65 -180 -69l-10 -72h-54l10 72q-100 9 -150 79.5t-36 173.5q14 104 83 170.5t174 80.5l10 67h54zM313 90l42 299q-55 -11 -88 -51.5t-41 -97.5q-8 -55 14.5 -96t72.5 -54z" />
    <glyph glyph-name="sterling" unicode="&#xa3;" horiz-adv-x="592" 
d="M66 0l13 96h102l31 219h-102l12 84h102l14 100q6 39 24.5 76.5t50 70.5t80.5 53.5t108 20.5q119 0 182 -64l-93 -87q-40 43 -100 43q-53 0 -89.5 -36.5t-43.5 -86.5l-13 -90h162l-12 -84h-162l-31 -219h253l-13 -96h-475z" />
    <glyph glyph-name="currency" unicode="&#xa4;" horiz-adv-x="592" 
d="M109 95l-51 60l56 49q-40 67 -28 151t70 151l-42 49l68 59l43 -48q74 48 157 48q84 0 145 -48l55 48l52 -59l-56 -49q40 -68 28 -151q-12 -84 -70 -151l42 -49l-69 -60l-42 49q-73 -49 -158 -49q-83 0 -144 49zM200 355q-10 -69 24 -110.5t101 -41.5t112 41.5t55 110.5
t-24 110t-101 41t-112 -41t-55 -110z" />
    <glyph glyph-name="yen" unicode="&#xa5;" horiz-adv-x="592" 
d="M236 0l25 177h-170l11 78h170l7 48l-15 34h-151l11 78h108l-120 293h135l113 -294l191 294h129l-204 -293h108l-11 -78h-151l-23 -34l-7 -48h170l-11 -78h-170l-25 -177h-120z" />
    <glyph glyph-name="brokenbar" unicode="&#xa6;" horiz-adv-x="400" 
d="M206 746h90v-387h-90v387zM206 193h90v-385h-90v385z" />
    <glyph glyph-name="section" unicode="&#xa7;" horiz-adv-x="593" 
d="M591 625l-113 -59q-7 30 -30.5 47t-55.5 17q-33 0 -59.5 -17t-31.5 -49q-4 -30 23.5 -53t69.5 -41t83 -39.5t66 -59.5t18 -91q-5 -41 -33.5 -75.5t-69.5 -52.5q54 -45 45 -119q-8 -57 -48.5 -98.5t-92.5 -60t-107 -18.5q-168 0 -205 123l114 52q5 -35 34.5 -54t69.5 -19
q36 0 66 15.5t35 49.5q4 30 -23.5 52.5t-69 39.5t-83 37.5t-67 57.5t-18.5 89q13 96 117 148q-60 41 -50 114q11 78 78 121.5t149 43.5q65 0 117 -24.5t72 -76.5zM299 239l90 -45q20 10 36.5 30t19.5 40q4 8 0.5 17.5t-3.5 14.5t-7 12.5t-9 10.5t-11 9t-12.5 8.5t-13 8
t-13.5 7.5l-83 42q-31 -13 -47.5 -28t-19.5 -42q-2 -17 2.5 -30.5t19 -24.5t23 -16t28.5 -14z" />
    <glyph glyph-name="dieresis" unicode="&#xa8;" 
d="M39 636q5 29 30 50.5t57 21.5q33 0 52 -20.5t15 -51.5t-29.5 -51.5t-58.5 -20.5q-32 0 -51 21.5t-15 50.5zM245 636q5 29 30 50.5t57 21.5q33 0 52 -20.5t15 -51.5t-29.5 -51.5t-58.5 -20.5q-32 0 -51 21.5t-15 50.5z" />
    <glyph glyph-name="copyright" unicode="&#xa9;" horiz-adv-x="800" 
d="M536 297h94q-20 -72 -76 -113t-124 -41q-92 0 -137 60.5t-32 153.5q13 95 73 152.5t154 57.5q70 0 114 -37.5t45 -107.5h-94q-3 61 -69 61q-55 0 -86.5 -33.5t-40.5 -90.5q-8 -58 15 -95t74 -37q75 0 90 70zM78 354q22 154 146 263t278 109t248 -109t72 -263t-146.5 -263
t-278.5 -109t-247.5 109t-71.5 263zM174 354q-17 -121 51 -204.5t184 -83.5t208 83.5t109 204.5t-51.5 204.5t-184.5 83.5t-207.5 -83.5t-108.5 -204.5z" />
    <glyph glyph-name="ordfeminine" unicode="&#xaa;" horiz-adv-x="349" 
d="M304 431l5 39h-2q-34 -45 -109 -45q-15 0 -31.5 4t-34 12.5t-27 27t-5.5 44.5q5 33 26.5 55t56.5 31t63 11.5t66 2.5h17l1 8q3 16 -15 24.5t-49 8.5q-45 0 -88 -32l-35 53q57 45 144 45q71 0 99 -29.5t19 -90.5l-23 -169h-78zM317 553h-28q-100 0 -104 -37
q-2 -14 11.5 -22.5t33.5 -8.5q77 0 86 62z" />
    <glyph glyph-name="guillemotleft" unicode="&#xab;" horiz-adv-x="519" 
d="M316 421l-139 -173l91 -175l-83 -51l-120 226l183 224zM539 421l-139 -173l91 -175l-83 -51l-120 226l183 224z" />
    <glyph glyph-name="logicalnot" unicode="&#xac;" horiz-adv-x="666" 
d="M523 147l27 195h-440l14 102h542l-41 -297h-102z" />
    <glyph glyph-name="uni00AD" unicode="&#xad;" horiz-adv-x="315" 
d="M323 297l-15 -102h-247l15 102h247z" />
    <glyph glyph-name="registered" unicode="&#xae;" horiz-adv-x="800" 
d="M280 163l55 390h125q37 0 65.5 -5t53 -17t35.5 -35.5t6 -57.5q-7 -49 -38.5 -82t-66.5 -38l78 -155h-105l-68 150h-23l-21 -150h-96zM419 475l-12 -84h47q63 0 69 42q2 14 -3 23t-15 13t-18.5 5t-20.5 1h-47zM78 354q22 154 146 263t278 109t248 -109t72 -263
t-146.5 -263t-278.5 -109t-247.5 109t-71.5 263zM174 354q-17 -121 51 -204.5t184 -83.5t208 83.5t109 204.5t-51.5 204.5t-184.5 83.5t-207.5 -83.5t-108.5 -204.5z" />
    <glyph glyph-name="macron" unicode="&#xaf;" 
d="M385 673l-11 -78h-320l11 78h320z" />
    <glyph glyph-name="degree" unicode="&#xb0;" horiz-adv-x="400" 
d="M119 560q9 66 62.5 113t119.5 47t106.5 -47t31.5 -113q-10 -66 -63.5 -113t-119.5 -47t-106.5 47t-30.5 113zM197 560q-5 -34 15.5 -58t54.5 -24t61.5 24t32.5 58t-16 58t-55 24t-61.5 -24t-31.5 -58z" />
    <glyph glyph-name="plusminus" unicode="&#xb1;" horiz-adv-x="666" 
d="M344 431l20 143h102l-20 -143h219l-15 -102h-219l-20 -143h-102l20 143h-221l15 102h221zM66 32l15 102h542l-15 -102h-542z" />
    <glyph glyph-name="twosuperior" unicode="&#xb2;" horiz-adv-x="385" 
d="M72 289l13 95l201 152q46 35 49 55t-11.5 29.5t-38.5 9.5q-26 0 -45.5 -15.5t-24.5 -38.5l-95 6q14 69 62.5 103.5t119.5 34.5q69 0 106.5 -33t28.5 -95q-9 -65 -73 -109l-155 -108l-1 -2h198l-11 -84h-323z" />
    <glyph glyph-name="threesuperior" unicode="&#xb3;" horiz-adv-x="385" 
d="M212 468l12 84h32q70 0 76 45q2 16 -11 24.5t-37 8.5q-51 0 -68 -44l-100 20q43 114 180 114q65 0 106 -29.5t33 -84.5q-5 -36 -29.5 -61t-62.5 -32v-2q39 -5 58.5 -33.5t14.5 -66.5q-9 -62 -60.5 -95t-123.5 -33q-139 0 -149 118l106 22q3 -50 55 -50q64 0 71 48
q3 16 -2.5 26.5t-19.5 14.5t-25.5 5t-32.5 1h-23z" />
    <glyph glyph-name="acute" unicode="&#xb4;" 
d="M162 564l120 144h136l-162 -144h-94z" />
    <glyph glyph-name="mu" unicode="&#xb5;" horiz-adv-x="574" 
d="M135 480h120l-34 -243l-4 -60t15.5 -56t56.5 -25q56 0 88.5 35t39.5 87l36 262h120l-67 -480h-114l11 77h-2q-54 -89 -160 -89q-32 0 -54 7l-31 -223h-120z" />
    <glyph glyph-name="paragraph" unicode="&#xb6;" horiz-adv-x="600" 
d="M228 -126l66 464q-97 0 -149 51t-41 131q27 188 260 188h269l-118 -834h-90l107 762h-107l-107 -762h-90z" />
    <glyph glyph-name="periodcentered" unicode="&#xb7;" horiz-adv-x="296" 
d="M109 291q4 32 31 55t60 23t53 -22t16 -54t-31 -55t-60 -23q-32 0 -52.5 22t-16.5 54z" />
    <glyph glyph-name="cedilla" unicode="&#xb8;" 
d="M219 0l-50 -60q27 0 44.5 -2.5t35.5 -10t25.5 -25t3.5 -45.5q-7 -50 -53 -73.5t-100 -23.5q-55 0 -102 28l29 46q35 -20 79 -20q21 0 40.5 10t22.5 32q2 18 -12.5 27t-33.5 9q-17 0 -38 -7l-24 25l75 90h58z" />
    <glyph glyph-name="onesuperior" unicode="&#xb9;" horiz-adv-x="385" 
d="M220 289l44 317l-94 -75l-46 66l166 117h91l-59 -425h-102z" />
    <glyph glyph-name="ordmasculine" unicode="&#xba;" horiz-adv-x="397" 
d="M257 425q-71 0 -113.5 41.5t-32.5 105.5q10 65 63 106.5t124 41.5q72 0 115 -41.5t33 -106.5q-9 -64 -63 -105.5t-126 -41.5zM267 497q39 0 65.5 23.5t29.5 51.5q4 29 -15.5 52.5t-58.5 23.5t-65 -23.5t-30 -52.5q-3 -29 16 -52t58 -23z" />
    <glyph glyph-name="guillemotright" unicode="&#xbb;" horiz-adv-x="519" 
d="M272 73l140 173l-92 175l83 51l121 -226l-184 -224zM49 73l140 173l-92 175l83 51l121 -226l-184 -224z" />
    <glyph glyph-name="onequarter" unicode="&#xbc;" horiz-adv-x="889" 
d="M705 0l12 85h-198l11 78l225 262h112l-36 -256h53l-12 -84h-53l-12 -85h-102zM729 169l19 134l-1 2l-114 -136h96zM209 289l44 317l-94 -75l-46 66l166 117h91l-59 -425h-102zM185 6l519 734l78 -38l-519 -734z" />
    <glyph glyph-name="onehalf" unicode="&#xbd;" horiz-adv-x="889" 
d="M212 289l44 317l-94 -75l-46 66l166 117h91l-59 -425h-102zM535 0l13 95l201 152q1 1 6.5 5.5t7.5 6l7 5.5t7 6l6 6t5.5 6.5t4 6t3.5 7t1 6.5q3 20 -11.5 29.5t-38.5 9.5q-26 0 -45.5 -15.5t-24.5 -38.5l-95 6q14 69 63 103.5t120 34.5q69 0 106.5 -33t28.5 -95
q-10 -65 -74 -109l-155 -108v-2h198l-12 -84h-322zM187 6l519 734l78 -38l-519 -734z" />
    <glyph glyph-name="threequarters" unicode="&#xbe;" horiz-adv-x="889" 
d="M737 157l25 178h-2l-143 -176v-2h120zM712 0l12 85h-198l11 78l225 262h112l-36 -256h52l-12 -84h-52l-12 -85h-102zM208 468l12 84h32q70 0 76 45q2 16 -11 24.5t-37 8.5q-51 0 -68 -44l-100 20q43 114 180 114q65 0 106 -29.5t33 -84.5q-5 -36 -29.5 -61t-62.5 -32v-2
q39 -5 58.5 -33.5t14.5 -66.5q-9 -62 -60.5 -95t-123.5 -33q-139 0 -149 118l106 22q3 -50 55 -50q64 0 71 48q3 16 -2.5 26.5t-19.5 14.5t-25.5 5t-32.5 1h-23zM212 6l519 734l78 -38l-519 -734z" />
    <glyph glyph-name="questiondown" unicode="&#xbf;" horiz-adv-x="519" 
d="M228 277h120l-8 -55q-6 -42 -19 -62.5t-51 -54.5l-88 -78q-29 -25 -34 -65q-6 -39 16 -63.5t61 -24.5q41 0 72.5 28t41.5 70l127 -10q-25 -94 -95.5 -148t-166.5 -54q-92 0 -144 51.5t-39 143.5q4 29 14 53t30 47t34 36t45 38q8 7 12 10q27 23 35.5 31.5t18 26t13.5 42.5
zM387 416q-5 -32 -31 -55t-59 -23t-53.5 22t-16.5 54t31 55t60 23q32 0 53 -22t16 -54z" />
    <glyph glyph-name="Agrave" unicode="&#xc0;" horiz-adv-x="722" 
d="M0 0l408 708h109l205 -708h-144l-43 162h-307l-87 -162h-141zM286 270h220l-69 288zM435 900l79 -144h-94l-121 144h136z" />
    <glyph glyph-name="Aacute" unicode="&#xc1;" horiz-adv-x="722" 
d="M0 0l408 708h109l205 -708h-144l-43 162h-307l-87 -162h-141zM286 270h220l-69 288zM420 756l119 144h136l-161 -144h-94z" />
    <glyph glyph-name="Acircumflex" unicode="&#xc2;" horiz-adv-x="722" 
d="M0 0l408 708h109l205 -708h-144l-43 162h-307l-87 -162h-141zM286 270h220l-69 288zM649 756h-114l-57 90l-81 -90h-112l135 144h135z" />
    <glyph glyph-name="Atilde" unicode="&#xc3;" horiz-adv-x="722" 
d="M0 0l408 708h109l205 -708h-144l-43 162h-307l-87 -162h-141zM286 270h220l-69 288zM349 760h-66q38 127 130 127q29 0 77 -18.5t62 -18.5q32 0 52 42h66q-19 -58 -48.5 -92.5t-81.5 -34.5q-29 0 -77 19t-62 19q-31 0 -52 -43z" />
    <glyph glyph-name="Adieresis" unicode="&#xc4;" horiz-adv-x="722" 
d="M0 0l408 708h109l205 -708h-144l-43 162h-307l-87 -162h-141zM286 270h220l-69 288zM297 828q4 30 28.5 51t57.5 21t53 -21t15 -51q-5 -31 -30 -51.5t-58 -20.5t-52 21.5t-14 50.5zM503 828q4 30 28.5 51t57.5 21t53 -21t15 -51q-5 -31 -30 -51.5t-58 -20.5t-52 21.5
t-14 50.5z" />
    <glyph glyph-name="Aring" unicode="&#xc5;" horiz-adv-x="722" 
d="M0 0l408 708h109l205 -708h-144l-43 162h-307l-87 -162h-141zM286 270h220l-69 288zM583 837q-6 -45 -40 -73.5t-79 -28.5t-71 28t-20 73q6 44 40 73.5t79 29.5t71.5 -28.5t19.5 -73.5zM535 837q3 23 -11.5 38.5t-37.5 15.5q-24 0 -43 -15.5t-22 -38.5t11.5 -38.5
t38.5 -15.5t42.5 15t21.5 39z" />
    <glyph glyph-name="AE" unicode="&#xc6;" horiz-adv-x="1000" 
d="M529 0l26 186h-268l-140 -186h-153l553 708h496l-17 -114h-288l-24 -174h270l-16 -114h-270l-27 -192h300l-16 -114h-426zM368 294h202l42 300h-15z" />
    <glyph glyph-name="Ccedilla" unicode="&#xc7;" horiz-adv-x="685" 
d="M749 614l-108 -72q-56 70 -139 70q-108 0 -186 -72.5t-93 -180.5q-16 -115 41 -189t165 -74q92 0 172 86l93 -74q-107 -124 -278 -126l-34 -42q27 0 44.5 -2.5t35.5 -10t25.5 -25t3.5 -45.5q-7 -50 -53 -73.5t-100 -23.5q-55 0 -102 28l29 46q35 -20 79 -20q21 0 40.5 10
t22.5 32q2 18 -12.5 27t-33.5 9q-17 0 -38 -7l-24 25l62 75q-142 17 -217 116t-54 250q24 169 143 272t284 103q152 0 232 -112z" />
    <glyph glyph-name="Egrave" unicode="&#xc8;" horiz-adv-x="611" 
d="M79 0l100 708h469l-17 -114h-343l-24 -174h325l-16 -114h-325l-27 -192h361l-16 -114h-487zM380 900l79 -144h-94l-121 144h136z" />
    <glyph glyph-name="Eacute" unicode="&#xc9;" horiz-adv-x="611" 
d="M79 0l100 708h469l-17 -114h-343l-24 -174h325l-16 -114h-325l-27 -192h361l-16 -114h-487zM365 756l119 144h136l-161 -144h-94z" />
    <glyph glyph-name="Ecircumflex" unicode="&#xca;" horiz-adv-x="611" 
d="M79 0l100 708h469l-17 -114h-343l-24 -174h325l-16 -114h-325l-27 -192h361l-16 -114h-487zM594 756h-114l-57 90l-81 -90h-112l135 144h135z" />
    <glyph glyph-name="Edieresis" unicode="&#xcb;" horiz-adv-x="611" 
d="M79 0l100 708h469l-17 -114h-343l-24 -174h325l-16 -114h-325l-27 -192h361l-16 -114h-487zM242 828q4 30 28.5 51t57.5 21t53 -21t15 -51q-5 -31 -30 -51.5t-58 -20.5t-52 21.5t-14 50.5zM448 828q4 30 28.5 51t57.5 21t53 -21t15 -51q-5 -31 -30 -51.5t-58 -20.5
t-52 21.5t-14 50.5z" />
    <glyph glyph-name="Igrave" unicode="&#xcc;" horiz-adv-x="278" 
d="M76 0l100 708h126l-100 -708h-126zM213 900l79 -144h-94l-121 144h136z" />
    <glyph glyph-name="Iacute" unicode="&#xcd;" horiz-adv-x="278" 
d="M76 0l100 708h126l-100 -708h-126zM198 756l119 144h136l-161 -144h-94z" />
    <glyph glyph-name="Icircumflex" unicode="&#xce;" horiz-adv-x="278" 
d="M76 0l100 708h126l-100 -708h-126zM427 756h-114l-57 90l-81 -90h-112l135 144h135z" />
    <glyph glyph-name="Idieresis" unicode="&#xcf;" horiz-adv-x="278" 
d="M76 0l100 708h126l-100 -708h-126zM75 828q4 30 28.5 51t57.5 21t53 -21t15 -51q-5 -31 -30 -51.5t-58 -20.5t-52 21.5t-14 50.5zM281 828q4 30 28.5 51t57.5 21t53 -21t15 -51q-5 -31 -30 -51.5t-58 -20.5t-52 21.5t-14 50.5z" />
    <glyph glyph-name="Eth" unicode="&#xd0;" horiz-adv-x="759" 
d="M79 0l46 324h-66l11 84h66l43 300h279q150 0 241.5 -92t68.5 -262q-12 -87 -56.5 -157t-105.5 -111.5t-129 -63.5t-134 -22h-264zM221 114h94q128 0 216 59t105 181q17 123 -46.5 181.5t-186.5 58.5h-115l-26 -186h216l-11 -84h-216z" />
    <glyph glyph-name="Ntilde" unicode="&#xd1;" horiz-adv-x="796" 
d="M79 0l100 708h167l269 -526h2l74 526h126l-100 -708h-160l-274 543h-2l-76 -543h-126zM386 760h-66q38 127 130 127q29 0 77 -18.5t62 -18.5q32 0 52 42h66q-19 -58 -48.5 -92.5t-81.5 -34.5q-29 0 -77 19t-62 19q-31 0 -52 -43z" />
    <glyph glyph-name="Ograve" unicode="&#xd2;" horiz-adv-x="833" 
d="M90 351q24 169 143 272t284 103q167 3 258 -99.5t67 -271.5q-23 -165 -142.5 -267.5t-287.5 -105.5q-165 0 -255 102t-67 267zM223 359q-16 -115 41 -189t165 -74q109 0 187 74t94 189q15 108 -42.5 180.5t-165.5 72.5t-186 -72.5t-93 -180.5zM491 900l79 -144h-94
l-121 144h136z" />
    <glyph glyph-name="Oacute" unicode="&#xd3;" horiz-adv-x="833" 
d="M90 351q24 169 143 272t284 103q167 3 258 -99.5t67 -271.5q-23 -165 -142.5 -267.5t-287.5 -105.5q-165 0 -255 102t-67 267zM223 359q-16 -115 41 -189t165 -74q109 0 187 74t94 189q15 108 -42.5 180.5t-165.5 72.5t-186 -72.5t-93 -180.5zM476 756l119 144h136
l-161 -144h-94z" />
    <glyph glyph-name="Ocircumflex" unicode="&#xd4;" horiz-adv-x="833" 
d="M90 351q24 169 143 272t284 103q167 3 258 -99.5t67 -271.5q-23 -165 -142.5 -267.5t-287.5 -105.5q-165 0 -255 102t-67 267zM223 359q-16 -115 41 -189t165 -74q109 0 187 74t94 189q15 108 -42.5 180.5t-165.5 72.5t-186 -72.5t-93 -180.5zM705 756h-114l-57 90
l-81 -90h-112l135 144h135z" />
    <glyph glyph-name="Otilde" unicode="&#xd5;" horiz-adv-x="833" 
d="M90 351q24 169 143 272t284 103q167 3 258 -99.5t67 -271.5q-23 -165 -142.5 -267.5t-287.5 -105.5q-165 0 -255 102t-67 267zM223 359q-16 -115 41 -189t165 -74q109 0 187 74t94 189q15 108 -42.5 180.5t-165.5 72.5t-186 -72.5t-93 -180.5zM405 760h-66
q38 127 130 127q29 0 77 -18.5t62 -18.5q32 0 52 42h66q-19 -58 -48.5 -92.5t-81.5 -34.5q-29 0 -77 19t-62 19q-31 0 -52 -43z" />
    <glyph glyph-name="Odieresis" unicode="&#xd6;" horiz-adv-x="833" 
d="M90 351q24 169 143 272t284 103q167 3 258 -99.5t67 -271.5q-23 -165 -142.5 -267.5t-287.5 -105.5q-165 0 -255 102t-67 267zM223 359q-16 -115 41 -189t165 -74q109 0 187 74t94 189q15 108 -42.5 180.5t-165.5 72.5t-186 -72.5t-93 -180.5zM353 828q4 30 28.5 51
t57.5 21t53 -21t15 -51q-5 -31 -30 -51.5t-58 -20.5t-52 21.5t-14 50.5zM559 828q4 30 28.5 51t57.5 21t53 -21t15 -51q-5 -31 -30 -51.5t-58 -20.5t-52 21.5t-14 50.5z" />
    <glyph glyph-name="multiply" unicode="&#xd7;" horiz-adv-x="666" 
d="M228 557l158 -183l207 182l60 -70l-206 -181l159 -186l-85 -74l-157 181l-207 -181l-63 73l210 182l-158 186z" />
    <glyph glyph-name="Oslash" unicode="&#xd8;" horiz-adv-x="833" 
d="M247 197l392 370q-56 45 -137 45q-108 0 -186 -72.5t-93 -180.5q-12 -93 24 -162zM679 521l-394 -373q57 -52 144 -52q109 0 187 74t94 189q14 97 -31 162zM838 755l43 -43l-99 -94q82 -101 60 -263q-23 -165 -142.5 -267.5t-287.5 -105.5q-138 0 -225 74l-98 -92l-44 43
l100 94q-76 101 -55 250q24 169 143 272t284 103q131 3 221 -65z" />
    <glyph glyph-name="Ugrave" unicode="&#xd9;" horiz-adv-x="722" 
d="M746 708l-63 -448q-18 -126 -109.5 -202t-215.5 -76t-193.5 76t-51.5 202l63 448h126l-63 -444q-9 -63 22.5 -112.5t113.5 -49.5t127.5 49.5t54.5 112.5l63 444h126zM435 900l79 -144h-94l-121 144h136z" />
    <glyph glyph-name="Uacute" unicode="&#xda;" horiz-adv-x="722" 
d="M746 708l-63 -448q-18 -126 -109.5 -202t-215.5 -76t-193.5 76t-51.5 202l63 448h126l-63 -444q-9 -63 22.5 -112.5t113.5 -49.5t127.5 49.5t54.5 112.5l63 444h126zM420 756l119 144h136l-161 -144h-94z" />
    <glyph glyph-name="Ucircumflex" unicode="&#xdb;" horiz-adv-x="722" 
d="M746 708l-63 -448q-18 -126 -109.5 -202t-215.5 -76t-193.5 76t-51.5 202l63 448h126l-63 -444q-9 -63 22.5 -112.5t113.5 -49.5t127.5 49.5t54.5 112.5l63 444h126zM649 756h-114l-57 90l-81 -90h-112l135 144h135z" />
    <glyph glyph-name="Udieresis" unicode="&#xdc;" horiz-adv-x="722" 
d="M746 708l-63 -448q-18 -126 -109.5 -202t-215.5 -76t-193.5 76t-51.5 202l63 448h126l-63 -444q-9 -63 22.5 -112.5t113.5 -49.5t127.5 49.5t54.5 112.5l63 444h126zM297 828q4 30 28.5 51t57.5 21t53 -21t15 -51q-5 -31 -30 -51.5t-58 -20.5t-52 21.5t-14 50.5zM503 828
q4 30 28.5 51t57.5 21t53 -21t15 -51q-5 -31 -30 -51.5t-58 -20.5t-52 21.5t-14 50.5z" />
    <glyph glyph-name="Yacute" unicode="&#xdd;" horiz-adv-x="630" 
d="M252 0l43 303l-209 405h158l134 -282l216 282h150l-323 -405l-43 -303h-126zM374 756l119 144h136l-161 -144h-94z" />
    <glyph glyph-name="Thorn" unicode="&#xde;" horiz-adv-x="611" 
d="M79 0l100 708h126l-20 -137h112q54 0 97.5 -10.5t78 -33t49.5 -63.5t7 -98q-7 -52 -28 -90t-49 -61t-68 -36.5t-79 -18t-88 -4.5h-90l-22 -156h-126zM242 264h76q27 0 45.5 1t44 6.5t42 15.5t30 29.5t17.5 47.5q6 41 -16 64t-51 29t-70 6h-90z" />
    <glyph glyph-name="germandbls" unicode="&#xdf;" horiz-adv-x="611" 
d="M56 0l72 511q19 134 86.5 195.5t189.5 61.5q92 0 147.5 -48.5t43.5 -136.5q-16 -114 -128 -158l-1 -2q76 -10 109.5 -66.5t22.5 -138.5q-15 -102 -90 -166t-178 -64q-45 0 -82 11l14 101q21 -10 54 -10q64 0 109 37.5t54 100.5q10 69 -26.5 106t-105.5 37h-14l14 102h8
q45 0 78 25.5t40 68.5q5 41 -20.5 67t-67.5 26q-58 0 -92 -33.5t-41 -87.5l-76 -539h-120z" />
    <glyph glyph-name="agrave" unicode="&#xe0;" horiz-adv-x="537" 
d="M368 0l9 66h-3q-59 -78 -165 -78q-72 0 -118 38t-36 106q6 45 31 77t57 49t78 27t80.5 12t78.5 2h30l2 13q6 43 -21 66.5t-76 23.5q-74 0 -136 -50l-54 63q87 77 215 77q42 0 74.5 -9t51.5 -21.5t31.5 -34t17.5 -37.5t5 -42t-1 -38t-4 -34l-39 -276h-108zM387 188l4 27
h-25q-179 0 -190 -74q-4 -31 19 -47t56 -16q60 0 94.5 29t41.5 81zM347 708l78 -144h-94l-120 144h136z" />
    <glyph glyph-name="aacute" unicode="&#xe1;" horiz-adv-x="537" 
d="M368 0l9 66h-3q-59 -78 -165 -78q-72 0 -118 38t-36 106q6 45 31 77t57 49t78 27t80.5 12t78.5 2h30l2 13q6 43 -21 66.5t-76 23.5q-74 0 -136 -50l-54 63q87 77 215 77q42 0 74.5 -9t51.5 -21.5t31.5 -34t17.5 -37.5t5 -42t-1 -38t-4 -34l-39 -276h-108zM387 188l4 27
h-25q-179 0 -190 -74q-4 -31 19 -47t56 -16q60 0 94.5 29t41.5 81zM301 564l120 144h136l-162 -144h-94z" />
    <glyph glyph-name="acircumflex" unicode="&#xe2;" horiz-adv-x="537" 
d="M368 0l9 66h-3q-59 -78 -165 -78q-72 0 -118 38t-36 106q6 45 31 77t57 49t78 27t80.5 12t78.5 2h30l2 13q6 43 -21 66.5t-76 23.5q-74 0 -136 -50l-54 63q87 77 215 77q42 0 74.5 -9t51.5 -21.5t31.5 -34t17.5 -37.5t5 -42t-1 -38t-4 -34l-39 -276h-108zM387 188l4 27
h-25q-179 0 -190 -74q-4 -31 19 -47t56 -16q60 0 94.5 29t41.5 81zM530 564h-114l-56 90l-82 -90h-112l136 144h135z" />
    <glyph glyph-name="atilde" unicode="&#xe3;" horiz-adv-x="537" 
d="M368 0l9 66h-3q-59 -78 -165 -78q-72 0 -118 38t-36 106q6 45 31 77t57 49t78 27t80.5 12t78.5 2h30l2 13q6 43 -21 66.5t-76 23.5q-74 0 -136 -50l-54 63q87 77 215 77q42 0 74.5 -9t51.5 -21.5t31.5 -34t17.5 -37.5t5 -42t-1 -38t-4 -34l-39 -276h-108zM387 188l4 27
h-25q-179 0 -190 -74q-4 -31 19 -47t56 -16q60 0 94.5 29t41.5 81zM231 568h-66q40 127 130 127q30 0 77.5 -18.5t60.5 -18.5q33 0 52 42h66q-40 -127 -129 -127q-30 0 -78 19t-61 19q-32 0 -52 -43z" />
    <glyph glyph-name="adieresis" unicode="&#xe4;" horiz-adv-x="537" 
d="M368 0l9 66h-3q-59 -78 -165 -78q-72 0 -118 38t-36 106q6 45 31 77t57 49t78 27t80.5 12t78.5 2h30l2 13q6 43 -21 66.5t-76 23.5q-74 0 -136 -50l-54 63q87 77 215 77q42 0 74.5 -9t51.5 -21.5t31.5 -34t17.5 -37.5t5 -42t-1 -38t-4 -34l-39 -276h-108zM387 188l4 27
h-25q-179 0 -190 -74q-4 -31 19 -47t56 -16q60 0 94.5 29t41.5 81zM198 636q5 29 30 50.5t57 21.5q33 0 52 -20.5t15 -51.5t-29.5 -51.5t-58.5 -20.5q-32 0 -51 21.5t-15 50.5zM404 636q5 29 30 50.5t57 21.5q33 0 52 -20.5t15 -51.5t-29.5 -51.5t-58.5 -20.5
q-32 0 -51 21.5t-15 50.5z" />
    <glyph glyph-name="aring" unicode="&#xe5;" horiz-adv-x="537" 
d="M368 0l9 66h-3q-59 -78 -165 -78q-72 0 -118 38t-36 106q6 45 31 77t57 49t78 27t80.5 12t78.5 2h30l2 13q6 43 -21 66.5t-76 23.5q-74 0 -136 -50l-54 63q87 77 215 77q42 0 74.5 -9t51.5 -21.5t31.5 -34t17.5 -37.5t5 -42t-1 -38t-4 -34l-39 -276h-108zM387 188l4 27
h-25q-179 0 -190 -74q-4 -31 19 -47t56 -16q60 0 94.5 29t41.5 81zM466 655q-7 -45 -41 -73.5t-79 -28.5t-71 28.5t-20 72.5q7 44 41 73.5t79 29.5t71 -28.5t20 -73.5zM418 655q3 23 -11.5 38.5t-38.5 15.5t-42.5 -15.5t-21.5 -38.5q-4 -23 10.5 -38.5t38.5 -15.5t42.5 15
t22.5 39z" />
    <glyph glyph-name="ae" unicode="&#xe6;" horiz-adv-x="852" 
d="M849 237l-4 -33h-350q-10 -55 23 -90.5t76 -35.5q76 0 137 65l75 -59q-89 -96 -225 -96q-58 0 -101.5 24t-65.5 62q-67 -85 -205 -85q-71 0 -117.5 37t-36.5 107q12 83 75 119t178 36h98q8 54 -15.5 84.5t-75.5 30.5q-75 0 -135 -50l-55 63q87 77 215 77q45 2 85.5 -16.5
t63.5 -54.5q75 71 165 70q112 0 161.5 -71.5t33.5 -183.5zM250 79q58 0 97.5 34t45.5 79l2 12h-60q-151 0 -159 -63q-5 -31 19.5 -46.5t54.5 -15.5zM508 288h232q5 52 -21 83t-78 31q-49 0 -85.5 -32t-47.5 -82z" />
    <glyph glyph-name="ccedilla" unicode="&#xe7;" horiz-adv-x="482" 
d="M538 419l-95 -83q-40 48 -84 48q-64 0 -108.5 -42.5t-52.5 -101.5q-9 -59 23.5 -101.5t96.5 -42.5q60 0 100 45l68 -86q-37 -33 -90 -50t-91 -17l-40 -48q27 0 44.5 -2.5t35.5 -10t25.5 -25t3.5 -45.5q-7 -50 -53 -73.5t-100 -23.5q-55 0 -102 28l29 46q35 -20 79 -20
q21 0 40.5 10t22.5 32q2 18 -12.5 27t-33.5 9q-17 0 -38 -7l-24 25l69 83q-89 16 -138 83t-35 164q15 111 100 181.5t196 70.5q108 0 164 -73z" />
    <glyph glyph-name="egrave" unicode="&#xe8;" horiz-adv-x="574" 
d="M558 198h-366q-1 -52 30.5 -83t82.5 -31q77 0 138 65l77 -65q-92 -96 -217 -96q-111 0 -175.5 70.5t-49.5 181.5t100 181.5t196 70.5q102 0 154 -69t34 -192zM204 288h246q7 53 -21 83.5t-84 30.5q-52 0 -89.5 -30.5t-51.5 -83.5zM335 708l78 -144h-94l-120 144h136z" />
    <glyph glyph-name="eacute" unicode="&#xe9;" horiz-adv-x="574" 
d="M558 198h-366q-1 -52 30.5 -83t82.5 -31q77 0 138 65l77 -65q-92 -96 -217 -96q-111 0 -175.5 70.5t-49.5 181.5t100 181.5t196 70.5q102 0 154 -69t34 -192zM204 288h246q7 53 -21 83.5t-84 30.5q-52 0 -89.5 -30.5t-51.5 -83.5zM319 564l120 144h136l-162 -144h-94z
" />
    <glyph glyph-name="ecircumflex" unicode="&#xea;" horiz-adv-x="574" 
d="M558 198h-366q-1 -52 30.5 -83t82.5 -31q77 0 138 65l77 -65q-92 -96 -217 -96q-111 0 -175.5 70.5t-49.5 181.5t100 181.5t196 70.5q102 0 154 -69t34 -192zM204 288h246q7 53 -21 83.5t-84 30.5q-52 0 -89.5 -30.5t-51.5 -83.5zM548 564h-114l-56 90l-82 -90h-112
l136 144h135z" />
    <glyph glyph-name="edieresis" unicode="&#xeb;" horiz-adv-x="574" 
d="M558 198h-366q-1 -52 30.5 -83t82.5 -31q77 0 138 65l77 -65q-92 -96 -217 -96q-111 0 -175.5 70.5t-49.5 181.5t100 181.5t196 70.5q102 0 154 -69t34 -192zM204 288h246q7 53 -21 83.5t-84 30.5q-52 0 -89.5 -30.5t-51.5 -83.5zM196 636q5 29 30 50.5t57 21.5
q33 0 52 -20.5t15 -51.5t-29.5 -51.5t-58.5 -20.5q-32 0 -51 21.5t-15 50.5zM402 636q5 29 30 50.5t57 21.5q33 0 52 -20.5t15 -51.5t-29.5 -51.5t-58.5 -20.5q-32 0 -51 21.5t-15 50.5z" />
    <glyph glyph-name="igrave" unicode="&#xec;" 
d="M70 0l67 480h120l-67 -480h-120zM190 708l78 -144h-94l-120 144h136z" />
    <glyph glyph-name="iacute" unicode="&#xed;" 
d="M70 0l67 480h120l-67 -480h-120zM151 564l120 144h136l-162 -144h-94z" />
    <glyph glyph-name="icircumflex" unicode="&#xee;" 
d="M70 0l67 480h120l-67 -480h-120zM391 564h-114l-56 90l-82 -90h-112l136 144h135z" />
    <glyph glyph-name="idieresis" unicode="&#xef;" 
d="M70 0l67 480h120l-67 -480h-120zM39 636q5 29 30 50.5t57 21.5q33 0 52 -20.5t15 -51.5t-29.5 -51.5t-58.5 -20.5q-32 0 -51 21.5t-15 50.5zM245 636q5 29 30 50.5t57 21.5q33 0 52 -20.5t15 -51.5t-29.5 -51.5t-58.5 -20.5q-32 0 -51 21.5t-15 50.5z" />
    <glyph glyph-name="eth" unicode="&#xf0;" horiz-adv-x="610" 
d="M550 768l56 -56l-125 -54q150 -193 124 -381q-19 -130 -98 -209.5t-204 -79.5q-111 0 -175.5 70.5t-49.5 181.5t98.5 181.5t187.5 70.5q75 0 109 -38l2 2q-31 65 -105 152l-2 3l-113 -49l-52 57l114 50q-7 8 -19 20t-28 26t-21 19l108 58q29 -25 75 -75zM318 96
q64 0 108.5 42.5t53.5 101.5q8 59 -25 101.5t-96 42.5q-64 0 -108.5 -42.5t-52.5 -101.5q-9 -59 23.5 -101.5t96.5 -42.5z" />
    <glyph glyph-name="ntilde" unicode="&#xf1;" horiz-adv-x="574" 
d="M68 0l67 480h114l-10 -77h2q52 89 159 89q90 0 125 -53.5t24 -135.5l-43 -303h-120l34 243q21 141 -68 141q-56 0 -88 -34.5t-39 -87.5l-37 -262h-120zM249 568h-66q40 127 130 127q30 0 77.5 -18.5t60.5 -18.5q33 0 52 42h66q-40 -127 -129 -127q-30 0 -78 19t-61 19
q-32 0 -52 -43z" />
    <glyph glyph-name="ograve" unicode="&#xf2;" horiz-adv-x="610" 
d="M78 240q15 111 100 181.5t196 70.5t176 -70.5t50 -181.5t-100.5 -181.5t-196.5 -70.5t-175.5 70.5t-49.5 181.5zM198 240q-9 -59 23.5 -101.5t96.5 -42.5t108.5 42.5t53.5 101.5q8 59 -25 101.5t-96 42.5q-64 0 -108.5 -42.5t-52.5 -101.5zM353 708l78 -144h-94l-120 144
h136z" />
    <glyph glyph-name="oacute" unicode="&#xf3;" horiz-adv-x="610" 
d="M78 240q15 111 100 181.5t196 70.5t176 -70.5t50 -181.5t-100.5 -181.5t-196.5 -70.5t-175.5 70.5t-49.5 181.5zM198 240q-9 -59 23.5 -101.5t96.5 -42.5t108.5 42.5t53.5 101.5q8 59 -25 101.5t-96 42.5q-64 0 -108.5 -42.5t-52.5 -101.5zM337 564l120 144h136
l-162 -144h-94z" />
    <glyph glyph-name="ocircumflex" unicode="&#xf4;" horiz-adv-x="610" 
d="M78 240q15 111 100 181.5t196 70.5t176 -70.5t50 -181.5t-100.5 -181.5t-196.5 -70.5t-175.5 70.5t-49.5 181.5zM198 240q-9 -59 23.5 -101.5t96.5 -42.5t108.5 42.5t53.5 101.5q8 59 -25 101.5t-96 42.5q-64 0 -108.5 -42.5t-52.5 -101.5zM566 564h-114l-56 90l-82 -90
h-112l136 144h135z" />
    <glyph glyph-name="otilde" unicode="&#xf5;" horiz-adv-x="610" 
d="M78 240q15 111 100 181.5t196 70.5t176 -70.5t50 -181.5t-100.5 -181.5t-196.5 -70.5t-175.5 70.5t-49.5 181.5zM198 240q-9 -59 23.5 -101.5t96.5 -42.5t108.5 42.5t53.5 101.5q8 59 -25 101.5t-96 42.5q-64 0 -108.5 -42.5t-52.5 -101.5zM267 568h-66q40 127 130 127
q30 0 77.5 -18.5t60.5 -18.5q33 0 52 42h66q-40 -127 -129 -127q-30 0 -78 19t-61 19q-32 0 -52 -43z" />
    <glyph glyph-name="odieresis" unicode="&#xf6;" horiz-adv-x="610" 
d="M78 240q15 111 100 181.5t196 70.5t176 -70.5t50 -181.5t-100.5 -181.5t-196.5 -70.5t-175.5 70.5t-49.5 181.5zM198 240q-9 -59 23.5 -101.5t96.5 -42.5t108.5 42.5t53.5 101.5q8 59 -25 101.5t-96 42.5q-64 0 -108.5 -42.5t-52.5 -101.5zM214 636q5 29 30 50.5t57 21.5
q33 0 52 -20.5t15 -51.5t-29.5 -51.5t-58.5 -20.5q-32 0 -51 21.5t-15 50.5zM420 636q5 29 30 50.5t57 21.5q33 0 52 -20.5t15 -51.5t-29.5 -51.5t-58.5 -20.5q-32 0 -51 21.5t-15 50.5z" />
    <glyph glyph-name="divide" unicode="&#xf7;" horiz-adv-x="666" 
d="M112 354h542l-15 -102h-542zM326 483q5 31 29.5 53t55.5 22t50 -22t15 -53t-29.5 -53t-56.5 -22t-50 22t-14 53zM275 123q4 31 29.5 53t56.5 22t50 -22t14 -53q-4 -31 -29 -53t-56 -22t-50 22t-15 53z" />
    <glyph glyph-name="oslash" unicode="&#xf8;" horiz-adv-x="610" 
d="M209 160l226 200q-30 24 -76 24q-64 0 -108.5 -42.5t-52.5 -101.5q-6 -44 11 -80zM470 318l-226 -199q29 -23 74 -23q64 0 108.5 42.5t53.5 101.5q6 41 -10 78zM609 514l37 -40l-80 -71q47 -68 34 -163q-15 -111 -100.5 -181.5t-196.5 -70.5q-90 0 -152 49l-80 -71
l-34 41l77 68q-51 67 -36 165q15 111 100 181.5t196 70.5q93 0 154 -50z" />
    <glyph glyph-name="ugrave" unicode="&#xf9;" horiz-adv-x="574" 
d="M573 480l-67 -480h-114l11 77h-2q-54 -89 -160 -89q-90 0 -125 53.5t-23 135.5l42 303h120l-34 -243l-4 -60t15.5 -56t56.5 -25q56 0 88.5 35t39.5 87l36 262h120zM335 708l78 -144h-94l-120 144h136z" />
    <glyph glyph-name="uacute" unicode="&#xfa;" horiz-adv-x="574" 
d="M573 480l-67 -480h-114l11 77h-2q-54 -89 -160 -89q-90 0 -125 53.5t-23 135.5l42 303h120l-34 -243l-4 -60t15.5 -56t56.5 -25q56 0 88.5 35t39.5 87l36 262h120zM319 564l120 144h136l-162 -144h-94z" />
    <glyph glyph-name="ucircumflex" unicode="&#xfb;" horiz-adv-x="574" 
d="M573 480l-67 -480h-114l11 77h-2q-54 -89 -160 -89q-90 0 -125 53.5t-23 135.5l42 303h120l-34 -243l-4 -60t15.5 -56t56.5 -25q56 0 88.5 35t39.5 87l36 262h120zM548 564h-114l-56 90l-82 -90h-112l136 144h135z" />
    <glyph glyph-name="udieresis" unicode="&#xfc;" horiz-adv-x="574" 
d="M573 480l-67 -480h-114l11 77h-2q-54 -89 -160 -89q-90 0 -125 53.5t-23 135.5l42 303h120l-34 -243l-4 -60t15.5 -56t56.5 -25q56 0 88.5 35t39.5 87l36 262h120zM196 636q5 29 30 50.5t57 21.5q33 0 52 -20.5t15 -51.5t-29.5 -51.5t-58.5 -20.5q-32 0 -51 21.5
t-15 50.5zM402 636q5 29 30 50.5t57 21.5q33 0 52 -20.5t15 -51.5t-29.5 -51.5t-58.5 -20.5q-32 0 -51 21.5t-15 50.5z" />
    <glyph glyph-name="yacute" unicode="&#xfd;" horiz-adv-x="519" 
d="M207 -4l-137 484h132l88 -333h2l166 333h125l-308 -583q-38 -72 -82.5 -104.5t-120.5 -32.5q-46 0 -90 12l30 108q31 -12 59 -12q42 0 62.5 15.5t42.5 55.5zM292 564l120 144h136l-162 -144h-94z" />
    <glyph glyph-name="thorn" unicode="&#xfe;" horiz-adv-x="630" 
d="M36 -228l138 984h120l-47 -338h2q26 35 71.5 54.5t97.5 19.5q109 0 163 -71.5t39 -180.5q-15 -108 -90.5 -180t-177.5 -72q-105 0 -152 73h-3l-41 -289h-120zM500 240q8 59 -25 101.5t-96 42.5q-64 0 -108.5 -42.5t-52.5 -101.5q-9 -59 23.5 -101.5t96.5 -42.5
t108.5 42.5t53.5 101.5z" />
    <glyph glyph-name="ydieresis" unicode="&#xff;" horiz-adv-x="519" 
d="M207 -4l-137 484h132l88 -333h2l166 333h125l-308 -583q-38 -72 -82.5 -104.5t-120.5 -32.5q-46 0 -90 12l30 108q31 -12 59 -12q42 0 62.5 15.5t42.5 55.5zM169 636q5 29 30 50.5t57 21.5q33 0 52 -20.5t15 -51.5t-29.5 -51.5t-58.5 -20.5q-32 0 -51 21.5t-15 50.5z
M375 636q5 29 30 50.5t57 21.5q33 0 52 -20.5t15 -51.5t-29.5 -51.5t-58.5 -20.5q-32 0 -51 21.5t-15 50.5z" />
    <glyph glyph-name="Amacron" unicode="&#x100;" horiz-adv-x="722" 
d="M0 0l408 708h109l205 -708h-144l-43 162h-307l-87 -162h-141zM286 270h220l-69 288zM639 865l-11 -78h-320l11 78h320z" />
    <glyph glyph-name="amacron" unicode="&#x101;" horiz-adv-x="537" 
d="M368 0l9 66h-3q-59 -78 -165 -78q-72 0 -118 38t-36 106q6 45 31 77t57 49t78 27t80.5 12t78.5 2h30l2 13q6 43 -21 66.5t-76 23.5q-74 0 -136 -50l-54 63q87 77 215 77q42 0 74.5 -9t51.5 -21.5t31.5 -34t17.5 -37.5t5 -42t-1 -38t-4 -34l-39 -276h-108zM387 188l4 27
h-25q-179 0 -190 -74q-4 -31 19 -47t56 -16q60 0 94.5 29t41.5 81zM539 673l-11 -78h-320l11 78h320z" />
    <glyph glyph-name="Abreve" unicode="&#x102;" horiz-adv-x="722" 
d="M0 0l408 708h109l205 -708h-144l-43 162h-307l-87 -162h-141zM286 270h220l-69 288zM314 900h67q1 -66 94 -66q46 0 71.5 13t41.5 53h66q-36 -144 -191 -144q-75 0 -114.5 35.5t-34.5 108.5z" />
    <glyph glyph-name="abreve" unicode="&#x103;" horiz-adv-x="537" 
d="M368 0l9 66h-3q-59 -78 -165 -78q-72 0 -118 38t-36 106q6 45 31 77t57 49t78 27t80.5 12t78.5 2h30l2 13q6 43 -21 66.5t-76 23.5q-74 0 -136 -50l-54 63q87 77 215 77q42 0 74.5 -9t51.5 -21.5t31.5 -34t17.5 -37.5t5 -42t-1 -38t-4 -34l-39 -276h-108zM387 188l4 27
h-25q-179 0 -190 -74q-4 -31 19 -47t56 -16q60 0 94.5 29t41.5 81zM213 708h67q4 -66 94 -66q46 0 71.5 13t41.5 53h66q-35 -144 -191 -144q-75 0 -115 35.5t-34 108.5z" />
    <glyph glyph-name="Aogonek" unicode="&#x104;" horiz-adv-x="722" 
d="M643 -147l18 -49q-51 -38 -105 -38q-43 0 -70 23.5t-21 65.5q5 37 38 76t75 69l-44 162h-307l-86 -162h-141l407 708h109l206 -708h-82q-88 -75 -94 -122q-2 -19 9.5 -32.5t30.5 -13.5q27 0 57 21zM285 270h220l-68 288z" />
    <glyph glyph-name="aogonek" unicode="&#x105;" horiz-adv-x="537" 
d="M368 0l9 66h-3q-60 -78 -165 -78q-71 0 -117.5 38t-37.5 106q5 38 22.5 66.5t45.5 46t57.5 29t68 17t67.5 7t65 1.5h30l1 13q7 44 -20 67t-77 23q-77 0 -135 -50l-54 63q84 77 215 77q57 0 95.5 -16t55.5 -36.5t23.5 -53.5t5.5 -53.5t-5 -49.5q-1 -5 -1 -7l-38 -276h-46
q-88 -75 -94 -122q-2 -19 9.5 -32.5t30.5 -13.5q27 0 57 21l18 -49q-51 -38 -105 -38q-43 0 -70 23.5t-21 65.5q5 37 38 76t75 69zM387 188l4 27h-25q-179 0 -191 -74q-4 -31 18.5 -47t56.5 -16q119 0 137 110z" />
    <glyph glyph-name="Cacute" unicode="&#x106;" horiz-adv-x="685" 
d="M749 614l-108 -72q-56 70 -139 70q-108 0 -186 -72.5t-93 -180.5q-16 -115 41 -189t165 -74q92 0 172 86l93 -74q-109 -126 -282 -126q-165 0 -255 102t-67 267q24 169 143 272t284 103q152 0 232 -112zM447 756l119 144h136l-161 -144h-94z" />
    <glyph glyph-name="cacute" unicode="&#x107;" horiz-adv-x="482" 
d="M538 419l-95 -83q-40 48 -84 48q-64 0 -108.5 -42.5t-52.5 -101.5q-9 -59 23.5 -101.5t96.5 -42.5q60 0 100 45l68 -86q-38 -33 -91 -50t-92 -17q-111 0 -175.5 70.5t-49.5 181.5t100 181.5t196 70.5q108 0 164 -73zM321 564l120 144h136l-162 -144h-94z" />
    <glyph glyph-name="Ccircumflex" unicode="&#x108;" horiz-adv-x="685" 
d="M749 614l-108 -72q-56 70 -139 70q-108 0 -186 -72.5t-93 -180.5q-16 -115 41 -189t165 -74q92 0 172 86l93 -74q-109 -126 -282 -126q-165 0 -255 102t-67 267q24 169 143 272t284 103q152 0 232 -112zM700 756h-114l-57 90l-81 -90h-112l135 144h135z" />
    <glyph glyph-name="ccircumflex" unicode="&#x109;" horiz-adv-x="482" 
d="M538 419l-95 -83q-40 48 -84 48q-64 0 -108.5 -42.5t-52.5 -101.5q-9 -59 23.5 -101.5t96.5 -42.5q60 0 100 45l68 -86q-38 -33 -91 -50t-92 -17q-111 0 -175.5 70.5t-49.5 181.5t100 181.5t196 70.5q108 0 164 -73zM555 564h-114l-56 90l-82 -90h-112l136 144h135z" />
    <glyph glyph-name="Cdotaccent" unicode="&#x10a;" horiz-adv-x="685" 
d="M749 614l-108 -72q-56 70 -139 70q-108 0 -186 -72.5t-93 -180.5q-16 -115 41 -189t165 -74q92 0 172 86l93 -74q-109 -126 -282 -126q-165 0 -255 102t-67 267q24 169 143 272t284 103q152 0 232 -112zM451 828q4 30 28.5 51t57.5 21t53 -21t15 -51q-5 -31 -30 -51.5
t-58 -20.5t-52 21.5t-14 50.5z" />
    <glyph glyph-name="cdotaccent" unicode="&#x10b;" horiz-adv-x="482" 
d="M538 419l-95 -83q-40 48 -84 48q-64 0 -108.5 -42.5t-52.5 -101.5q-9 -59 23.5 -101.5t96.5 -42.5q60 0 100 45l68 -86q-38 -33 -91 -50t-92 -17q-111 0 -175.5 70.5t-49.5 181.5t100 181.5t196 70.5q108 0 164 -73zM306 636q4 30 28.5 51t57.5 21t53 -21t15 -51
q-5 -31 -30 -51.5t-58 -20.5q-32 0 -51 21t-15 51z" />
    <glyph glyph-name="Ccaron" unicode="&#x10c;" horiz-adv-x="685" 
d="M749 614l-108 -72q-56 70 -139 70q-108 0 -186 -72.5t-93 -180.5q-16 -115 41 -189t165 -74q92 0 172 86l93 -74q-109 -126 -282 -126q-165 0 -255 102t-67 267q24 169 143 272t284 103q152 0 232 -112zM357 900h114l56 -90l82 90h110l-135 -144h-133z" />
    <glyph glyph-name="ccaron" unicode="&#x10d;" horiz-adv-x="482" 
d="M538 419l-95 -83q-40 48 -84 48q-64 0 -108.5 -42.5t-52.5 -101.5q-9 -59 23.5 -101.5t96.5 -42.5q60 0 100 45l68 -86q-38 -33 -91 -50t-92 -17q-111 0 -175.5 70.5t-49.5 181.5t100 181.5t196 70.5q108 0 164 -73zM211 708h114l56 -90l82 90h110l-135 -144h-133z" />
    <glyph glyph-name="Dcaron" unicode="&#x10e;" horiz-adv-x="759" 
d="M79 0l100 708h279q150 0 241.5 -92t68.5 -262q-12 -87 -56.5 -157t-105.5 -111.5t-129 -63.5t-134 -22h-264zM221 114h94q128 0 216 59t105 181q17 123 -46.5 181.5t-186.5 58.5h-115zM278 900h114l56 -90l82 90h110l-135 -144h-133z" />
    <glyph glyph-name="dcaron" unicode="&#x10f;" horiz-adv-x="630" 
d="M448 0l10 72h-2q-62 -84 -177 -84q-108 0 -162 71.5t-39 180.5q15 108 90 180t177 72q104 0 153 -73h3l47 337h120l-106 -756h-114zM198 240q-9 -59 23.5 -101.5t96.5 -42.5t108.5 42.5t53.5 101.5q8 59 -25 101.5t-96 42.5q-64 0 -108.5 -42.5t-52.5 -101.5zM681 510
l88 198h122l-113 -198h-97z" />
    <glyph glyph-name="Dcroat" unicode="&#x110;" horiz-adv-x="759" 
d="M79 0l45 324h-66l12 84h66l42 300h279q71 0 132 -22t106 -64.5t65 -111.5t7 -156q-10 -70 -41 -129.5t-74 -100t-96 -69t-106.5 -42t-106.5 -13.5h-264zM221 114h94q127 0 215 59t105 181q17 123 -46.5 181.5t-185.5 58.5h-115l-26 -186h216l-12 -84h-216z" />
    <glyph glyph-name="dcroat" unicode="&#x111;" horiz-adv-x="630" 
d="M723 643l-11 -78h-71l-79 -565h-114l10 72h-2q-62 -84 -177 -84q-108 0 -163 72t-39 180q14 107 90.5 179.5t177.5 72.5q59 0 97 -22t55 -51h3l21 146h-129l11 78h129l16 113h120l-16 -113h71zM197 240q-9 -59 24 -101.5t97 -42.5t108 42.5t53 101.5t-24 101.5t-97 42.5
q-63 0 -107.5 -42.5t-53.5 -101.5z" />
    <glyph glyph-name="Emacron" unicode="&#x112;" horiz-adv-x="611" 
d="M79 0l100 708h469l-17 -114h-343l-24 -174h325l-16 -114h-325l-27 -192h361l-16 -114h-487zM601 865l-11 -78h-320l11 78h320z" />
    <glyph glyph-name="emacron" unicode="&#x113;" horiz-adv-x="574" 
d="M558 198h-366q-1 -52 30.5 -83t82.5 -31q77 0 138 65l77 -65q-92 -96 -217 -96q-111 0 -175.5 70.5t-49.5 181.5t100 181.5t196 70.5q102 0 154 -69t34 -192zM204 288h246q7 53 -21 83.5t-84 30.5q-52 0 -89.5 -30.5t-51.5 -83.5zM555 673l-11 -78h-320l11 78h320z" />
    <glyph glyph-name="Ebreve" unicode="&#x114;" horiz-adv-x="611" 
d="M79 0l100 708h469l-17 -114h-343l-24 -174h325l-16 -114h-325l-27 -192h361l-16 -114h-487zM279 900h67q1 -66 94 -66q46 0 71.5 13t41.5 53h66q-36 -144 -191 -144q-75 0 -114.5 35.5t-34.5 108.5z" />
    <glyph glyph-name="ebreve" unicode="&#x115;" horiz-adv-x="574" 
d="M558 198h-366q-1 -52 30.5 -83t82.5 -31q77 0 138 65l77 -65q-92 -96 -217 -96q-111 0 -175.5 70.5t-49.5 181.5t100 181.5t196 70.5q102 0 154 -69t34 -192zM204 288h246q7 53 -21 83.5t-84 30.5q-52 0 -89.5 -30.5t-51.5 -83.5zM229 708h67q4 -66 94 -66q46 0 71.5 13
t41.5 53h66q-35 -144 -191 -144q-75 0 -115 35.5t-34 108.5z" />
    <glyph glyph-name="Edotaccent" unicode="&#x116;" horiz-adv-x="611" 
d="M79 0l100 708h469l-17 -114h-343l-24 -174h325l-16 -114h-325l-27 -192h361l-16 -114h-487zM374 828q4 30 28.5 51t57.5 21t53 -21t15 -51q-5 -31 -30 -51.5t-58 -20.5t-52 21.5t-14 50.5z" />
    <glyph glyph-name="edotaccent" unicode="&#x117;" horiz-adv-x="574" 
d="M558 198h-366q-1 -52 30.5 -83t82.5 -31q77 0 138 65l77 -65q-92 -96 -217 -96q-111 0 -175.5 70.5t-49.5 181.5t100 181.5t196 70.5q102 0 154 -69t34 -192zM204 288h246q7 53 -21 83.5t-84 30.5q-52 0 -89.5 -30.5t-51.5 -83.5zM312 636q4 30 28.5 51t57.5 21t53 -21
t15 -51q-5 -31 -30 -51.5t-58 -20.5q-32 0 -51 21t-15 51z" />
    <glyph glyph-name="Eogonek" unicode="&#x118;" horiz-adv-x="611" 
d="M79 0l99 708h469l-16 -114h-343l-24 -174h325l-16 -114h-325l-27 -192h361l-16 -114h-59q-88 -75 -94 -122q-2 -19 9.5 -32.5t30.5 -13.5q27 0 57 21l18 -49q-51 -38 -105 -38q-43 0 -70 23.5t-21 65.5q5 37 38 76t75 69h-366z" />
    <glyph glyph-name="eogonek" unicode="&#x119;" horiz-adv-x="574" 
d="M368 -147l18 -49q-51 -38 -105 -38q-43 0 -70 23.5t-21 65.5q10 63 97 134q-104 6 -164.5 75t-45.5 176q15 112 100.5 182t196.5 70q102 0 154 -69t34 -192l-5 -33h-366q-2 -53 29.5 -83.5t83.5 -30.5q75 0 138 65l77 -65q-70 -73 -163 -91q-79 -67 -85 -115
q-2 -19 9.5 -32.5t30.5 -13.5q27 0 57 21zM204 288h246q7 54 -21 84t-85 30q-53 0 -89 -30.5t-51 -83.5z" />
    <glyph glyph-name="Ecaron" unicode="&#x11a;" horiz-adv-x="611" 
d="M79 0l100 708h469l-17 -114h-343l-24 -174h325l-16 -114h-325l-27 -192h361l-16 -114h-487zM270 900h114l56 -90l82 90h110l-135 -144h-133z" />
    <glyph glyph-name="ecaron" unicode="&#x11b;" horiz-adv-x="574" 
d="M558 198h-366q-1 -52 30.5 -83t82.5 -31q77 0 138 65l77 -65q-92 -96 -217 -96q-111 0 -175.5 70.5t-49.5 181.5t100 181.5t196 70.5q102 0 154 -69t34 -192zM204 288h246q7 53 -21 83.5t-84 30.5q-52 0 -89.5 -30.5t-51.5 -83.5zM218 708h114l56 -90l82 90h110
l-135 -144h-133z" />
    <glyph glyph-name="Gcircumflex" unicode="&#x11c;" horiz-adv-x="778" 
d="M766 414l-51 -362q-140 -70 -303 -70q-165 0 -255 102t-67 267q24 169 143 272t284 103q179 0 267 -89l-107 -94q-60 69 -175 69q-108 0 -186 -72.5t-93 -180.5q-16 -115 41 -189t165 -74q101 0 172 37l23 167h-145l16 114h271zM699 756h-114l-57 90l-81 -90h-112
l135 144h135z" />
    <glyph glyph-name="gcircumflex" unicode="&#x11d;" horiz-adv-x="630" 
d="M515 480h114l-61 -437q-19 -134 -97 -208.5t-214 -74.5q-148 0 -227 79l86 98q66 -69 155 -69q153 0 175 161l5 35h-2q-63 -70 -167 -70q-106 0 -162.5 71t-41.5 175q15 109 89.5 180.5t182.5 71.5q114 0 153 -84h2zM360 384q-63 0 -108 -39.5t-54 -103.5
q-8 -58 26.5 -98.5t94.5 -40.5q65 0 110 40t53 101q9 63 -24 102t-98 39zM588 564h-114l-56 90l-82 -90h-112l136 144h135z" />
    <glyph glyph-name="Gbreve" unicode="&#x11e;" horiz-adv-x="778" 
d="M766 414l-51 -362q-140 -70 -303 -70q-165 0 -255 102t-67 267q24 169 143 272t284 103q179 0 267 -89l-107 -94q-60 69 -175 69q-108 0 -186 -72.5t-93 -180.5q-16 -115 41 -189t165 -74q101 0 172 37l23 167h-145l16 114h271zM369 900h67q1 -66 94 -66q46 0 71.5 13
t41.5 53h66q-36 -144 -191 -144q-75 0 -114.5 35.5t-34.5 108.5z" />
    <glyph glyph-name="gbreve" unicode="&#x11f;" horiz-adv-x="630" 
d="M515 480h114l-61 -437q-19 -134 -97 -208.5t-214 -74.5q-148 0 -227 79l86 98q66 -69 155 -69q153 0 175 161l5 35h-2q-63 -70 -167 -70q-106 0 -162.5 71t-41.5 175q15 109 89.5 180.5t182.5 71.5q114 0 153 -84h2zM360 384q-63 0 -108 -39.5t-54 -103.5
q-8 -58 26.5 -98.5t94.5 -40.5q65 0 110 40t53 101q9 63 -24 102t-98 39zM256 708h67q4 -66 94 -66q46 0 71.5 13t41.5 53h66q-35 -144 -191 -144q-75 0 -115 35.5t-34 108.5z" />
    <glyph glyph-name="Gdotaccent" unicode="&#x120;" horiz-adv-x="778" 
d="M766 414l-51 -362q-140 -70 -303 -70q-165 0 -255 102t-67 267q24 169 143 272t284 103q179 0 267 -89l-107 -94q-60 69 -175 69q-108 0 -186 -72.5t-93 -180.5q-16 -115 41 -189t165 -74q101 0 172 37l23 167h-145l16 114h271zM453 828q4 30 28.5 51t57.5 21t53 -21
t15 -51q-5 -31 -30 -51.5t-58 -20.5t-52 21.5t-14 50.5z" />
    <glyph glyph-name="gdotaccent" unicode="&#x121;" horiz-adv-x="630" 
d="M515 480h114l-61 -437q-19 -134 -97 -208.5t-214 -74.5q-148 0 -227 79l86 98q66 -69 155 -69q153 0 175 161l5 35h-2q-63 -70 -167 -70q-106 0 -162.5 71t-41.5 175q15 109 89.5 180.5t182.5 71.5q114 0 153 -84h2zM360 384q-63 0 -108 -39.5t-54 -103.5
q-8 -58 26.5 -98.5t94.5 -40.5q65 0 110 40t53 101q9 63 -24 102t-98 39zM329 636q4 30 28.5 51t57.5 21t53 -21t15 -51q-5 -31 -30 -51.5t-58 -20.5q-32 0 -51 21t-15 51z" />
    <glyph glyph-name="Gcommaaccent" unicode="&#x122;" horiz-adv-x="778" 
d="M766 414l-51 -362q-140 -70 -303 -70q-165 0 -255 102t-67 267q24 169 143 272t284 103q179 0 267 -89l-107 -94q-60 69 -175 69q-108 0 -186 -72.5t-93 -180.5q-16 -115 41 -189t165 -74q101 0 172 37l23 167h-145l16 114h271zM272 -258l101 198h122l-116 -198h-107z
" />
    <glyph glyph-name="gcommaaccent" unicode="&#x123;" horiz-adv-x="630" 
d="M515 480h114l-61 -437q-19 -134 -97 -208.5t-214 -74.5q-148 0 -227 79l86 98q66 -69 155 -69q153 0 175 161l5 35h-2q-63 -70 -167 -70q-106 0 -162.5 71t-41.5 175q15 109 89.5 180.5t182.5 71.5q114 0 153 -84h2zM360 384q-63 0 -108 -39.5t-54 -103.5
q-8 -58 26.5 -98.5t94.5 -40.5q65 0 110 40t53 101q9 63 -24 102t-98 39zM536 782l-100 -198h-122l115 198h107z" />
    <glyph glyph-name="Hcircumflex" unicode="&#x124;" horiz-adv-x="741" 
d="M79 0l100 708h126l-40 -282h331l40 282h126l-100 -708h-126l44 312h-331l-44 -312h-126zM658 756h-114l-57 90l-81 -90h-112l135 144h135z" />
    <glyph glyph-name="hcircumflex" unicode="&#x125;" horiz-adv-x="574" 
d="M294 756l-48 -343h2q21 33 60.5 56t91.5 23q90 0 125 -53.5t24 -135.5l-43 -303h-120l34 243q21 141 -68 141q-56 0 -88 -34.5t-39 -87.5l-37 -262h-120l106 756h120zM578 796h-114l-57 90l-81 -90h-112l135 144h135z" />
    <glyph glyph-name="Hbar" unicode="&#x126;" horiz-adv-x="741" 
d="M79 0l99 708h126l-13 -89h331l13 89h126l-99 -708h-126l43 312h-331l-43 -312h-126zM264 426h331l17 115h-331z" />
    <glyph glyph-name="hbar" unicode="&#x127;" horiz-adv-x="574" 
d="M407 643l-11 -78h-129l-21 -152h2q20 33 59.5 56t92.5 23q91 0 125 -53.5t23 -135.5l-42 -303h-120l34 243q21 141 -69 141q-55 0 -87.5 -35t-39.5 -87l-36 -262h-120l79 565h-71l11 78h71l16 113h120l-16 -113h129z" />
    <glyph glyph-name="Itilde" unicode="&#x128;" horiz-adv-x="278" 
d="M76 0l100 708h126l-100 -708h-126zM128 760h-66q38 127 130 127q29 0 77 -18.5t62 -18.5q32 0 52 42h66q-19 -58 -48.5 -92.5t-81.5 -34.5q-29 0 -77 19t-62 19q-31 0 -52 -43z" />
    <glyph glyph-name="itilde" unicode="&#x129;" 
d="M70 0l67 480h120l-67 -480h-120zM94 568h-66q40 127 130 127q30 0 77.5 -18.5t60.5 -18.5q33 0 52 42h66q-40 -127 -129 -127q-30 0 -78 19t-61 19q-32 0 -52 -43z" />
    <glyph glyph-name="Imacron" unicode="&#x12a;" horiz-adv-x="278" 
d="M76 0l100 708h126l-100 -708h-126zM419 865l-11 -78h-320l11 78h320z" />
    <glyph glyph-name="imacron" unicode="&#x12b;" 
d="M70 0l67 480h120l-67 -480h-120zM387 673l-11 -78h-320l11 78h320z" />
    <glyph glyph-name="Iogonek" unicode="&#x12e;" horiz-adv-x="278" 
d="M76 0l99 708h126l-99 -708h-36q-33 -26 -62 -60.5t-32 -61.5q-2 -19 9.5 -32.5t30.5 -13.5q29 0 57 21l18 -49q-51 -38 -105 -38q-44 0 -70 23.5t-20 65.5q11 71 112 145h-28z" />
    <glyph glyph-name="iogonek" unicode="&#x12f;" 
d="M70 0l67 480h120l-67 -480h-58q-88 -75 -94 -122q-2 -19 9.5 -32.5t30.5 -13.5q27 0 57 21l18 -49q-51 -38 -105 -38q-42 0 -69 24t-21 65q5 37 38 76t74 69zM143 643q4 30 28.5 51t57.5 21t53 -21t15 -51q-5 -31 -30 -51.5t-58 -20.5t-52 21.5t-14 50.5z" />
    <glyph glyph-name="Idotaccent" unicode="&#x130;" horiz-adv-x="278" 
d="M76 0l100 708h126l-100 -708h-126zM179 828q4 30 28.5 51t57.5 21t53 -21t15 -51q-5 -31 -30 -51.5t-58 -20.5t-52 21.5t-14 50.5z" />
    <glyph glyph-name="dotlessi" unicode="&#x131;" 
d="M70 0l67 480h120l-67 -480h-120z" />
    <glyph glyph-name="Jcircumflex" unicode="&#x134;" horiz-adv-x="500" 
d="M526 708l-72 -512q-13 -90 -77.5 -152t-166.5 -62q-175 0 -185 163l122 28q2 -35 21 -56t52 -21q51 0 77 34.5t36 102.5l67 475h126zM652 756h-114l-57 90l-81 -90h-112l135 144h135z" />
    <glyph glyph-name="jcircumflex" unicode="&#x135;" 
d="M137 480h120l-72 -509q-7 -49 -18 -84t-31.5 -65.5t-56 -46t-84.5 -15.5q-38 0 -64 9l24 104q22 -5 37 -5q21 0 35.5 9t21.5 26t10.5 31t5.5 36zM391 564h-114l-56 90l-82 -90h-112l136 144h135z" />
    <glyph glyph-name="Kcommaaccent" unicode="&#x136;" horiz-adv-x="685" 
d="M79 0l100 708h126l-43 -300h6l336 300h170l-377 -327l299 -381h-177l-258 348h-7l-49 -348h-126zM175 -258l101 198h122l-116 -198h-107z" />
    <glyph glyph-name="kcommaaccent" unicode="&#x137;" horiz-adv-x="537" 
d="M68 0l106 756h120l-67 -475l213 199h154l-236 -218l182 -262h-159l-157 245h-2l-34 -245h-120zM105 -258l101 198h122l-116 -198h-107z" />
    <glyph glyph-name="Lacute" unicode="&#x139;" horiz-adv-x="519" 
d="M79 0l100 708h126l-84 -594h301l-16 -114h-427zM169 756l119 144h136l-161 -144h-94z" />
    <glyph glyph-name="lacute" unicode="&#x13a;" 
d="M70 0l106 756h120l-106 -756h-120zM168 796l119 144h136l-161 -144h-94z" />
    <glyph glyph-name="Lcommaaccent" unicode="&#x13b;" horiz-adv-x="519" 
d="M79 0l100 708h126l-84 -594h301l-16 -114h-427zM120 -258l101 198h122l-116 -198h-107z" />
    <glyph glyph-name="lcommaaccent" unicode="&#x13c;" 
d="M70 0l106 756h120l-106 -756h-120zM-21 -258l101 198h122l-116 -198h-107z" />
    <glyph glyph-name="Lcaron" unicode="&#x13d;" horiz-adv-x="519" 
d="M79 0l100 708h126l-84 -594h301l-16 -114h-427zM329 510l88 198h122l-113 -198h-97z" />
    <glyph glyph-name="lcaron" unicode="&#x13e;" 
d="M70 0l106 756h120l-106 -756h-120zM318 510l88 198h122l-113 -198h-97z" />
    <glyph glyph-name="Ldot" unicode="&#x13f;" horiz-adv-x="519" 
d="M79 0l100 708h126l-84 -594h301l-16 -114h-427zM375 384q4 30 28.5 51t57.5 21t53 -21t15 -51q-5 -31 -30 -51.5t-58 -20.5q-32 0 -51 21t-15 51z" />
    <glyph glyph-name="ldot" unicode="&#x140;" horiz-adv-x="384" 
d="M70 0l106 756h120l-106 -756h-120zM301 378q4 30 28.5 51t57.5 21t53 -21t15 -51q-5 -31 -30 -51.5t-58 -20.5q-32 0 -51 21t-15 51z" />
    <glyph glyph-name="Lslash" unicode="&#x141;" horiz-adv-x="519" 
d="M79 0l26 187l-78 -62l15 110l79 62l58 411h126l-43 -300l232 181l-16 -109l-231 -182l-26 -184h301l-16 -114h-427z" />
    <glyph glyph-name="lslash" unicode="&#x142;" 
d="M70 0l38 273l-78 -69l15 109l79 69l52 374h120l-36 -255l79 69l-15 -107l-78 -68l-56 -395h-120z" />
    <glyph glyph-name="Nacute" unicode="&#x143;" horiz-adv-x="796" 
d="M79 0l100 708h167l269 -526h2l74 526h126l-100 -708h-160l-274 543h-2l-76 -543h-126zM450 756l119 144h136l-161 -144h-94z" />
    <glyph glyph-name="nacute" unicode="&#x144;" horiz-adv-x="574" 
d="M68 0l67 480h114l-10 -77h2q52 89 159 89q90 0 125 -53.5t24 -135.5l-43 -303h-120l34 243q21 141 -68 141q-56 0 -88 -34.5t-39 -87.5l-37 -262h-120zM289 564l120 144h136l-162 -144h-94z" />
    <glyph glyph-name="Ncommaaccent" unicode="&#x145;" horiz-adv-x="796" 
d="M79 0l100 708h167l269 -526h2l74 526h126l-100 -708h-160l-274 543h-2l-76 -543h-126zM224 -258l101 198h122l-116 -198h-107z" />
    <glyph glyph-name="ncommaaccent" unicode="&#x146;" horiz-adv-x="574" 
d="M68 0l67 480h114l-10 -77h2q52 89 159 89q90 0 125 -53.5t24 -135.5l-43 -303h-120l34 243q21 141 -68 141q-56 0 -88 -34.5t-39 -87.5l-37 -262h-120zM123 -258l101 198h122l-116 -198h-107z" />
    <glyph glyph-name="Ncaron" unicode="&#x147;" horiz-adv-x="796" 
d="M79 0l100 708h167l269 -526h2l74 526h126l-100 -708h-160l-274 543h-2l-76 -543h-126zM342 900h114l56 -90l82 90h110l-135 -144h-133z" />
    <glyph glyph-name="ncaron" unicode="&#x148;" horiz-adv-x="574" 
d="M68 0l67 480h114l-10 -77h2q52 89 159 89q90 0 125 -53.5t24 -135.5l-43 -303h-120l34 243q21 141 -68 141q-56 0 -88 -34.5t-39 -87.5l-37 -262h-120zM210 708h114l56 -90l82 90h110l-135 -144h-133z" />
    <glyph glyph-name="Omacron" unicode="&#x14c;" horiz-adv-x="833" 
d="M90 351q24 169 143 272t284 103q167 3 258 -99.5t67 -271.5q-23 -165 -142.5 -267.5t-287.5 -105.5q-165 0 -255 102t-67 267zM223 359q-16 -115 41 -189t165 -74q109 0 187 74t94 189q15 108 -42.5 180.5t-165.5 72.5t-186 -72.5t-93 -180.5zM696 865l-11 -78h-320
l11 78h320z" />
    <glyph glyph-name="omacron" unicode="&#x14d;" horiz-adv-x="610" 
d="M78 240q15 111 100 181.5t196 70.5t176 -70.5t50 -181.5t-100.5 -181.5t-196.5 -70.5t-175.5 70.5t-49.5 181.5zM198 240q-9 -59 23.5 -101.5t96.5 -42.5t108.5 42.5t53.5 101.5q8 59 -25 101.5t-96 42.5q-64 0 -108.5 -42.5t-52.5 -101.5zM560 673l-11 -78h-320l11 78
h320z" />
    <glyph glyph-name="Obreve" unicode="&#x14e;" horiz-adv-x="833" 
d="M90 351q24 169 143 272t284 103q167 3 258 -99.5t67 -271.5q-23 -165 -142.5 -267.5t-287.5 -105.5q-165 0 -255 102t-67 267zM223 359q-16 -115 41 -189t165 -74q109 0 187 74t94 189q15 108 -42.5 180.5t-165.5 72.5t-186 -72.5t-93 -180.5zM371 900h67q1 -66 94 -66
q46 0 71.5 13t41.5 53h66q-36 -144 -191 -144q-75 0 -114.5 35.5t-34.5 108.5z" />
    <glyph glyph-name="obreve" unicode="&#x14f;" horiz-adv-x="610" 
d="M78 240q15 111 100 181.5t196 70.5t176 -70.5t50 -181.5t-100.5 -181.5t-196.5 -70.5t-175.5 70.5t-49.5 181.5zM198 240q-9 -59 23.5 -101.5t96.5 -42.5t108.5 42.5t53.5 101.5q8 59 -25 101.5t-96 42.5q-64 0 -108.5 -42.5t-52.5 -101.5zM236 708h67q4 -66 94 -66
q46 0 71.5 13t41.5 53h66q-35 -144 -191 -144q-75 0 -115 35.5t-34 108.5z" />
    <glyph glyph-name="Ohungarumlaut" unicode="&#x150;" horiz-adv-x="833" 
d="M90 351q24 169 143 272t284 103q167 3 258 -99.5t67 -271.5q-23 -165 -142.5 -267.5t-287.5 -105.5q-165 0 -255 102t-67 267zM223 359q-16 -115 41 -189t165 -74q109 0 187 74t94 189q15 108 -42.5 180.5t-165.5 72.5t-186 -72.5t-93 -180.5zM370 756l119 144h136
l-161 -144h-94zM575 756l119 144h136l-161 -144h-94z" />
    <glyph glyph-name="ohungarumlaut" unicode="&#x151;" horiz-adv-x="610" 
d="M78 240q15 111 100 181.5t196 70.5t176 -70.5t50 -181.5t-100.5 -181.5t-196.5 -70.5t-175.5 70.5t-49.5 181.5zM198 240q-9 -59 23.5 -101.5t96.5 -42.5t108.5 42.5t53.5 101.5q8 59 -25 101.5t-96 42.5q-64 0 -108.5 -42.5t-52.5 -101.5zM223 564l119 144h136
l-161 -144h-94zM428 564l119 144h136l-161 -144h-94z" />
    <glyph glyph-name="OE" unicode="&#x152;" horiz-adv-x="1000" 
d="M728 594l-24 -174h270l-16 -114h-270l-27 -192h305l-16 -114h-497q-186 0 -280.5 100t-72.5 254q22 155 144 254.5t309 99.5h480l-17 -114h-288zM535 114l67 480h-63q-40 0 -83 -11t-90.5 -35.5t-82.5 -75t-45 -118.5q-8 -55 5 -99t38.5 -69.5t60.5 -42.5t67 -23t63 -6
h63z" />
    <glyph glyph-name="oe" unicode="&#x153;" horiz-adv-x="926" 
d="M919 204h-350q-9 -51 24.5 -85.5t75.5 -34.5q76 0 137 65l75 -59q-88 -102 -226 -102q-120 0 -167 77q-80 -77 -193 -77q-111 0 -175.5 70.5t-49.5 181.5t100 181.5t196 70.5q114 0 173 -78q75 78 189 78q112 0 161.5 -71.5t33.5 -183.5zM576 288h234q7 52 -19.5 83
t-74.5 31q-47 0 -89 -30.5t-51 -83.5zM190 240q-9 -63 23.5 -106.5t96.5 -43.5q65 0 110 43.5t54 106.5t-24 106.5t-98 43.5q-64 0 -108.5 -43.5t-53.5 -106.5z" />
    <glyph glyph-name="Racute" unicode="&#x154;" horiz-adv-x="630" 
d="M79 0l100 708h246q116 0 183 -46.5t52 -156.5q-11 -77 -61.5 -129t-129.5 -63l144 -313h-152l-122 300h-92l-42 -300h-126zM262 408h98q33 0 55.5 2.5t49 11.5t42.5 30t21 54q4 30 -5.5 50t-31.5 29t-43 12t-50 3h-109zM316 756l119 144h136l-161 -144h-94z" />
    <glyph glyph-name="racute" unicode="&#x155;" horiz-adv-x="389" 
d="M68 0l67 480h120l-10 -76h2q26 41 66.5 64.5t87.5 23.5q19 0 42 -7l-16 -116q-34 9 -57 9q-39 0 -69 -14.5t-45.5 -37t-22.5 -39t-9 -30.5l-36 -257h-120zM212 564l120 144h136l-162 -144h-94z" />
    <glyph glyph-name="Rcommaaccent" unicode="&#x156;" horiz-adv-x="630" 
d="M79 0l100 708h246q116 0 183 -46.5t52 -156.5q-11 -77 -61.5 -129t-129.5 -63l144 -313h-152l-122 300h-92l-42 -300h-126zM262 408h98q33 0 55.5 2.5t49 11.5t42.5 30t21 54q4 30 -5.5 50t-31.5 29t-43 12t-50 3h-109zM134 -258l101 198h122l-116 -198h-107z" />
    <glyph glyph-name="rcommaaccent" unicode="&#x157;" horiz-adv-x="389" 
d="M68 0l67 480h120l-10 -76h2q26 41 66.5 64.5t87.5 23.5q19 0 42 -7l-16 -116q-34 9 -57 9q-39 0 -69 -14.5t-45.5 -37t-22.5 -39t-9 -30.5l-36 -257h-120zM6 -258l101 198h122l-116 -198h-107z" />
    <glyph glyph-name="Rcaron" unicode="&#x158;" horiz-adv-x="630" 
d="M79 0l100 708h246q116 0 183 -46.5t52 -156.5q-11 -77 -61.5 -129t-129.5 -63l144 -313h-152l-122 300h-92l-42 -300h-126zM262 408h98q33 0 55.5 2.5t49 11.5t42.5 30t21 54q4 30 -5.5 50t-31.5 29t-43 12t-50 3h-109zM261 900h114l56 -90l82 90h110l-135 -144h-133z
" />
    <glyph glyph-name="rcaron" unicode="&#x159;" horiz-adv-x="389" 
d="M68 0l67 480h120l-10 -76h2q26 41 66.5 64.5t87.5 23.5q19 0 42 -7l-16 -116q-34 9 -57 9q-39 0 -69 -14.5t-45.5 -37t-22.5 -39t-9 -30.5l-36 -257h-120zM126 708h114l56 -90l82 90h110l-135 -144h-133z" />
    <glyph glyph-name="Sacute" unicode="&#x15a;" horiz-adv-x="574" 
d="M610 653l-106 -97q-32 56 -116 56q-48 0 -85.5 -23t-43.5 -68q-4 -29 11.5 -48.5t43.5 -31.5t62.5 -23t68.5 -26t60.5 -36t39.5 -59t6 -89q-15 -109 -97.5 -167.5t-193.5 -58.5q-151 0 -218 96l108 92q18 -35 52.5 -54.5t76.5 -19.5q48 0 90 25.5t48 71.5q4 31 -11.5 53
t-43 34.5t-62 23.5t-68 25.5t-60.5 35.5t-40 58.5t-6 88.5q14 103 99 158.5t192 55.5q126 0 193 -73zM339 756l119 144h136l-161 -144h-94z" />
    <glyph glyph-name="sacute" unicode="&#x15b;" horiz-adv-x="444" 
d="M463 419l-90 -72q-29 49 -87 49q-27 0 -50.5 -13t-27.5 -38q-3 -23 22 -35.5t62 -20t73.5 -19.5t58.5 -44t15 -84q-8 -54 -45.5 -90t-84 -50t-99.5 -14q-121 0 -176 74l90 75q45 -59 106 -59q30 0 57 14.5t31 40.5q4 27 -21 41t-62 21.5t-73.5 18.5t-59 41.5t-15.5 81.5
q11 75 73 115t142 40q117 0 161 -73zM236 564l120 144h136l-162 -144h-94z" />
    <glyph glyph-name="Scircumflex" unicode="&#x15c;" horiz-adv-x="574" 
d="M610 653l-106 -97q-32 56 -116 56q-48 0 -85.5 -23t-43.5 -68q-4 -29 11.5 -48.5t43.5 -31.5t62.5 -23t68.5 -26t60.5 -36t39.5 -59t6 -89q-15 -109 -97.5 -167.5t-193.5 -58.5q-151 0 -218 96l108 92q18 -35 52.5 -54.5t76.5 -19.5q48 0 90 25.5t48 71.5q4 31 -11.5 53
t-43 34.5t-62 23.5t-68 25.5t-60.5 35.5t-40 58.5t-6 88.5q14 103 99 158.5t192 55.5q126 0 193 -73zM590 756h-114l-57 90l-81 -90h-112l135 144h135z" />
    <glyph glyph-name="scircumflex" unicode="&#x15d;" horiz-adv-x="444" 
d="M463 419l-90 -72q-29 49 -87 49q-27 0 -50.5 -13t-27.5 -38q-3 -23 22 -35.5t62 -20t73.5 -19.5t58.5 -44t15 -84q-8 -54 -45.5 -90t-84 -50t-99.5 -14q-121 0 -176 74l90 75q45 -59 106 -59q30 0 57 14.5t31 40.5q4 27 -21 41t-62 21.5t-73.5 18.5t-59 41.5t-15.5 81.5
q11 75 73 115t142 40q117 0 161 -73zM497 564h-114l-56 90l-82 -90h-112l136 144h135z" />
    <glyph glyph-name="Scedilla" unicode="&#x15e;" horiz-adv-x="574" 
d="M609 653l-105 -97q-33 56 -116 56q-49 0 -86 -23t-43 -68q-4 -29 11.5 -48.5t43.5 -31.5t62.5 -23t68.5 -26t60.5 -36t39.5 -59t6 -89q-14 -98 -82.5 -155.5t-165.5 -67.5l-37 -45q27 0 44.5 -2.5t36 -10t25.5 -25t3 -45.5q-8 -50 -53 -73.5t-99 -23.5q-59 0 -102 28
l28 46q35 -20 79 -20q20 0 39.5 10t23.5 32q3 18 -12 27t-34 9q-15 0 -38 -7l-23 25l60 72q-137 5 -203 96l108 92q19 -35 53.5 -54.5t76.5 -19.5q49 0 89.5 25.5t48.5 71.5q4 31 -11.5 53t-43.5 34.5t-62.5 23.5t-68.5 26t-60.5 35.5t-39.5 58t-6 88.5q15 103 99.5 158.5
t192.5 55.5q125 0 192 -73z" />
    <glyph glyph-name="scedilla" unicode="&#x15f;" horiz-adv-x="444" 
d="M462 419l-90 -72q-27 49 -87 49q-28 0 -51 -13t-26 -38q-3 -23 22 -35.5t62 -20t73.5 -19.5t58.5 -44t14 -84q-9 -67 -59 -104t-120 -46l-43 -52q27 0 44.5 -2.5t36 -10t25.5 -25t3 -45.5q-8 -50 -53 -73.5t-99 -23.5q-59 0 -102 28l28 46q35 -20 79 -20q20 0 39.5 10
t23.5 32q3 18 -12 27t-34 9q-15 0 -38 -7l-23 25l64 78q-112 5 -165 74l91 75q23 -30 46.5 -44.5t58.5 -14.5q30 0 57.5 14.5t30.5 40.5q4 23 -13.5 37t-45.5 19.5t-60.5 14.5t-60 20.5t-42.5 40.5t-8 72q11 76 73 115.5t142 39.5q117 0 160 -73z" />
    <glyph glyph-name="Scaron" unicode="&#x160;" horiz-adv-x="574" 
d="M610 653l-106 -97q-32 56 -116 56q-48 0 -85.5 -23t-43.5 -68q-4 -29 11.5 -48.5t43.5 -31.5t62.5 -23t68.5 -26t60.5 -36t39.5 -59t6 -89q-15 -109 -97.5 -167.5t-193.5 -58.5q-151 0 -218 96l108 92q18 -35 52.5 -54.5t76.5 -19.5q48 0 90 25.5t48 71.5q4 31 -11.5 53
t-43 34.5t-62 23.5t-68 25.5t-60.5 35.5t-40 58.5t-6 88.5q14 103 99 158.5t192 55.5q126 0 193 -73zM232 900h114l57 -90l81 90h110l-135 -144h-133z" />
    <glyph glyph-name="scaron" unicode="&#x161;" horiz-adv-x="444" 
d="M463 419l-90 -72q-29 49 -87 49q-27 0 -50.5 -13t-27.5 -38q-3 -23 22 -35.5t62 -20t73.5 -19.5t58.5 -44t15 -84q-8 -54 -45.5 -90t-84 -50t-99.5 -14q-121 0 -176 74l90 75q45 -59 106 -59q30 0 57 14.5t31 40.5q4 27 -21 41t-62 21.5t-73.5 18.5t-59 41.5t-15.5 81.5
q11 75 73 115t142 40q117 0 161 -73zM140 708h114l56 -90l82 90h110l-135 -144h-133z" />
    <glyph glyph-name="Tcommaaccent" unicode="&#x162;" horiz-adv-x="574" 
d="M224 0l83 594h-217l17 114h560l-17 -114h-217l-83 -594h-126zM142 -258l101 198h122l-116 -198h-107z" />
    <glyph glyph-name="tcommaaccent" unicode="&#x163;" horiz-adv-x="389" 
d="M164 378h-99l14 102h99l20 139h120l-20 -139h132l-14 -102h-132l-29 -210q-6 -39 6 -58.5t50 -19.5q44 0 67 15l-14 -101q-36 -16 -98 -16q-91 0 -118.5 40t-14.5 130zM50 -258l101 198h122l-116 -198h-107z" />
    <glyph glyph-name="Tcaron" unicode="&#x164;" horiz-adv-x="574" 
d="M224 0l83 594h-217l17 114h560l-17 -114h-217l-83 -594h-126zM232 900h114l56 -90l82 90h110l-135 -144h-133z" />
    <glyph glyph-name="tcaron" unicode="&#x165;" horiz-adv-x="389" 
d="M164 378h-99l14 102h99l20 139h120l-20 -139h132l-14 -102h-132l-29 -210q-6 -39 6 -58.5t50 -19.5q44 0 67 15l-14 -101q-36 -16 -98 -16q-91 0 -118.5 40t-14.5 130zM355 550l88 198h122l-113 -198h-97z" />
    <glyph glyph-name="Tbar" unicode="&#x166;" horiz-adv-x="574" 
d="M567 482l-11 -78h-150l-56 -404h-126l56 404h-144l11 78h144l16 112h-217l16 114h560l-16 -114h-217l-16 -112h150z" />
    <glyph glyph-name="tbar" unicode="&#x167;" horiz-adv-x="389" 
d="M380 317l-11 -78h-105l-10 -71q-6 -39 6 -58.5t50 -19.5q45 0 67 15l-14 -101q-36 -16 -97 -16q-92 0 -119 40t-14 130l11 81h-75l11 78h75l9 61h-99l14 102h99l19 139h120l-19 -139h132l-14 -102h-132l-9 -61h105z" />
    <glyph glyph-name="Utilde" unicode="&#x168;" horiz-adv-x="722" 
d="M746 708l-63 -448q-18 -126 -109.5 -202t-215.5 -76t-193.5 76t-51.5 202l63 448h126l-63 -444q-9 -63 22.5 -112.5t113.5 -49.5t127.5 49.5t54.5 112.5l63 444h126zM354 760h-66q38 127 130 127q29 0 77 -18.5t62 -18.5q32 0 52 42h66q-19 -58 -48.5 -92.5t-81.5 -34.5
q-29 0 -77 19t-62 19q-31 0 -52 -43z" />
    <glyph glyph-name="utilde" unicode="&#x169;" horiz-adv-x="574" 
d="M573 480l-67 -480h-114l11 77h-2q-54 -89 -160 -89q-90 0 -125 53.5t-23 135.5l42 303h120l-34 -243l-4 -60t15.5 -56t56.5 -25q56 0 88.5 35t39.5 87l36 262h120zM252 568h-66q40 127 130 127q30 0 77.5 -18.5t60.5 -18.5q33 0 52 42h66q-40 -127 -129 -127
q-30 0 -78 19t-61 19q-32 0 -52 -43z" />
    <glyph glyph-name="Umacron" unicode="&#x16a;" horiz-adv-x="722" 
d="M746 708l-63 -448q-18 -126 -109.5 -202t-215.5 -76t-193.5 76t-51.5 202l63 448h126l-63 -444q-9 -63 22.5 -112.5t113.5 -49.5t127.5 49.5t54.5 112.5l63 444h126zM638 865l-11 -78h-320l11 78h320z" />
    <glyph glyph-name="umacron" unicode="&#x16b;" horiz-adv-x="574" 
d="M573 480l-67 -480h-114l11 77h-2q-54 -89 -160 -89q-90 0 -125 53.5t-23 135.5l42 303h120l-34 -243l-4 -60t15.5 -56t56.5 -25q56 0 88.5 35t39.5 87l36 262h120zM541 673l-11 -78h-320l11 78h320z" />
    <glyph glyph-name="Ubreve" unicode="&#x16c;" horiz-adv-x="722" 
d="M746 708l-63 -448q-18 -126 -109.5 -202t-215.5 -76t-193.5 76t-51.5 202l63 448h126l-63 -444q-9 -63 22.5 -112.5t113.5 -49.5t127.5 49.5t54.5 112.5l63 444h126zM313 900h67q1 -66 94 -66q46 0 71.5 13t41.5 53h66q-36 -144 -191 -144q-75 0 -114.5 35.5t-34.5 108.5
z" />
    <glyph glyph-name="ubreve" unicode="&#x16d;" horiz-adv-x="574" 
d="M573 480l-67 -480h-114l11 77h-2q-54 -89 -160 -89q-90 0 -125 53.5t-23 135.5l42 303h120l-34 -243l-4 -60t15.5 -56t56.5 -25q56 0 88.5 35t39.5 87l36 262h120zM218 708h67q4 -66 94 -66q46 0 71.5 13t41.5 53h66q-35 -144 -191 -144q-75 0 -115 35.5t-34 108.5z" />
    <glyph glyph-name="Uring" unicode="&#x16e;" horiz-adv-x="722" 
d="M746 708l-63 -448q-18 -126 -109.5 -202t-215.5 -76t-193.5 76t-51.5 202l63 448h126l-63 -444q-9 -63 22.5 -112.5t113.5 -49.5t127.5 49.5t54.5 112.5l63 444h126zM584 837q-6 -45 -40 -73.5t-79 -28.5t-71 28t-20 73q6 44 40 73.5t79 29.5t71.5 -28.5t19.5 -73.5z
M536 837q3 23 -11.5 38.5t-37.5 15.5q-24 0 -43 -15.5t-22 -38.5t11.5 -38.5t38.5 -15.5t42.5 15t21.5 39z" />
    <glyph glyph-name="uring" unicode="&#x16f;" horiz-adv-x="574" 
d="M573 480l-67 -480h-114l11 77h-2q-54 -89 -160 -89q-90 0 -125 53.5t-23 135.5l42 303h120l-34 -243l-4 -60t15.5 -56t56.5 -25q56 0 88.5 35t39.5 87l36 262h120zM481 655q-7 -45 -41 -73.5t-79 -28.5t-71 28.5t-20 72.5q7 44 41 73.5t79 29.5t71 -28.5t20 -73.5z
M433 655q3 23 -11.5 38.5t-38.5 15.5t-42.5 -15.5t-21.5 -38.5q-4 -23 10.5 -38.5t38.5 -15.5t42.5 15t22.5 39z" />
    <glyph glyph-name="Uhungarumlaut" unicode="&#x170;" horiz-adv-x="722" 
d="M746 708l-63 -448q-18 -126 -109.5 -202t-215.5 -76t-193.5 76t-51.5 202l63 448h126l-63 -444q-9 -63 22.5 -112.5t113.5 -49.5t127.5 49.5t54.5 112.5l63 444h126zM311 756l119 144h136l-161 -144h-94zM516 756l119 144h136l-161 -144h-94z" />
    <glyph glyph-name="uhungarumlaut" unicode="&#x171;" horiz-adv-x="574" 
d="M573 480l-67 -480h-114l11 77h-2q-54 -89 -160 -89q-90 0 -125 53.5t-23 135.5l42 303h120l-34 -243l-4 -60t15.5 -56t56.5 -25q56 0 88.5 35t39.5 87l36 262h120zM204 564l119 144h136l-161 -144h-94zM409 564l119 144h136l-161 -144h-94z" />
    <glyph glyph-name="Uogonek" unicode="&#x172;" horiz-adv-x="722" 
d="M430 -147l18 -49q-51 -38 -105 -38q-43 0 -70 23.5t-21 65.5q10 63 90 128q-117 6 -182.5 81t-47.5 196l63 448h126l-62 -444q-6 -26 0 -54.5t19 -52.5t43.5 -39.5t73.5 -15.5t77 15t55 40.5t33.5 52t16.5 54.5l62 444h126l-63 -448q-15 -112 -90.5 -185.5t-181.5 -88.5
q-70 -62 -77 -108q-2 -19 9.5 -32.5t30.5 -13.5q27 0 57 21z" />
    <glyph glyph-name="uogonek" unicode="&#x173;" horiz-adv-x="574" 
d="M457 -147l18 -49q-51 -38 -105 -38q-43 0 -70 23.5t-21 65.5q5 37 38 76t75 69l10 77h-2q-54 -89 -159 -89q-90 0 -125 53.5t-24 135.5l43 303h120l-34 -243q-21 -141 68 -141q55 0 87.5 35t39.5 87l37 262h120l-67 -480h-52q-88 -75 -94 -122q-2 -19 9.5 -32.5
t30.5 -13.5q27 0 57 21z" />
    <glyph glyph-name="Wcircumflex" unicode="&#x174;" horiz-adv-x="981" 
d="M209 0l-109 708h138l61 -510h2l231 510h124l84 -510h2l211 510h128l-306 -708h-120l-88 539h-2l-240 -539h-116zM779 756h-114l-57 90l-81 -90h-112l135 144h135z" />
    <glyph glyph-name="wcircumflex" unicode="&#x175;" horiz-adv-x="796" 
d="M170 0l-100 480h130l57 -336h2l144 336h130l57 -336h2l147 336h121l-230 -480h-119l-68 328h-2l-147 -328h-124zM657 564h-114l-56 90l-82 -90h-112l136 144h135z" />
    <glyph glyph-name="Ycircumflex" unicode="&#x176;" horiz-adv-x="630" 
d="M252 0l43 303l-209 405h158l134 -282l216 282h150l-323 -405l-43 -303h-126zM606 756h-114l-57 90l-81 -90h-112l135 144h135z" />
    <glyph glyph-name="ycircumflex" unicode="&#x177;" horiz-adv-x="519" 
d="M207 -4l-137 484h132l88 -333h2l166 333h125l-308 -583q-38 -72 -82.5 -104.5t-120.5 -32.5q-46 0 -90 12l30 108q31 -12 59 -12q42 0 62.5 15.5t42.5 55.5zM530 564h-114l-56 90l-82 -90h-112l136 144h135z" />
    <glyph glyph-name="Ydieresis" unicode="&#x178;" horiz-adv-x="630" 
d="M252 0l43 303l-209 405h158l134 -282l216 282h150l-323 -405l-43 -303h-126zM251 828q4 30 28.5 51t57.5 21t53 -21t15 -51q-5 -31 -30 -51.5t-58 -20.5t-52 21.5t-14 50.5zM457 828q4 30 28.5 51t57.5 21t53 -21t15 -51q-5 -31 -30 -51.5t-58 -20.5t-52 21.5t-14 50.5z
" />
    <glyph glyph-name="Zacute" unicode="&#x179;" horiz-adv-x="611" 
d="M35 0l16 114l445 480h-372l17 114h529l-17 -114l-448 -480h387l-16 -114h-541zM347 756l119 144h136l-161 -144h-94z" />
    <glyph glyph-name="zacute" unicode="&#x17a;" horiz-adv-x="482" 
d="M34 0l16 111l295 271v2h-245l13 96h390l-15 -109l-299 -275h272l-13 -96h-414zM254 564l120 144h136l-162 -144h-94z" />
    <glyph glyph-name="Zdotaccent" unicode="&#x17b;" horiz-adv-x="611" 
d="M35 0l16 114l445 480h-372l17 114h529l-17 -114l-448 -480h387l-16 -114h-541zM368 828q4 30 28.5 51t57.5 21t53 -21t15 -51q-5 -31 -30 -51.5t-58 -20.5t-52 21.5t-14 50.5z" />
    <glyph glyph-name="zdotaccent" unicode="&#x17c;" horiz-adv-x="482" 
d="M34 0l16 111l295 271v2h-245l13 96h390l-15 -109l-299 -275h272l-13 -96h-414zM274 636q4 30 28.5 51t57.5 21t53 -21t15 -51q-5 -31 -30 -51.5t-58 -20.5q-32 0 -51 21t-15 51z" />
    <glyph glyph-name="Zcaron" unicode="&#x17d;" horiz-adv-x="611" 
d="M35 0l16 114l445 480h-372l17 114h529l-17 -114l-448 -480h387l-16 -114h-541zM251 900h114l56 -90l82 90h110l-135 -144h-133z" />
    <glyph glyph-name="zcaron" unicode="&#x17e;" horiz-adv-x="482" 
d="M34 0l16 111l295 271v2h-245l13 96h390l-15 -109l-299 -275h272l-13 -96h-414zM159 708h114l56 -90l82 90h110l-135 -144h-133z" />
    <glyph glyph-name="florin" unicode="&#x192;" horiz-adv-x="592" 
d="M540 426l-13 -90h-138l-97 -288q-32 -96 -84 -141.5t-130 -45.5q-54 0 -98 24l58 92q19 -14 45 -14q36 0 56.5 26t37.5 78l91 269h-113l13 90h131l37 111q30 86 77.5 134.5t128.5 48.5q60 0 113 -31l-59 -93q-26 16 -53 16q-21 0 -37 -8.5t-27 -26t-17 -31t-14 -36.5
l-30 -84h122z" />
    <glyph glyph-name="Scommaaccent" unicode="&#x218;" horiz-adv-x="574" 
d="M610 653l-106 -97q-32 56 -116 56q-48 0 -85.5 -23t-43.5 -68q-4 -29 11.5 -48.5t43.5 -31.5t62.5 -23t68.5 -26t60.5 -36t39.5 -59t6 -89q-15 -109 -97.5 -167.5t-193.5 -58.5q-151 0 -218 96l108 92q18 -35 52.5 -54.5t76.5 -19.5q48 0 90 25.5t48 71.5q4 31 -11.5 53
t-43 34.5t-62 23.5t-68 25.5t-60.5 35.5t-40 58.5t-6 88.5q14 103 99 158.5t192 55.5q126 0 193 -73zM113 -258l101 198h122l-116 -198h-107z" />
    <glyph glyph-name="scommaaccent" unicode="&#x219;" horiz-adv-x="444" 
d="M463 419l-90 -72q-29 49 -87 49q-27 0 -50.5 -13t-27.5 -38q-3 -23 22 -35.5t62 -20t73.5 -19.5t58.5 -44t15 -84q-8 -54 -45.5 -90t-84 -50t-99.5 -14q-121 0 -176 74l90 75q45 -59 106 -59q30 0 57 14.5t31 40.5q4 27 -21 41t-62 21.5t-73.5 18.5t-59 41.5t-15.5 81.5
q11 75 73 115t142 40q117 0 161 -73zM56 -258l101 198h122l-116 -198h-107z" />
    <glyph glyph-name="uni021A" unicode="&#x21a;" horiz-adv-x="574" 
d="M224 0l83 594h-217l17 114h560l-17 -114h-217l-83 -594h-126zM142 -258l101 198h122l-116 -198h-107z" />
    <glyph glyph-name="uni021B" unicode="&#x21b;" horiz-adv-x="389" 
d="M164 378h-99l14 102h99l20 139h120l-20 -139h132l-14 -102h-132l-29 -210q-6 -39 6 -58.5t50 -19.5q44 0 67 15l-14 -101q-36 -16 -98 -16q-91 0 -118.5 40t-14.5 130zM50 -258l101 198h122l-116 -198h-107z" />
    <glyph glyph-name="dotlessj" unicode="&#x237;" 
d="M137 480h120l-72 -509q-7 -49 -18 -84t-31.5 -65.5t-56 -46t-84.5 -15.5q-38 0 -64 9l24 104q22 -5 37 -5q21 0 35.5 9t21.5 26t10.5 31t5.5 36z" />
    <glyph glyph-name="circumflex" unicode="&#x2c6;" 
d="M391 564h-114l-56 90l-82 -90h-112l136 144h135z" />
    <glyph glyph-name="caron" unicode="&#x2c7;" 
d="M48 708h114l56 -90l82 90h110l-135 -144h-133z" />
    <glyph glyph-name="uni02C9" unicode="&#x2c9;" 
d="M384 673l-11 -78h-320l11 78h320z" />
    <glyph glyph-name="breve" unicode="&#x2d8;" 
d="M59 708h67q4 -66 94 -66q46 0 71.5 13t41.5 53h66q-35 -144 -191 -144q-75 0 -115 35.5t-34 108.5z" />
    <glyph glyph-name="dotaccent" unicode="&#x2d9;" 
d="M142 636q4 30 28.5 51t57.5 21t53 -21t15 -51q-5 -31 -30 -51.5t-58 -20.5q-32 0 -51 21t-15 51z" />
    <glyph glyph-name="ring" unicode="&#x2da;" 
d="M327 655q-7 -45 -41 -73.5t-79 -28.5t-71 28.5t-20 72.5q7 44 41 73.5t79 29.5t71 -28.5t20 -73.5zM279 655q3 23 -11.5 38.5t-38.5 15.5t-42.5 -15.5t-21.5 -38.5q-4 -23 10.5 -38.5t38.5 -15.5t42.5 15t22.5 39z" />
    <glyph glyph-name="ogonek" unicode="&#x2db;" 
d="M156 -147l18 -49q-51 -38 -105 -38q-42 0 -69 23.5t-21 65.5q5 38 41.5 80.5t78.5 70.5h61q-33 -25 -64.5 -61.5t-36.5 -66.5q-2 -19 9.5 -32.5t30.5 -13.5q29 0 57 21z" />
    <glyph glyph-name="tilde" unicode="&#x2dc;" 
d="M92 568h-66q40 127 130 127q30 0 77.5 -18.5t60.5 -18.5q33 0 52 42h66q-40 -127 -129 -127q-30 0 -78 19t-61 19q-32 0 -52 -43z" />
    <glyph glyph-name="hungarumlaut" unicode="&#x2dd;" 
d="M59 564l119 144h136l-161 -144h-94zM264 564l119 144h136l-161 -144h-94z" />
    <glyph glyph-name="uni0394" unicode="&#x394;" horiz-adv-x="685" 
d="M677 0h-669l370 712h115zM533 104l-118 477l-240 -477h358z" />
    <glyph glyph-name="uni03A9" unicode="&#x3a9;" horiz-adv-x="759" 
d="M701 0h-276l26 189q76 14 126 72.5t60 135.5q12 92 -36.5 155.5t-139.5 63.5t-159.5 -64t-80.5 -156q-11 -79 20 -133t105 -74l-26 -189h-274l14 106h172l5 32q-83 27 -115.5 97.5t-19.5 168.5q20 137 127 227t245 90t221 -88t63 -226q-15 -100 -67 -171t-144 -98l-5 -32
h173z" />
    <glyph glyph-name="uni03BC" unicode="&#x3bc;" horiz-adv-x="574" 
d="M135 480h120l-34 -243q-21 -141 68 -141q55 0 87.5 35t39.5 87l37 262h120l-67 -480h-114l10 77h-2q-52 -89 -159 -89q-34 0 -54 7l-32 -223h-120z" />
    <glyph glyph-name="pi" unicode="&#x3c0;" horiz-adv-x="593" 
d="M593 93l-12 -80q-45 -20 -97 -20q-62 0 -78.5 33.5t-7.5 97.5l36 254h-183l-53 -378h-117l53 378h-70l14 102h566l-14 -102h-79l-34 -237q-7 -21 -1 -39.5t31 -18.5t46 10z" />
    <glyph glyph-name="endash" unicode="&#x2013;" horiz-adv-x="500" 
d="M541 294l-13 -96h-500l13 96h500z" />
    <glyph glyph-name="emdash" unicode="&#x2014;" horiz-adv-x="1000" 
d="M1041 294l-13 -96h-1000l13 96h1000z" />
    <glyph glyph-name="quoteleft" unicode="&#x2018;" horiz-adv-x="296" 
d="M344 708l-108 -264h-122l123 264h107z" />
    <glyph glyph-name="quoteright" unicode="&#x2019;" horiz-adv-x="296" 
d="M114 444l108 264h122l-123 -264h-107z" />
    <glyph glyph-name="quotesinglbase" unicode="&#x201a;" horiz-adv-x="296" 
d="M34 -126l107 264h122l-122 -264h-107z" />
    <glyph glyph-name="quotedblleft" unicode="&#x201c;" horiz-adv-x="519" 
d="M350 708l-108 -264h-122l123 264h107zM561 708l-108 -264h-122l123 264h107z" />
    <glyph glyph-name="quotedblright" unicode="&#x201d;" horiz-adv-x="519" 
d="M331 444l108 264h122l-123 -264h-107zM120 444l108 264h122l-123 -264h-107z" />
    <glyph glyph-name="quotedblbase" unicode="&#x201e;" horiz-adv-x="519" 
d="M250 -126l107 264h122l-122 -264h-107zM41 -126l107 264h122l-122 -264h-107z" />
    <glyph glyph-name="dagger" unicode="&#x2020;" horiz-adv-x="593" 
d="M453 708l-29 -203h199l-14 -96h-199l-75 -535h-114l75 535h-198l14 96h198l29 203h114z" />
    <glyph glyph-name="daggerdbl" unicode="&#x2021;" horiz-adv-x="593" 
d="M453 708l-26 -185h193l-14 -96h-193l-38 -271h193l-14 -96h-193l-26 -186h-114l26 186h-192l14 96h192l38 271h-192l14 96h192l26 185h114z" />
    <glyph glyph-name="bullet" unicode="&#x2022;" horiz-adv-x="500" 
d="M123 354q11 74 70 125.5t132 51.5q74 0 118 -52t34 -125q-11 -74 -70 -125.5t-132 -51.5q-74 0 -118 52t-34 125z" />
    <glyph glyph-name="ellipsis" unicode="&#x2026;" horiz-adv-x="1000" 
d="M97 70q4 32 31 55t60 23t53 -22t16 -54t-31 -55t-60 -23q-32 0 -52.5 22t-16.5 54zM430 70q4 32 31 55t60 23t53 -22t16 -54t-31 -55t-60 -23q-32 0 -52.5 22t-16.5 54zM763 70q4 32 31 55t60 23t53 -22t16 -54t-31 -55t-60 -23q-32 0 -52.5 22t-16.5 54z" />
    <glyph glyph-name="perthousand" unicode="&#x2030;" horiz-adv-x="1167" 
d="M434 165q11 73 69.5 124.5t131.5 51.5t117.5 -51.5t34.5 -124.5t-69.5 -125t-132.5 -52t-117 52t-34 125zM524 165q-5 -38 16 -62.5t58 -24.5t65.5 24.5t33.5 62.5q5 37 -16 61.5t-59 24.5q-37 0 -65 -24t-33 -62zM830 165q11 73 69.5 124.5t131.5 51.5t117.5 -51.5
t34.5 -124.5t-69.5 -125t-132.5 -52t-117 52t-34 125zM920 165q-5 -38 16 -62.5t58 -24.5t65.5 24.5t33.5 62.5q5 37 -16 61.5t-59 24.5q-37 0 -65 -24t-33 -62zM83 544q11 73 69.5 124.5t131.5 51.5t117.5 -51.5t34.5 -124.5t-69 -125t-132 -52t-117.5 52t-34.5 125z
M173 544q-5 -38 16 -62.5t58 -24.5t65.5 24.5t33.5 62.5q5 37 -15.5 61.5t-58.5 24.5t-66 -24.5t-33 -61.5zM135 6l519 734l78 -38l-519 -734z" />
    <glyph glyph-name="guilsinglleft" unicode="&#x2039;" horiz-adv-x="296" 
d="M316 421l-139 -173l91 -175l-83 -51l-120 226l183 224z" />
    <glyph glyph-name="guilsinglright" unicode="&#x203a;" horiz-adv-x="296" 
d="M49 73l140 173l-92 175l83 51l121 -226l-184 -224z" />
    <glyph glyph-name="fraction" unicode="&#x2044;" horiz-adv-x="167" 
d="M-165 6l519 734l77 -38l-518 -734z" />
    <glyph glyph-name="Euro" unicode="&#x20ac;" horiz-adv-x="610" 
d="M560 121l27 -96q-74 -43 -182 -43q-129 0 -196.5 66.5t-78.5 173.5h-84l40 86h45q0 8 2 22l3 22q8 41 10 48h-72l42 86h55q44 110 138 175t213 65q98 0 155 -33l-52 -100q-41 28 -124 28q-64 0 -123 -36t-86 -99h288l-40 -86h-279q-6 -21 -10 -49l-3 -21q-1 -8 -1 -22
h256l-39 -86h-214q6 -58 53.5 -96t120.5 -38q74 0 136 33z" />
    <glyph glyph-name="afii61289" unicode="&#x2113;" horiz-adv-x="500" 
d="M418 110l31 -61q-81 -63 -166 -63q-71 0 -107 38.5t-27 102.5l9 64l-63 -52h-2l-33 63l111 85l34 244q12 83 66.5 136.5t125.5 53.5q63 0 94.5 -38.5t22.5 -104.5q-11 -75 -67 -150.5t-162 -159.5l-17 -122q-5 -39 11.5 -56.5t43.5 -17.5q40 0 93 38h2zM418 570
q4 31 -5.5 52t-27.5 21q-20 0 -37 -24.5t-23 -65.5l-26 -185q104 99 119 202z" />
    <glyph glyph-name="trademark" unicode="&#x2122;" horiz-adv-x="1000" 
d="M204 296l45 322h-122l13 90h346l-13 -90h-122l-45 -322h-102zM522 296l58 412h142l60 -268l136 268h142l-58 -412h-102l37 268h-2l-138 -268h-70l-64 268h-2l-37 -268h-102z" />
    <glyph glyph-name="Omega" unicode="&#x2126;" horiz-adv-x="759" 
d="M701 0h-276l26 189q76 14 126 72.5t60 135.5q12 92 -36.5 155.5t-139.5 63.5t-159.5 -64t-80.5 -156q-11 -79 20 -133t105 -74l-26 -189h-274l14 106h172l5 32q-83 27 -115.5 97.5t-19.5 168.5q20 137 127 227t245 90t221 -88t63 -226q-15 -100 -67 -171t-144 -98l-5 -32
h173z" />
    <glyph glyph-name="estimated" unicode="&#x212e;" horiz-adv-x="500" 
d="M561 259h-404v-181q59 -59 145 -59q63 0 109 28.5t84 91.5l35 -21q-46 -73 -98 -104t-130 -31q-115 0 -186.5 79t-71.5 197q0 119 71 197.5t187 78.5q115 0 187 -77t72 -199zM157 295h291v145q-63 60 -147 60t-144 -60v-145z" />
    <glyph glyph-name="partialdiff" unicode="&#x2202;" horiz-adv-x="556" 
d="M564 358q-8 -56 -21 -104.5t-37 -99.5t-56.5 -86.5t-82 -58t-110.5 -22.5q-98 0 -149.5 64.5t-37.5 163.5q14 97 82.5 159t164.5 62q74 0 135 -55l4 28q8 36 4.5 75.5t-14 72.5t-39 55t-70.5 22q-61 0 -129 -49l-49 70q49 34 90.5 50t93.5 16q60 0 105 -21t69.5 -56.5
t39 -82t13.5 -98.5t-6 -105zM435 264l2 25q-48 64 -117 64q-59 0 -96 -41.5t-46 -102.5q-9 -59 14 -98.5t80 -39.5q64 0 110 62.5t53 130.5z" />
    <glyph glyph-name="Delta" unicode="&#x2206;" horiz-adv-x="685" 
d="M677 0h-669l370 712h115zM533 104l-118 477l-240 -477h358z" />
    <glyph glyph-name="product" unicode="&#x220f;" horiz-adv-x="741" 
d="M679 -214h-114v897h-389v-897h-114v1000h617v-1000z" />
    <glyph glyph-name="summation" unicode="&#x2211;" horiz-adv-x="648" 
d="M624 -214h-599v89l303 417l-290 405v89h573v-103h-422l275 -390l-293 -404h453v-103z" />
    <glyph glyph-name="minus" unicode="&#x2212;" horiz-adv-x="666" 
d="M111 354h542l-14 -102h-542z" />
    <glyph glyph-name="uni2215" unicode="&#x2215;" horiz-adv-x="167" 
d="M-165 6l519 734l77 -38l-518 -734z" />
    <glyph glyph-name="uni2219" unicode="&#x2219;" horiz-adv-x="296" 
d="M108 291q5 32 31.5 55t59.5 23t53.5 -22t16.5 -54q-5 -32 -31.5 -55t-59.5 -23q-32 0 -53 22t-17 54z" />
    <glyph glyph-name="radical" unicode="&#x221a;" horiz-adv-x="537" 
d="M549 786l-211 -1000h-106l-152 317l-51 -25l-41 90l148 68l129 -273l168 823h116z" />
    <glyph glyph-name="infinity" unicode="&#x221e;" horiz-adv-x="815" 
d="M770 263q0 -78 -46 -130t-123 -52q-96 0 -193 112q-36 -38 -57 -57t-58 -36.5t-77 -17.5q-77 0 -124 51.5t-47 128.5t45.5 128t121.5 51q42 0 80 -19t60.5 -40.5t55.5 -59.5q48 57 92 88.5t102 31.5q76 0 122 -51t46 -128zM680 260q0 37 -21.5 61.5t-58.5 24.5
q-55 0 -135 -87q71 -82 138 -82q36 0 56.5 23.5t20.5 59.5zM350 259q-79 86 -138 86q-34 0 -55.5 -25t-21.5 -60q0 -37 21.5 -59.5t58.5 -22.5q65 0 135 81z" />
    <glyph glyph-name="integral" unicode="&#x222b;" horiz-adv-x="611" 
d="M486 709q0 -23 -14.5 -37.5t-37.5 -14.5q-21 0 -34 11.5t-16.5 25t-9.5 25t-16 11.5q-16 0 -16 -26q0 -20 2 -61t2 -61v-589q0 -43 -5.5 -75.5t-19.5 -65t-44 -50t-75 -17.5q-43 0 -77 19t-34 57q0 23 15 38t38 15q21 0 34 -11.5t16.5 -25t9 -25t14.5 -11.5q4 0 7.5 2
t5 5.5l3 7t1.5 8.5v8.5v8.5v6q0 17 -2 51t-2 51v506q0 10 -0.5 39t0 43.5l1.5 42.5t5 43.5t10.5 38t17.5 35t26 25.5t36.5 18.5t48.5 5.5q41 0 75.5 -19.5t34.5 -57.5z" />
    <glyph glyph-name="approxequal" unicode="&#x2248;" horiz-adv-x="666" 
d="M594 451h71q-18 -75 -60.5 -123.5t-112.5 -48.5q-43 0 -132 34.5t-112 34.5q-25 0 -44 -20.5t-29 -48.5h-71q16 71 59.5 122t110.5 51q42 0 125.5 -33t123.5 -33q47 0 71 65zM563 243h71q-18 -75 -60.5 -123.5t-112.5 -48.5q-43 0 -131 34.5t-113 34.5q-26 0 -44.5 -20
t-28.5 -48h-71q16 71 59.5 121.5t110.5 50.5q42 0 125.5 -33t123.5 -33q47 0 71 65z" />
    <glyph glyph-name="notequal" unicode="&#x2260;" horiz-adv-x="666" 
d="M608 162h-264l-94 -144l-82 45l64 99h-130l15 102h181l49 78h-219l14 102h270l92 143l84 -44l-65 -99h125l-14 -102h-176l-49 -78h214z" />
    <glyph glyph-name="lessequal" unicode="&#x2264;" horiz-adv-x="666" 
d="M605 144l-482 170l15 108l531 177l-16 -113l-376 -118l343 -112zM585 4h-506l15 107h506z" />
    <glyph glyph-name="greaterequal" unicode="&#x2265;" horiz-adv-x="666" 
d="M99 144l15 112l375 112l-342 118l16 113l481 -177l-15 -108zM79 4l15 107h506l-15 -107h-506z" />
    <glyph glyph-name="lozenge" unicode="&#x25ca;" horiz-adv-x="593" 
d="M524 356l-178 -391h-100l-177 391l177 391h100zM415 356l-119 285l-118 -285l118 -286z" />
    <glyph glyph-name="grave.cap" unicode="&#xe300;" 
d="M204 900l79 -144h-94l-121 144h136z" />
    <glyph glyph-name="acute.cap" unicode="&#xe301;" 
d="M189 756l119 144h136l-161 -144h-94z" />
    <glyph glyph-name="circumflex.cap" unicode="&#xe302;" 
d="M418 756h-114l-57 90l-81 -90h-112l135 144h135z" />
    <glyph glyph-name="caron.cap" unicode="&#xe303;" 
d="M75 900h114l56 -90l82 90h110l-135 -144h-133z" />
    <glyph glyph-name="tilde.cap" unicode="&#xe304;" 
d="M118 760h-66q38 127 130 127q29 0 77 -18.5t62 -18.5q32 0 52 42h66q-19 -58 -48.5 -92.5t-81.5 -34.5q-29 0 -77 19t-62 19q-31 0 -52 -43z" />
    <glyph glyph-name="dieresis.cap" unicode="&#xe305;" 
d="M66 828q4 30 28.5 51t57.5 21t53 -21t15 -51q-5 -31 -30 -51.5t-58 -20.5t-52 21.5t-14 50.5zM272 828q4 30 28.5 51t57.5 21t53 -21t15 -51q-5 -31 -30 -51.5t-58 -20.5t-52 21.5t-14 50.5z" />
    <glyph glyph-name="macron.cap" unicode="&#xe306;" 
d="M411 865l-11 -78h-320l11 78h320z" />
    <glyph glyph-name="breve.cap" unicode="&#xe307;" 
d="M86 900h67q1 -66 94 -66q46 0 71.5 13t41.5 53h66q-36 -144 -191 -144q-75 0 -114.5 35.5t-34.5 108.5z" />
    <glyph glyph-name="ring.cap" unicode="&#xe308;" 
d="M352 837q-6 -45 -40 -73.5t-79 -28.5t-71 28t-20 73q6 44 40 73.5t79 29.5t71.5 -28.5t19.5 -73.5zM304 837q3 23 -11.5 38.5t-37.5 15.5q-24 0 -43 -15.5t-22 -38.5t11.5 -38.5t38.5 -15.5t42.5 15t21.5 39z" />
    <glyph glyph-name="hungarumlaut.cap" unicode="&#xe309;" 
d="M86 756l119 144h136l-161 -144h-94zM291 756l119 144h136l-161 -144h-94z" />
    <glyph glyph-name="dotaccent.cap" unicode="&#xe30a;" 
d="M169 828q4 30 28.5 51t57.5 21t53 -21t15 -51q-5 -31 -30 -51.5t-58 -20.5t-52 21.5t-14 50.5z" />
    <glyph glyph-name="caron.alt" unicode="&#xe30b;" 
d="M119 510l88 198h122l-113 -198h-97z" />
    <glyph glyph-name="commaaccent" unicode="&#xe30c;" 
d="M-9 -258l101 198h122l-116 -198h-107z" />
    <glyph glyph-name="commaaccent.alt" unicode="&#xe30d;" 
d="M339 782l-100 -198h-122l115 198h107z" />
    <glyph glyph-name="uniF8FF" unicode="&#xf8ff;" horiz-adv-x="512" 
d="M278 117h-56v67h56v-67zM271 234h-46l-2 17q0 56 13 81q15 28 46 59q30 28 40 45.5t10 37.5q0 36 -22.5 60.5t-53.5 24.5q-71 0 -82 -95l-50 8q6 69 42 103t93 34q55 0 89.5 -36t34.5 -95q0 -34 -13 -60t-50 -60q-37 -33 -43 -52q-6 -20 -6 -72zM50 50h412v617h-412v-617
zM0 718h512v-718h-512v718z" />
    </font>
</defs>
</svg>
