<?xml version="1.0" standalone="no"?>
<!DOCTYPE svg PUBLIC "-//W3C//DTD SVG 1.1//EN" "http://www.w3.org/Graphics/SVG/1.1/DTD/svg11.dtd" >
<svg>
<metadata>
Created by FontForge 20090622 at Thu Apr  9 07:43:39 2015
 By deploy user
Copyright (c) 1991, 1992 Adobe Systems Incorporated.  All Rights Reserved.Berthold Bodoni is a registered trademark of H. Berthold AG.
</metadata>
<defs>
<font id="BodoniBE-RegularSC" horiz-adv-x="521" >
  <font-face 
    font-family="Bodoni BE"
    font-weight="400"
    font-stretch="normal"
    units-per-em="1000"
    panose-1="2 0 5 3 8 0 0 2 0 3"
    ascent="800"
    descent="-200"
    x-height="436"
    cap-height="706"
    bbox="-122 -284 1157 913"
    underline-thickness="50"
    underline-position="-50"
    unicode-range="U+0020-U+FB02"
  />
<missing-glyph horiz-adv-x="271" 
 />
    <glyph glyph-name=".notdef" horiz-adv-x="271" 
 />
    <glyph glyph-name=".null" horiz-adv-x="0" 
 />
    <glyph glyph-name="nonmarkingreturn" horiz-adv-x="271" 
 />
    <glyph glyph-name="space" unicode=" " horiz-adv-x="271" 
 />
    <glyph glyph-name="space" unicode="&#xa0;" horiz-adv-x="271" 
 />
    <glyph glyph-name="dollar" unicode="$" horiz-adv-x="375" 
d="M205 429q39 -2 64.5 -11.5t41 -22t22 -26t6.5 -24.5t-8 -25t-28 -14t-30 10.5t-13 20.5q-2 6 -3 14t-1 27q0 6 -1.5 11t-6.5 9t-15 7t-28 3v-151q17 -8 38 -17t35 -17q22 -12 35.5 -25.5t20.5 -26t9 -24t2 -19.5q0 -11 -4.5 -31.5t-19.5 -41.5t-42.5 -38.5t-73.5 -22.5
v-81h-30v81q-34 3 -60.5 13t-45 24t-28.5 31t-10 34q0 24 15 35.5t29 11.5q17 0 29 -13t12 -36q0 -2 -0.5 -12t-0.5 -14q0 -22 11 -35.5t49 -18.5v166q-3 1 -9.5 4.5t-13.5 6.5l-13 5.5t-8 3.5q-7 4 -22 11.5t-30 20t-26.5 31.5t-11.5 45q0 12 5 30.5t20 36.5t41 33t68 20
v95h30v-94zM175 407q-27 -5 -46 -20.5t-19 -42.5q0 -15 6.5 -26.5t16 -20t21 -15t21.5 -11.5v136zM205 15q27 5 42 17t21.5 24.5t8 22.5t1.5 12q0 27 -20 42.5t-53 32.5v-151z" />
    <glyph glyph-name="percent" unicode="%" horiz-adv-x="833" 
d="M324 462q0 -55 -14 -97.5t-35 -71.5t-47 -44t-51 -15q-31 0 -58 19.5t-46.5 52t-30.5 73.5t-11 84q0 46 12 87.5t32.5 72.5t47 49.5t56.5 18.5q27 0 53.5 -16.5t47 -47t32.5 -72.5t12 -93zM246 462q1 60 -1 95.5t-7 55.5q-5 22 -17.5 39.5t-41.5 17.5q-26 0 -40 -14.5
t-21 -41t-8 -63t-1 -80.5q0 -41 0.5 -68t2 -44.5t2.5 -27.5t3 -17q1 -6 4 -16t9.5 -19.5t18 -17t29.5 -7.5t33 9.5t23 30.5q2 6 4 13.5t3.5 25t2.5 48t2 81.5zM803 221q0 -55 -14 -97.5t-35 -71.5t-47 -44t-51 -15q-32 0 -58.5 19.5t-46 52t-30.5 73.5t-11 84q0 46 12 87
t32.5 72t47 49.5t56.5 18.5q27 0 53.5 -16.5t47 -46.5t32.5 -72t12 -93zM725 221q1 60 -1 95.5t-7 55.5q-5 21 -17.5 38.5t-41.5 17.5q-26 0 -40 -14.5t-21 -40.5t-8 -62.5t-1 -79.5q0 -41 0.5 -68.5t2 -45t2.5 -27.5t3 -17q1 -6 4 -16t9.5 -19.5t18 -17t29.5 -7.5t33 9.5
t23 30.5q2 6 4 13.5t3.5 25t2.5 48t2 81.5zM602 683l-328 -682h-42l329 682h41z" />
    <glyph glyph-name="ampersand" unicode="&#x26;" 
d="M508 0h-153l-28 34q-32 -23 -66.5 -32t-73.5 -9q-43 0 -71 12t-45 29.5t-24 37t-7 34.5q0 24 9 41t26 30.5t41.5 25.5t56.5 25q-28 35 -42.5 57t-14.5 45q0 32 29 56t93 24q47 0 78.5 -17t31.5 -54q0 -31 -24 -49.5t-68 -38.5l115 -144q16 18 28.5 48t17.5 77h-81v21h176
v-21h-68q-5 -44 -17.5 -81t-38.5 -64l56 -66h64v-21zM235 391q-12 0 -27 -6.5t-15 -30.5q0 -16 7.5 -28.5t19.5 -28.5l13 -16.5l13 -16.5q3 2 8 6.5t9.5 12t8 19.5t3.5 30q0 27 -7.5 43t-32.5 16zM185 213q-33 -17 -47 -30.5t-14 -32.5q0 -11 9 -32t24.5 -42t37 -37
t45.5 -16q23 0 41 9.5t32 18.5z" />
    <glyph glyph-name="quoteright" unicode="&#x2019;" horiz-adv-x="229" 
d="M75 454q20 15 32.5 25.5t26.5 30.5q22 29 29 53t7 39q0 2 -0.5 8.5t-3 14t-8 14.5t-14.5 12l1 -9q0 -7 -2.5 -16t-8 -17t-15 -13.5t-24.5 -5.5q-25 0 -40.5 16.5t-15.5 39.5q0 32 22.5 49t51.5 17q42 0 64.5 -30t22.5 -71q0 -43 -25.5 -89.5t-83.5 -88.5z" />
    <glyph glyph-name="parenleft" unicode="(" horiz-adv-x="313" 
d="M277 -211q-10 13 -30.5 42.5t-46.5 75.5l-34.5 67t-37 87t-29 103.5t-11.5 115.5q0 72 17 141.5t44 133t61 119.5t67 103l27 -18q-65 -109 -94.5 -230t-29.5 -247q0 -94 12.5 -167.5t31 -131.5t40 -101.5l39.5 -77.5z" />
    <glyph glyph-name="parenright" unicode=")" horiz-adv-x="313" 
d="M36 777l29 -42t47 -77q15 -26 34 -64.5t36.5 -86.5t29.5 -104t12 -117q0 -72 -17 -141t-44 -132.5t-60.5 -120t-67.5 -103.5l-27 18q65 109 94.5 230t29.5 247q0 94 -12.5 167.5t-31 131t-40 101.5l-39.5 78z" />
    <glyph glyph-name="asterisk" unicode="*" horiz-adv-x="437" 
d="M250 517l-1 -13l96 -31q11 -4 22.5 -9t20.5 -11t15 -14.5t6 -19.5q0 -16 -12 -28t-27 -12q-12 0 -22.5 7.5t-27.5 22.5l-80 80l-10 -5l23 -98q5 -17 6.5 -26t1.5 -17q0 -3 -1 -10t-4.5 -14.5t-11.5 -13t-22 -5.5q-40 0 -40 42q0 12 2 23t5 22l25 96l-13 7l-84 -72
q-13 -10 -26.5 -18.5t-27.5 -8.5q-20 0 -29 15t-9 26q0 22 16.5 30.5t45.5 16.5l107 28l-1 11l-96 35q-28 8 -44.5 17t-16.5 32q0 14 10.5 26.5t27.5 12.5t29 -11t19 -19l82 -77l10 5l-25 98l-6 25t-2 16q0 5 1.5 12t6 13t12.5 10.5t21 4.5t20.5 -5.5t11.5 -12.5t4.5 -13.5
t0.5 -9.5q0 -5 -1 -13t-5 -29l-22 -96l11 -8l80 73q17 15 28 22.5t25 7.5q17 0 28 -11t11 -29q0 -12 -5 -20t-13 -13t-18 -8t-19 -6z" />
    <glyph glyph-name="plus" unicode="+" horiz-adv-x="667" 
d="M355 269v-269h-44v269h-268v44h268v269h44v-269h269v-44h-269z" />
    <glyph glyph-name="comma" unicode="," horiz-adv-x="229" 
d="M69 -139q20 15 32.5 25.5t26.5 29.5q23 29 29.5 53.5t6.5 38.5q0 2 -0.5 8.5t-3 14t-7.5 15t-15 12.5l1 -10q0 -6 -2.5 -15t-8 -17t-15.5 -13.5t-25 -5.5q-25 0 -40 16.5t-15 39.5q0 32 22.5 49t51.5 17q21 0 37.5 -8.5t27.5 -22.5t16.5 -32.5t5.5 -38.5q0 -42 -25 -88.5
t-84 -88.5z" />
    <glyph glyph-name="hyphen" unicode="-" horiz-adv-x="354" 
d="M317 336v-71h-280v71h280z" />
    <glyph glyph-name="period" unicode="." horiz-adv-x="229" 
d="M52 56q0 26 18 44t44 18t44 -18t18 -44t-18 -44t-44 -18t-44 18t-18 44z" />
    <glyph glyph-name="slash" unicode="/" horiz-adv-x="396" 
d="M376 706l-295 -706h-61l296 706h60z" />
    <glyph glyph-name="zero" unicode="0" 
d="M486 218q0 -55 -21 -98t-53.5 -72t-72.5 -44.5t-79 -15.5q-48 0 -89 19.5t-71.5 52t-47.5 74t-17 85.5q0 47 19 88.5t50.5 73t73 49.5t85.5 18q42 0 82.5 -17t72 -47t50 -72.5t18.5 -93.5zM373 218q1 52 -1.5 91t-13.5 64.5t-33 38.5t-61 13q-42 0 -65.5 -14.5t-35 -40
t-13.5 -60.5t-2 -77q0 -57 2.5 -99t13.5 -69.5t33.5 -41t63.5 -13.5q24 0 40.5 5t27.5 11.5t16.5 13.5l8.5 11q4 6 7 15t5.5 26.5t4 47.5t2.5 78z" />
    <glyph glyph-name="one" unicode="1" horiz-adv-x="396" 
d="M52 427l215 12v-418h105v-21h-315v21h111v371q-1 7 -3 12t-13 5l-100 -3v21z" />
    <glyph glyph-name="two" unicode="2" horiz-adv-x="479" 
d="M428 184l-6 -184h-384v33l143 103l58 48t41.5 41.5t25 42t8.5 49.5q0 27 -9.5 47t-25 33.5t-35.5 20t-41 6.5q-27 0 -47.5 -7.5t-35 -18.5t-22 -23t-7.5 -22q0 -13 10 -13q2 0 9 2.5t9 3.5q7 3 18 3q20 0 35 -13.5t15 -34.5q0 -20 -14.5 -34.5t-36.5 -14.5q-15 0 -28 7
t-22.5 18t-15 26t-5.5 31q0 20 9.5 40.5t30.5 37t53.5 27t78.5 10.5q82 0 129.5 -31t47.5 -81q0 -23 -9.5 -42.5t-27 -38.5t-43 -39.5l-57.5 -44.5l-127 -90h183q16 1 27.5 2t19 5.5t12 13.5t8.5 26q1 3 2 10.5t2.5 16.5t3 17t1.5 11h19z" />
    <glyph glyph-name="three" unicode="3" horiz-adv-x="479" 
d="M99 134q43 1 78 4.5t60 19.5t38.5 50t13.5 96q0 19 -2.5 39.5t-12 38t-27.5 29t-49 11.5q-17 0 -31.5 -4t-26 -10t-18 -13.5t-6.5 -13.5q0 -5 2 -7t6 -5q11 -8 18 -20t7 -26q0 -5 -2 -12.5t-6.5 -15t-13 -12.5t-21.5 -5q-23 0 -36.5 17t-13.5 40q0 21 11 41.5t32 36
t50 25.5t65 10q39 0 72 -12t57 -32.5t37.5 -48t13.5 -59.5q0 -33 -15 -62.5t-39.5 -52.5t-57 -38t-67.5 -20q21 -2 42.5 -5.5t40.5 -9.5q39 -11 64.5 -30t41 -41.5t22 -46.5t6.5 -46q0 -36 -15 -72t-44.5 -65t-74 -47.5t-102.5 -18.5q-45 0 -79 12t-56 30t-33 40t-11 43
q0 27 15 44t39 17q23 0 35.5 -14.5t12.5 -33.5q0 -16 -7.5 -27t-16.5 -19q-13 -9 -13 -15t7.5 -15.5t21 -18.5t32.5 -15.5t43 -6.5q33 0 59 13.5t43 35.5q11 15 17 31.5t9 32.5t3.5 30t0.5 23q0 67 -17.5 103.5t-47.5 54t-70 20.5t-85 4z" />
    <glyph glyph-name="four" unicode="4" horiz-adv-x="562" 
d="M346 476h56v-450h94v75h24v-174h-24v73h-94v-247h-101v247h-284v38zM39 27h262v344z" />
    <glyph glyph-name="five" unicode="5" horiz-adv-x="500" 
d="M133 352l-12 -206q23 10 48.5 14t50.5 4q49 0 93 -15t76 -42.5t51 -66t19 -84.5t-18.5 -85.5t-51 -68t-75.5 -45t-91 -16.5q-39 0 -72 10t-57 27.5t-38 40t-14 47.5q0 27 15.5 46.5t38.5 19.5q16 0 31.5 -11.5t15.5 -36.5q0 -20 -10.5 -34t-19.5 -20q-9 -5 -11.5 -7
t-2.5 -6q0 -7 9.5 -16t25.5 -17.5t36.5 -14t41.5 -5.5q45 0 71.5 22t40 53t17.5 64.5t4 57.5q0 68 -24 110q-11 20 -26.5 33t-32 20.5t-33 10t-31.5 2.5q-36 0 -63 -11t-44 -20l16 288q1 15 5.5 23.5t13.5 12.5t22.5 5t32.5 1h171q16 0 24 1.5t12 9.5l4 8l4 8h16
q-2 -20 -5 -42.5t-11 -39.5q-5 -10 -12.5 -15.5t-21.5 -8.5t-36 -4t-56 -1h-137z" />
    <glyph glyph-name="six" unicode="6" 
d="M434 691q-121 -24 -188 -94t-81 -199q48 49 119 49q40 0 77 -15t65.5 -43.5t45.5 -69.5t17 -93t-17.5 -95.5t-48 -75t-71 -49.5t-85.5 -18q-41 0 -82 16t-73.5 49.5t-52.5 86t-20 125.5q0 67 19.5 138.5t65.5 133.5t121.5 109.5t187.5 68.5zM377 226q0 30 -2 64.5t-12 64
t-31.5 48.5t-61.5 19q-19 0 -35 -6q-27 -9 -43 -26.5t-24.5 -42.5t-11.5 -56.5t-3 -68.5q0 -113 28 -162t88 -49q32 0 53 12t33.5 38t17 66.5t4.5 98.5z" />
    <glyph glyph-name="seven" unicode="7" 
d="M28 248l52 188h391q5 0 10 -1.5t5 -8.5q0 -3 -1 -6l-81 -170l-59 -135.5t-36 -87t-18 -56t-5 -42.5q0 -14 2 -27.5t6 -33.5q6 -24 9 -37t3 -24q0 -26 -15 -46t-45 -20q-28 0 -44 19t-16 49q0 21 7.5 49t19.5 59t27 63.5l30 62.5l147 307h-263q-19 0 -32 -1.5t-22.5 -6.5
t-16.5 -15.5t-14 -29.5l-20 -54z" />
    <glyph glyph-name="eight" unicode="8" 
d="M305 358q3 -1 5.5 -1t5.5 -1q38 -8 69.5 -24.5t54 -40.5t34.5 -53.5t12 -62.5q0 -41 -17.5 -75t-48.5 -59t-72.5 -38.5t-89.5 -13.5t-89 14.5t-71 39.5t-47 59t-17 72q0 5 1 17.5t6 29.5t16.5 36.5t32.5 38.5t53 35.5t79 27.5q-75 14 -117 57.5t-42 105.5q0 39 17 71
t45 54.5t64.5 35t75.5 12.5q44 0 80.5 -14.5t63 -38.5t41 -56t14.5 -67t-13 -62.5t-34 -47.5t-47.5 -32t-52.5 -17q-8 -2 -12 -2zM357 523q1 80 -22 115.5t-71 35.5q-33 0 -52 -15.5t-28.5 -38.5t-11.5 -51t-2 -53q0 -16 1.5 -40t10.5 -46.5t27.5 -38.5t52.5 -16
q21 0 38.5 7.5t30 25t19.5 46t7 69.5zM370 175q0 14 -2 42t-12 56.5t-32.5 50t-62.5 21.5q-42 0 -65 -23.5t-33.5 -54t-12 -60t-1.5 -42.5q0 -32 6 -60.5t19.5 -50t34.5 -34t50 -12.5q31 0 52.5 13.5t34.5 36.5t18.5 53.5t5.5 63.5z" />
    <glyph glyph-name="nine" unicode="9" 
d="M84 -255q57 7 108.5 31.5t87.5 69.5q29 36 50 89.5t27 105.5q-8 -11 -17.5 -21t-32.5 -21q-30 -14 -68 -14q-37 0 -73.5 15.5t-66 44t-47.5 69t-18 90.5q0 49 18 93.5t49 78t73 53t89 19.5q43 0 83 -17.5t70.5 -52t48.5 -85.5t18 -118q0 -100 -37 -181t-95.5 -139.5
t-130 -92t-141.5 -39.5zM371 211q0 43 -3 82.5t-14.5 68.5t-34 46.5t-59.5 17.5q-11 0 -29.5 -3.5t-36.5 -18.5q-12 -11 -21 -25.5t-15 -38.5t-9 -59.5t-3 -87.5q0 -35 3 -68.5t13.5 -59.5t31 -42t55.5 -16q25 0 42 8t29 19q11 9 20 22t16 33t11 49.5t4 72.5z" />
    <glyph glyph-name="colon" unicode=":" horiz-adv-x="271" 
d="M94 356q0 26 18 44t44 18t44 -18t18 -44t-18 -44t-44 -18t-44 18t-18 44zM94 56q0 26 18 44t44 18t44 -18t18 -44t-18 -44t-44 -18t-44 18t-18 44z" />
    <glyph glyph-name="semicolon" unicode=";" horiz-adv-x="271" 
d="M82 356q0 26 18 44t44 18t44 -18t18 -44t-18 -44t-44 -18t-44 18t-18 44zM110 -139q20 15 32.5 25.5t26.5 29.5q23 29 29.5 53.5t6.5 38.5q0 2 -0.5 8.5t-3 14t-7.5 15t-15 12.5l1 -10q0 -6 -2.5 -15t-8 -17t-15.5 -13.5t-25 -5.5q-25 0 -40 16.5t-15 39.5q0 32 22.5 49
t51.5 17q21 0 37.5 -8.5t27.5 -22.5t16.5 -32.5t5.5 -38.5q0 -42 -25 -88.5t-84 -88.5z" />
    <glyph glyph-name="less" unicode="&#x3c;" horiz-adv-x="667" 
d="M666 46v-49l-666 328v59l666 325v-49l-621 -305z" />
    <glyph glyph-name="equal" unicode="=" horiz-adv-x="667" 
d="M667 403v-45h-667v45h667zM667 228v-45h-667v45h667z" />
    <glyph glyph-name="greater" unicode="&#x3e;" horiz-adv-x="667" 
d="M667 325l-666 -328v49l621 309l-621 305v49l666 -325v-59z" />
    <glyph glyph-name="question" unicode="?" horiz-adv-x="396" 
d="M273 504q18 18 37 42t19 56q0 14 -6 30.5t-20 30t-36 22.5t-53 9q-30 0 -51.5 -7.5t-35.5 -17.5t-20.5 -20.5t-6.5 -16.5q0 -4 2 -8.5t15 -12.5q11 -6 21 -15.5t10 -32.5q0 -20 -12 -33t-30 -13q-17 0 -34 15.5t-17 47.5q0 24 10.5 48t31 43.5t49.5 31.5t67 12
q41 0 72 -15t52 -39t31.5 -54t10.5 -61q0 -29 -9 -59t-26 -53q-17 -25 -40 -42.5l-46 -33.5l-17 -15q-20 -17 -33 -29.5t-20.5 -27t-10 -32t-1.5 -42.5l-17 -10q-2 10 -3.5 21.5t-1.5 34.5q0 49 7 82.5t19.5 58.5t29.5 43.5l37 38.5zM110 56q0 26 18 44t44 18t44 -18t18 -44
t-18 -44t-44 -18t-44 18t-18 44z" />
    <glyph glyph-name="at" unicode="@" horiz-adv-x="896" 
d="M639 371q-3 -16 -10 -47.5l-14 -65.5t-12 -64t-5 -42q0 -15 7.5 -30t26.5 -15q24 0 51.5 22t51.5 60t40 88t16 107q0 60 -20.5 114t-58 94t-90.5 63.5t-117 23.5q-48 0 -87 -11t-69 -27t-51.5 -33t-33.5 -30q-32 -33 -56 -74t-41 -86t-25.5 -91.5t-8.5 -91.5
q0 -67 21 -126t64 -103.5t106.5 -70.5t149.5 -26q72 0 127.5 17t96 40.5t66.5 47t39 36.5l20 -25q-19 -19 -48.5 -44.5t-72 -49t-101 -39.5t-136.5 -16q-94 0 -167.5 27.5t-124 76t-77 115.5t-26.5 146q0 57 14.5 114t41.5 109.5t65.5 97.5t87 78.5t105.5 52.5t121 19
q78 0 137.5 -27.5t100.5 -73.5t62 -104.5t21 -121.5q0 -60 -17.5 -116.5t-46.5 -100.5t-67 -71t-80 -27q-20 0 -34.5 7t-23.5 18.5t-13.5 26t-4.5 28.5q0 6 0.5 12t1.5 11q-9 -17 -18 -30.5t-28 -30.5l-14 -11t-22 -13.5t-28.5 -11.5t-33.5 -5q-25 0 -48 10.5t-40.5 31.5
t-28 52.5t-10.5 73.5q0 59 19 110.5t50 90t69.5 60.5t76.5 22q31 0 51 -10t32.5 -23.5t19 -28t10.5 -24.5l14 58h54zM577 406q-3 42 -27 64t-53 22q-35 0 -55.5 -17t-33.5 -34q-18 -23 -31.5 -52.5t-23 -60t-14.5 -60t-5 -53.5q0 -6 1.5 -23t9 -35.5t24 -32.5t46.5 -14
q19 0 35.5 8t29.5 18.5t21.5 21t11.5 15.5q15 22 27.5 53t21 63.5t12.5 63.5t3 53z" />
    <glyph glyph-name="A" unicode="A" horiz-adv-x="604" 
d="M349 225h-213l-68 -204h92v-21h-188v21h68l238 687h32l229 -687h74l1 -21h-289v21h93zM144 247h198l-99 292z" />
    <glyph glyph-name="B" unicode="B" horiz-adv-x="625" 
d="M32 21h89v664h-93v21h187q73 0 124 -2.5t96 -16.5q37 -12 61.5 -29.5t39 -38.5t20.5 -43t6 -41q0 -39 -18 -68.5t-45.5 -50t-60 -32t-61.5 -14.5q43 -3 81.5 -15.5t67.5 -34.5t46.5 -54.5t17.5 -75.5q0 -90 -73 -142q-25 -18 -51.5 -28t-56.5 -14.5t-63.5 -5t-71.5 -0.5
h-242v21zM227 685v-307h26q27 0 58 1.5t50 6.5q48 14 66 51t18 94t-15.5 87t-37.5 44q-24 16 -55.5 19t-81.5 4h-28zM227 357v-336h37q27 0 45.5 0.5t32 1.5t23 2.5t18.5 4.5q29 10 45 31t24 44.5t9.5 45.5t1.5 36q0 49 -11 86.5t-43 58.5q-12 9 -26 13.5t-33.5 7t-45.5 3.5
t-62 1h-15z" />
    <glyph glyph-name="C" unicode="C" horiz-adv-x="604" 
d="M545 521q-16 64 -45 99t-59 51t-55 18.5t-34 2.5q-35 0 -65.5 -11t-50.5 -30q-18 -16 -29.5 -37t-19 -57t-10.5 -91t-3 -139q0 -54 0.5 -94.5t5 -71.5t14.5 -54.5t28 -43.5q20 -23 51.5 -37t72.5 -14q45 0 77 16t55 39q28 28 42.5 58.5t31.5 72.5h17l-4 -198h-15l-37 50
q-28 -22 -72.5 -42t-101.5 -20t-111 25.5t-96.5 72t-68.5 112.5t-26 147q0 92 29 161.5t74.5 116.5t101 71t108.5 24q55 0 92.5 -18.5t73.5 -41.5l33 48h15l2 -185h-21z" />
    <glyph glyph-name="D" unicode="D" horiz-adv-x="708" 
d="M31 21h89v664h-83v21h225q54 0 100 -2t87 -15q45 -13 85 -41.5t70 -71t48 -98.5t18 -123q0 -74 -25 -142.5t-76 -121.5q-33 -34 -67 -52t-67.5 -26.5t-66 -10.5t-62.5 -2h-275v21zM235 684v-662h54q23 0 48 0.5t50 5t48 14t42 27.5q21 19 33.5 45.5t18.5 62t7.5 81.5
t1.5 104q0 38 -1 77t-6 78q-3 23 -11 53.5t-32 57.5q-18 20 -39 31t-47.5 16.5t-60.5 6.5t-78 2h-28z" />
    <glyph glyph-name="E" unicode="E" horiz-adv-x="604" 
d="M577 220l-19 -220h-525v21h89v664h-87v21h505l8 -194h-14q-1 3 -3 10.5l-4.5 16.5t-4.5 17t-3 11q-4 13 -9 24t-13 25q-15 25 -32.5 39t-40 21t-50.5 8t-64 1h-79v-317h32q18 0 34 1t30.5 4.5t25.5 11.5t19 22t10.5 34t4.5 57h17v-291h-16q-2 45 -8 72t-20 42t-37.5 20
t-60.5 5h-31v-325h114q36 0 61 1t44 7t33.5 18.5t28.5 35.5q20 32 31 66.5t20 70.5h14z" />
    <glyph glyph-name="F" unicode="F" horiz-adv-x="562" 
d="M408 215q-2 49 -10 75.5t-24 39t-40.5 14.5t-57.5 2h-44v-325h90v-21h-291v21h90v664h-90v21h509l12 -200h-17q-8 45 -22 84.5t-46 65.5q-13 11 -26.5 17t-29.5 8.5t-36.5 3t-47.5 0.5h-95v-317h42q30 0 51 1t35 5.5t23 13.5t14 25q3 7 4.5 19l3 25t2 25.5t0.5 20.5h19
v-288h-18z" />
    <glyph glyph-name="G" unicode="G" horiz-adv-x="667" 
d="M654 223h-66q-2 -19 -6 -44.5t-17 -54.5q-10 -21 -28.5 -44.5t-46.5 -44t-66.5 -34t-88.5 -13.5q-12 0 -37 2t-57 14t-68 38t-69 74q-43 63 -55.5 123t-12.5 110q0 28 3 58.5t11.5 61.5t23.5 62.5t39 62.5q19 25 43.5 47.5t54 39.5t63 27t70.5 10q51 0 88 -16t67 -36
l33 40h17l6 -209h-19q-1 5 -5 22t-12.5 39t-22.5 46.5t-35.5 44.5t-50.5 33.5t-68 13.5q-29 0 -56 -8q-17 -6 -41.5 -21.5t-41.5 -49.5q-11 -21 -17 -55.5t-9 -72t-3.5 -73.5t-0.5 -62v-28.5t1 -51.5t3 -60t5 -55q1 -12 6.5 -36.5t20.5 -49.5t42.5 -43.5t73.5 -18.5
q6 0 19 1t28.5 6.5t32 17.5t29.5 33q20 33 23.5 72.5t3.5 81.5h-104v23h297v-23z" />
    <glyph glyph-name="H" unicode="H" horiz-adv-x="750" 
d="M515 348h-279v-327h91v-21h-294v21h86v664h-87v21h292v-21h-88v-310h279v310h-91v21h290v-21h-84v-664h87v-21h-291v21h89v327z" />
    <glyph glyph-name="I" unicode="I" horiz-adv-x="354" 
d="M324 685h-88v-664h88v-21h-290v21h86v664h-87v21h291v-21z" />
    <glyph glyph-name="J" unicode="J" horiz-adv-x="396" 
d="M394 685h-88l-2 -510q0 -50 -4.5 -93.5t-30.5 -81.5q-8 -11 -21.5 -25.5t-33 -27.5t-44.5 -21.5t-55 -8.5q-27 0 -47 8t-33 20t-19.5 27t-6.5 30q0 25 16 42t38 17t36.5 -15.5t14.5 -37.5q0 -13 -3.5 -21t-7.5 -14l-6 -9q-3 -3 -3 -7q0 -5 7 -12.5t23 -7.5
q17 0 32.5 11.5t24.5 33.5q7 17 8 40t2 67v596h-88v21h291v-21z" />
    <glyph glyph-name="K" unicode="K" horiz-adv-x="688" 
d="M559 685l-225 -254l305 -410h50v-21h-278v21h90l-258 347l282 317h-103v21h226v-21h-89zM315 685h-83v-664h89v-21h-292v21h90v664h-91v21h287v-21z" />
    <glyph glyph-name="L" unicode="L" horiz-adv-x="604" 
d="M578 218l-19 -218h-529v21h90v664h-90v21h291v-21h-85v-664h115q29 0 51.5 1t41 5.5t33.5 14.5t29 28q15 20 25 44.5t16 46.5l14 57h17z" />
    <glyph glyph-name="M" unicode="M" horiz-adv-x="812" 
d="M776 685h-86v-664h94v-21h-292v21h91v644l-203 -665h-27l-210 673v-652h91v-21h-198v21h83v664h-87v21h220l159 -521l156 521h209v-21z" />
    <glyph glyph-name="N" unicode="N" horiz-adv-x="688" 
d="M597 685v-685h-19l-371 568l-33 49.5t-28 45.5v-642h92v-21h-210v21h92v664h-89v21h222l207 -319l28 -42.5l28 -43.5l11 -18l17 -27.5l17 -28l11 -18.5v476h-84v21h188v-21h-79z" />
    <glyph glyph-name="O" unicode="O" horiz-adv-x="688" 
d="M37 353q0 33 4.5 65.5t14.5 64.5q13 41 38 83t62 75.5t84 55t104 21.5q45 0 82 -13t65.5 -32t49 -40.5t32.5 -37.5q24 -32 39.5 -64t23.5 -63t11 -60t3 -55t-3 -55t-11 -60t-23.5 -63t-39.5 -64q-12 -16 -32 -37t-48.5 -40t-65.5 -32.5t-83 -13.5q-41 0 -78 12
q-35 10 -75.5 37t-74.5 70.5t-56.5 104.5t-22.5 141zM283 26q31 -11 61 -11t60 11q40 14 62.5 39t33.5 64t13.5 93.5t2.5 127.5q0 90 -4 149t-16 91q-12 33 -32.5 53t-43 30.5t-43.5 14t-33 3.5q-13 0 -34 -3.5t-43.5 -14t-43 -30.5t-32.5 -53q-12 -32 -16 -91t-4 -149
q0 -73 2.5 -127.5t13.5 -93.5t33.5 -64t62.5 -39z" />
    <glyph glyph-name="P" unicode="P" horiz-adv-x="604" 
d="M297 706q45 0 82.5 -1.5t70.5 -11.5q66 -19 102.5 -65t36.5 -106q0 -34 -11.5 -60.5t-30 -47t-41.5 -34t-45 -21.5q-40 -14 -82 -16.5t-87 -2.5h-59v-319h90v-21h-290v21h88v665h-90v20h266zM233 684v-321h72q44 1 73.5 5t51.5 29q17 19 24 47t7 79q0 50 -5 73.5
t-10 34.5q-10 20 -24 30.5t-34 15.5t-46.5 6t-61.5 1h-47z" />
    <glyph glyph-name="Q" unicode="Q" horiz-adv-x="688" 
d="M610 -230q-206 0 -276 74q-15 16 -24.5 35t-14.5 39t-6.5 39.5t-1.5 36.5q-11 3 -29.5 8.5t-42 18t-50 34.5t-52.5 57q-24 32 -39.5 64t-23.5 62.5t-11 59.5t-3 55q0 33 4.5 65.5t14.5 64.5q13 41 38 83t62 75.5t84 55t104 21.5q45 0 82 -13t65.5 -32t49 -40.5
t32.5 -37.5q24 -32 39.5 -64t23.5 -63t11 -60t3 -55q0 -33 -4.5 -65.5t-14.5 -64.5q-8 -27 -25.5 -61t-45.5 -67t-67 -60t-90 -40q0 -23 1 -49t7.5 -51.5t20 -47.5t39.5 -36q12 -7 24.5 -11t28.5 -6.5t37 -4.5t50 -4v-15zM282 26q31 -11 61 -11t60 11q40 14 62.5 39t33.5 64
t13.5 93.5t2.5 127.5q0 90 -4 149t-16 91q-12 33 -32.5 53t-43 30.5t-43.5 14t-33 3.5q-13 0 -34 -3.5t-43.5 -14t-43 -30.5t-32.5 -53q-12 -32 -16 -91t-4 -149q0 -73 2.5 -127.5t13.5 -93.5t33.5 -64t62.5 -39z" />
    <glyph glyph-name="R" unicode="R" horiz-adv-x="646" 
d="M652 13q-21 -11 -41 -14.5t-34 -3.5q-23 0 -48.5 7.5t-47.5 27.5q-18 16 -28 34.5t-15 39t-6.5 41.5t-1.5 42l-2 44q-1 15 -3 32.5t-8.5 34t-19 31t-34.5 23.5t-50 11t-79 0v-342h89v-21h-291v21h90v664h-93v21h277q30 0 58.5 -1t55 -5t51 -12.5t46.5 -24.5
q34 -25 47.5 -56.5t13.5 -63.5q0 -38 -16.5 -68.5t-45.5 -52t-68.5 -34.5t-85.5 -16q55 -8 86.5 -26t43.5 -29q24 -21 37 -45t19 -47t6.5 -44.5t0.5 -39.5v-28q-1 -20 0 -32t3 -22q4 -14 14.5 -26.5t30.5 -12.5q13 0 42 11zM233 684v-297h36q16 0 34.5 0.5t37.5 3t36 7.5
t31 15q28 20 38 52.5t10 67.5q0 23 -6 52.5t-20 49.5q-14 19 -32.5 29t-40 14.5t-44.5 5t-46 0.5h-34z" />
    <glyph glyph-name="S" unicode="S" 
d="M448 718l6 -185h-27q-6 32 -15.5 60.5t-40.5 56.5q-23 21 -51 31.5t-56 10.5q-24 0 -48 -8t-44 -23.5t-32.5 -39.5t-12.5 -57q0 -29 10.5 -48t30 -31.5t45.5 -20.5l58 -17l38 -9q25 -7 56.5 -18t59 -33.5t46 -59.5t18.5 -97q0 -47 -13.5 -91t-40 -77.5t-66 -53.5
t-91.5 -20q-47 0 -85.5 16t-72.5 48l-38 -52h-23l-6 218h29q5 -32 12.5 -61t30.5 -60q6 -8 18 -21.5t30.5 -26.5t45 -22.5t60.5 -9.5q38 0 66.5 12t48 33t29 49t9.5 60q0 38 -13.5 62t-34 39t-44.5 22.5l-45 13.5l-40 11q-35 8 -63.5 17.5t-51.5 25.5q-35 24 -52.5 61
t-17.5 82q0 39 13 77.5t38 68.5t61.5 48.5t83.5 18.5q24 0 44 -5t36.5 -11.5t29.5 -14t21 -13.5l36 44h15z" />
    <glyph glyph-name="T" unicode="T" horiz-adv-x="625" 
d="M468 21v-21h-313v21h101v664h-28q-22 0 -38.5 -0.5t-29.5 -3t-24 -7.5t-23 -15q-17 -14 -30.5 -36t-23.5 -47t-16.5 -49.5t-9.5 -42.5h-18l9 222h573l16 -222h-16q-5 18 -13.5 42.5t-19 49.5t-22 45t-21.5 29q-15 14 -29 21t-28.5 10t-31 3.5t-35.5 0.5h-26v-664h97z" />
    <glyph glyph-name="U" unicode="U" horiz-adv-x="667" 
d="M643 685h-77v-433q1 -43 -3 -92t-30 -90q-20 -30 -46 -47t-52.5 -24.5t-49.5 -9t-37 -1.5q-75 0 -122.5 21t-71.5 47q-19 20 -29 42t-15 45t-6.5 46t-1.5 44v452h-89v21h288v-21h-91v-471q0 -34 3.5 -71t25.5 -68q18 -26 53.5 -44.5t83.5 -18.5q30 0 52.5 7.5t38.5 18
t26.5 21.5t15.5 19q25 36 29 78t4 80v449h-88v21h189v-21z" />
    <glyph glyph-name="V" unicode="V" horiz-adv-x="646" 
d="M564 686l-225 -697h-24l-241 697h-64v21h281v-21h-97l176 -519l167 519h-102v21h199v-21h-70z" />
    <glyph glyph-name="W" unicode="W" horiz-adv-x="875" 
d="M803 686l-221 -697h-24l-112 315l-113 -315h-21l-243 697h-58v21h633v-21h-63l-76 -217l106 -304l164 521h-95v21h179v-21h-56zM434 344l-123 342h-124l181 -527zM492 507l63 179h-127z" />
    <glyph glyph-name="X" unicode="X" horiz-adv-x="646" 
d="M525 685l-171 -276l224 -388h59v-21h-281v21h90l-161 278l-171 -278h98v-21h-202v21h75l186 301l-211 363h-55v21h285v-21h-99l148 -253l156 253h-94v21h200v-21h-76z" />
    <glyph glyph-name="Y" unicode="Y" horiz-adv-x="646" 
d="M563 685l-182 -351v-313h102v-21h-312v21h99v312l-208 352h-56v21h276v-21h-89l168 -290q4 -7 5.5 -10.5l4.5 -10.5l163 311h-105v21h206v-21h-72z" />
    <glyph glyph-name="Z" unicode="Z" horiz-adv-x="562" 
d="M64 706h490l-420 -685h189q31 0 53.5 1.5t39.5 7t31 16.5t28 32q21 32 33 70t20 74h15l-20 -222h-518v25l407 660h-168q-32 0 -58.5 -3.5t-49.5 -23.5q-31 -28 -47 -74t-30 -96h-16z" />
    <glyph glyph-name="bracketleft" unicode="[" horiz-adv-x="354" 
d="M362 -174v-26h-250v965h250v-26h-157v-913h157z" />
    <glyph glyph-name="backslash" unicode="\" horiz-adv-x="396" 
d="M376 0h-61l-295 706h60z" />
    <glyph glyph-name="bracketright" unicode="]" horiz-adv-x="354" 
d="M-8 739v26h250v-965h-250v26h157v913h-157z" />
    <glyph glyph-name="asciicircum" unicode="^" horiz-adv-x="667" 
d="M361 707l168 -344h-56l-138 288l-141 -288h-55l172 344h50z" />
    <glyph glyph-name="underscore" unicode="_" horiz-adv-x="500" 
d="M510 -75v-50h-520v50h520z" />
    <glyph glyph-name="quoteleft" unicode="&#x2018;" horiz-adv-x="229" 
d="M154 691q-20 -15 -32 -25.5t-27 -29.5q-22 -29 -29 -53.5t-7 -38.5q0 -2 0.5 -8.5t3 -14t8 -15.5t14.5 -12q-1 4 -1 10t2.5 15t8 17t15.5 13.5t25 5.5q25 0 40 -16t15 -40q0 -32 -22 -49t-51 -17q-21 0 -37.5 8.5t-28 22.5t-17 32.5t-5.5 38.5q0 42 25.5 88.5t83.5 88.5z
" />
    <glyph glyph-name="a" unicode="a" horiz-adv-x="458" 
d="M126 136l-44 -115h72v-21h-154v21h52l160 415h36l154 -415h56v-21h-221v21h63l-42 115h-132zM250 156l-54 165l-63 -165h117z" />
    <glyph glyph-name="b" unicode="b" horiz-adv-x="479" 
d="M33 21h65v394h-65v21h138q38 0 59 -0.5t36 -1.5q26 -2 52.5 -9t47.5 -19.5t34.5 -31t13.5 -45.5q0 -41 -32.5 -64.5t-77.5 -35.5l30.5 -7t43 -17t38 -32.5t16.5 -53.5q0 -20 -6 -35.5t-14.5 -26.5t-18 -18t-16.5 -11q-35 -20 -74.5 -24t-92.5 -4h-177v21zM187 237
q31 0 55 1.5t41 10t26 27.5t9 54q0 32 -10 49t-28 25t-42 9.5t-51 1.5v-178zM187 21q24 0 53 0.5t47 7.5q16 8 24.5 20t12.5 25t4.5 26.5t0.5 24.5q0 34 -9.5 53t-27.5 27.5t-44.5 10t-60.5 1.5v-196z" />
    <glyph glyph-name="c" unicode="c" horiz-adv-x="437" 
d="M393 295q-13 61 -47 94q-34 36 -86 36q-23 0 -43 -7.5t-32 -18.5q-14 -12 -21.5 -34t-11 -48t-4 -53.5t-0.5 -50.5q0 -35 0.5 -61.5t3 -47t8.5 -36t17 -27.5q11 -14 32 -23t46 -9q28 0 50.5 10.5t39.5 29.5t29.5 44.5t21.5 54.5h20l-6 -148h-19l-23 22q-15 -8 -44 -21
t-73 -13q-40 0 -78 16t-68 45t-48.5 71t-18.5 93q0 57 20 100.5t52 73.5t71.5 45t77.5 15q39 0 64.5 -11t45.5 -22l23 22h17l4 -140z" />
    <glyph glyph-name="d" unicode="d" 
d="M98 415h-65v21h163q58 0 103 -5t88 -32q45 -28 70.5 -74t25.5 -106q0 -57 -22.5 -98t-51.5 -67q-23 -20 -46.5 -30.5t-47 -16t-46 -6.5t-43.5 -1h-193v21h65v394zM195 21q17 0 38 0.5t42 3.5t38.5 9t27.5 18q12 12 19 32.5t10 44t3.5 48.5t0.5 47q0 19 -0.5 40.5t-3 42.5
t-8.5 40t-16 33q-24 26 -60.5 30.5t-90.5 4.5v-394z" />
    <glyph glyph-name="e" unicode="e" horiz-adv-x="458" 
d="M395 436l6 -124h-21q-8 25 -16.5 47.5t-25.5 36.5q-9 7 -18.5 11t-25 5.5t-40.5 2t-65 0.5v-185q30 0 47.5 2t27 9.5t12.5 23.5t5 44h21v-183h-21q-2 30 -5.5 47.5t-13.5 25.5t-27.5 10t-45.5 2v-190h69q25 0 42 0.5t29 4t20.5 11.5t17.5 22q13 20 20.5 42t12.5 39h20
l-13 -140h-374v21h65v394h-65v21h362z" />
    <glyph glyph-name="f" unicode="f" horiz-adv-x="417" 
d="M321 131h-21q0 13 -2 29t-7 25q-5 10 -10.5 15t-16.5 7.5t-28.5 3t-45.5 0.5v-190h61v-21h-218v21h65v394h-65v21h365l8 -128h-20q-5 24 -11 40t-12.5 26t-12 15.5t-8.5 7.5q-17 14 -37 16t-59 2h-56v-185q39 0 60.5 1.5t32 9t13 24t4.5 47.5h21v-181z" />
    <glyph glyph-name="g" unicode="g" horiz-adv-x="479" 
d="M486 135h-48q-5 -65 -54 -106t-131 -41q-52 0 -92 19t-67.5 51t-41.5 72.5t-14 84.5q0 54 18.5 97t49.5 73t71 46t83 16q40 0 65 -9t48 -21l17 22h19l4 -135h-20q-4 16 -12 37t-23 40t-38.5 32t-59.5 13q-35 0 -57 -10.5t-34 -35t-16.5 -64.5t-4.5 -98q0 -52 3 -91
t13 -65t29.5 -39t53.5 -13q33 0 51 13t26 32t9.5 40.5t1.5 39.5h-71v21h222v-21z" />
    <glyph glyph-name="h" unicode="h" horiz-adv-x="562" 
d="M367 212h-172v-191h61v-21h-223v21h65v394h-65v21h223v-21h-61v-181h172v181h-62v21h224v-21h-65v-394h65v-21h-224v21h62v191z" />
    <glyph glyph-name="i" unicode="i" horiz-adv-x="292" 
d="M259 415h-65v-394h65v-21h-226v21h65v394h-65v21h226v-21z" />
    <glyph glyph-name="j" unicode="j" horiz-adv-x="313" 
d="M279 415h-62v-305q-1 -35 -4.5 -61.5t-23.5 -49.5q-13 -16 -41.5 -32.5t-66.5 -16.5t-57 17.5t-19 37.5q0 15 11 28t29 13q16 0 28 -10.5t12 -28.5q0 -8 -2.5 -13.5t-5.5 -10.5q-3 -4 -3.5 -5t-0.5 -2q0 -4 4 -6t9 -2q13 0 20.5 8.5t11.5 21.5t4.5 29t0.5 30v358h-66v21
h222v-21z" />
    <glyph glyph-name="k" unicode="k" 
d="M192 415v-394h60v-21h-219v21h65v394h-65v21h215v-21h-56zM372 21l-170 202l192 192h-73v21h170v-21h-60l-151 -151l202 -243h39v-21h-208v21h59z" />
    <glyph glyph-name="l" unicode="l" horiz-adv-x="437" 
d="M422 139l-13 -139h-376v21h65v394h-65v21h220v-21h-60v-394h69q31 0 52 2t36.5 13t27 35t23.5 68h21z" />
    <glyph glyph-name="m" unicode="m" horiz-adv-x="625" 
d="M592 415h-65v-394h65v-21h-224v21h65v343l-138 -364h-32l-136 363v-342h64v-21h-158v21h65v394h-65v21h169l112 -310l115 310h163v-21z" />
    <glyph glyph-name="n" unicode="n" 
d="M426 415v-415h-22l-277 376v-355h67v-21h-161v21h65v394h-65v21h163l201 -278v257h-63v21h157v-21h-65z" />
    <glyph glyph-name="o" unicode="o" 
d="M38 217q0 53 19 95.5t50.5 72.5t71.5 46t82 16t81.5 -16.5t71 -46.5t50.5 -72.5t19 -94.5t-19 -94.5t-50.5 -72.5t-71 -46t-81.5 -16t-82 16t-71.5 46t-50.5 72t-19 95zM261 11q3 0 16 1t29 7t31.5 18.5t24.5 35.5q5 13 7.5 32t4 39t1.5 39v33v34.5t-1.5 40t-4 39.5
t-7.5 32q-12 32 -39.5 47t-61.5 15t-62 -15t-40 -47q-5 -13 -7.5 -30.5t-4 -37t-1.5 -40v-38.5v-32t1.5 -39t4 -39.5t7.5 -32.5q9 -23 24.5 -35.5t31.5 -18.5t29 -7t17 -1z" />
    <glyph glyph-name="p" unicode="p" horiz-adv-x="458" 
d="M33 436h158q51 0 87 -1t60 -9q40 -11 67 -39t27 -66q0 -42 -31 -69t-79 -38q-28 -6 -59.5 -7t-71.5 -1v-185h67v-21h-225v21h65v394h-65v21zM239 227q19 0 35 2t28 10.5t19 25t7 46.5q0 20 -1.5 44.5t-12.5 38.5q-6 8 -14 12t-21.5 6t-34.5 2.5t-53 0.5v-188h48z" />
    <glyph glyph-name="q" unicode="q" 
d="M451 -140q-58 0 -102.5 6.5t-74.5 21.5t-45 40.5t-15 64.5q-34 8 -65.5 26.5t-56 47t-39.5 66.5t-15 85q0 52 19 94.5t50.5 72.5t71 46t81.5 16t82 -16t71.5 -46t50.5 -72.5t19 -94.5q0 -46 -14.5 -83.5t-38.5 -66t-55.5 -47.5t-65.5 -27q0 -36 8 -58t25.5 -34t44 -16.5
t64.5 -5.5v-20zM260 11q4 0 17 1t29 7t31.5 18.5t24.5 35.5q5 13 7.5 32t4 39t1.5 39v33v34.5t-1.5 40t-4 39.5t-7.5 32q-12 32 -40 47t-62 15t-61.5 -15t-39.5 -47q-5 -13 -7.5 -30.5t-4 -37t-1.5 -40v-38.5v-32t1.5 -39t4 -39.5t7.5 -32.5q9 -23 24.5 -35.5t31.5 -18.5
t29 -7t16 -1z" />
    <glyph glyph-name="r" unicode="r" horiz-adv-x="479" 
d="M98 21v394h-65v21h198q42 0 78 -3.5t67 -21.5q21 -13 34.5 -33t13.5 -44q0 -15 -6.5 -31.5t-21.5 -31t-40 -26t-63 -17.5q16 -4 28.5 -9t26.5 -13q20 -11 31.5 -24t17.5 -29.5t8 -35.5t4 -42q2 -29 7 -43t19 -14q13 0 24 5t13 7l8 -17q-12 -7 -26 -12t-38 -5q-21 0 -37 6
t-27.5 14t-18.5 15.5t-9 11.5q-11 18 -13 44t-7 58q-4 28 -12 43.5t-21 23t-32.5 8.5t-47.5 1v-200h63v-21h-221v21h65zM190 241h30t18 1q13 0 28 2.5t28 11t21.5 25t8.5 46.5t-9 47.5t-21.5 26t-26 10.5t-22.5 3q-8 1 -16.5 1h-38.5v-174z" />
    <glyph glyph-name="s" unicode="s" horiz-adv-x="396" 
d="M321 445l4 -129h-23q-7 28 -13.5 45.5t-24.5 34.5q-15 14 -34 20.5t-39 6.5q-36 0 -60.5 -20.5t-24.5 -54.5q0 -17 6 -27t17 -17t28 -12t38 -10q28 -6 56 -14t50 -22.5t35.5 -38.5t13.5 -63q0 -32 -10 -60t-29.5 -48.5t-48 -32.5t-64.5 -12q-22 0 -40.5 4.5t-32 10
t-22.5 11t-12 8.5l-22 -25h-24l-4 147h26q2 -14 7 -37.5t22 -45.5q19 -25 45.5 -37.5t57.5 -12.5q28 0 47 9t29.5 22.5t15 29.5t4.5 29q0 22 -7 36t-21.5 23t-35.5 15t-48 12q-22 5 -45.5 12t-43 20t-32 33.5t-12.5 53.5q0 27 10 51.5t28 43.5t44.5 30t59.5 11q8 0 32.5 -3
t56.5 -20l23 23h17z" />
    <glyph glyph-name="t" unicode="t" horiz-adv-x="437" 
d="M172 21v394q-34 0 -53 -1.5t-30 -9.5q-15 -9 -25 -24.5t-17.5 -31.5t-11.5 -30.5t-7 -22.5h-19l6 141h405l11 -141h-18q-1 3 -4 10.5l-6.5 16l-7 16.5t-4.5 11q-12 25 -24 38.5t-26 19.5t-32 7t-42 1v-394h68v-21h-231v21h68z" />
    <glyph glyph-name="u" unicode="u" 
d="M491 415h-65v-255q0 -29 -3 -59.5t-18 -55t-47 -40t-90 -15.5q-42 0 -76 10.5t-57 29.5q-28 24 -33.5 53t-6.5 61v271h-65v21h223v-21h-68v-283q0 -19 2 -40.5t14 -37.5q6 -9 17 -16t23.5 -12.5t25.5 -8t25 -2.5q20 0 38.5 6.5t30.5 15.5q27 22 31.5 54t4.5 69v255h-63
v21h157v-21z" />
    <glyph glyph-name="v" unicode="v" horiz-adv-x="458" 
d="M400 415l-152 -422h-31l-163 422h-54v21h223v-21h-65l106 -295l106 295h-67v21h155v-21h-58z" />
    <glyph glyph-name="w" unicode="w" horiz-adv-x="625" 
d="M577 415l-156 -422h-23l-79 195l-94 -195h-24l-159 422h-42v21h470v-21h-41l-54 -113l65 -177l105 290h-49v21h129v-21h-48zM305 224l-78 191h-78l106 -299zM360 337l38 78h-68z" />
    <glyph glyph-name="x" unicode="x" horiz-adv-x="437" 
d="M254 256l152 -235h39v-21h-207v21h56l-98 151l-105 -151h67v-21h-158v21h59l121 175l-143 219h-37v21h211v-21h-63l90 -135l94 135h-64v21h153v-21h-56z" />
    <glyph glyph-name="y" unicode="y" horiz-adv-x="458" 
d="M400 415l-121 -208v-186h72v-21h-236v21h72v185l-139 209h-47v21h217v-21h-58l109 -168l99 168h-68v21h158v-21h-58z" />
    <glyph glyph-name="z" unicode="z" horiz-adv-x="417" 
d="M51 436h349l-284 -415h113q24 0 40.5 0.5t28.5 4t21.5 11t19.5 21.5q12 17 20.5 40.5t13.5 42.5h19l-14 -141h-368v21l274 394h-95q-26 0 -45.5 -2t-35 -13t-28 -35t-25.5 -68h-20z" />
    <glyph glyph-name="braceleft" unicode="{" horiz-adv-x="354" 
d="M121 101q0 33 -1 61.5t-7.5 51t-20 38t-37.5 22.5v19q8 3 15.5 5.5t14.5 7.5t13 12.5t11 20.5q3 9 5 18t3.5 22t2 31t0.5 45v116q0 29 1.5 55.5t7.5 50t18 43t34 34.5q19 13 45.5 17t76.5 6v-19q-8 -3 -18 -6t-20 -8.5t-19.5 -14.5t-16.5 -23q-10 -19 -13 -44t-3 -70v-81
q0 -63 -1.5 -103t-9 -64.5t-22 -38t-40.5 -23.5q14 -5 24 -10.5t21 -17.5q10 -13 16 -27t8.5 -35t3.5 -51t1 -75v-92q0 -37 2.5 -65t14.5 -49q15 -26 35 -36t37 -16v-19q-28 1 -51 3t-41.5 7.5t-33.5 14.5t-27 25q-21 27 -25 64t-4 79v119z" />
    <glyph glyph-name="bar" unicode="|" horiz-adv-x="229" 
d="M136 750v-1000h-44v1000h44z" />
    <glyph glyph-name="braceright" unicode="}" horiz-adv-x="354" 
d="M233 463q0 -33 1 -61.5t7.5 -51t20 -38t37.5 -22.5v-19q-17 -5 -30.5 -13t-23.5 -33q-3 -9 -5 -18t-3.5 -22t-2 -31t-0.5 -45v-116q0 -29 -1.5 -56t-7.5 -50t-18 -42.5t-34 -34.5q-19 -13 -45.5 -17t-76.5 -6v19q16 5 38 14.5t36 37.5q10 19 13 44t3 70v81q0 63 1.5 103
t9 64.5t22 38t40.5 23.5q-14 5 -24 10.5t-21 17.5q-11 13 -16.5 27t-8 35t-3.5 51t-1 75v92q0 37 -2.5 65t-14.5 49q-15 26 -35 36t-37 16v19q56 -2 92.5 -10t60.5 -40q21 -27 25 -64t4 -79v-119z" />
    <glyph glyph-name="asciitilde" unicode="~" horiz-adv-x="667" 
d="M373 301q23 -10 35.5 -14.5t26.5 -4.5q20 0 43.5 12.5t50.5 51.5l25 -39q-19 -25 -35.5 -40t-31.5 -22.5t-27.5 -10t-23.5 -2.5q-22 0 -41 7t-55 24q-41 19 -66 29.5t-48 10.5q-30 0 -48 -17t-40 -46l-24 38l15 21.5t23 24.5t32.5 20t42.5 8q26 0 52.5 -9.5t62.5 -26.5z
" />
    <glyph glyph-name="exclamdown" unicode="&#xa1;" horiz-adv-x="271" 
d="M51 650q0 26 18 44t44 18t44 -18t18 -44t-18 -44t-44 -18t-44 18t-18 44zM162 146q5 -23 8.5 -43.5t3.5 -36.5q0 -41 -20 -58t-41 -17t-40.5 17t-19.5 58q0 16 3 36.5t8 43.5l14 68q6 31 10.5 60.5t8.5 66.5q1 10 2 29t2 41.5l2 45.5t1 41h18q0 -19 1 -43.5t2 -37.5
q1 -33 3 -57.5t4.5 -46.5t6.5 -45t10 -54z" />
    <glyph glyph-name="cent" unicode="&#xa2;" horiz-adv-x="333" 
d="M198 263q48 -4 72.5 -24t23.5 -46q0 -3 -1.5 -9.5t-5 -13t-10.5 -11t-19 -4.5q-17 0 -26.5 10t-9.5 24q0 7 2.5 13t5.5 11q2 2 6 7t4 7q0 3 -9.5 10t-32.5 9v-235q7 1 18 4t22.5 10.5t22.5 22t19 38.5h24q-2 -7 -8 -21t-17 -28q-23 -29 -45.5 -35.5t-35.5 -8.5v-99h-26
v99q-62 7 -98.5 45t-36.5 89q0 25 10 48.5t28 41.5t42.5 30t54.5 15v96h26v-95zM172 243q-5 0 -12 -3t-14.5 -15t-12.5 -35t-5 -63q0 -35 2 -56.5t7 -33.5t13.5 -17t21.5 -8v231z" />
    <glyph glyph-name="sterling" unicode="&#xa3;" horiz-adv-x="583" 
d="M528 183h30q0 -29 -5.5 -63t-21.5 -63t-45 -49t-76 -20t-93 25l-44 27q-19 -16 -55.5 -31t-81.5 -15q-28 0 -48.5 7t-34.5 18t-21 25t-7 29q0 14 6.5 28t21 25.5t36.5 19t53 7.5q35 0 69 -8t66 -22q2 10 3 20.5t1 21.5q0 36 -16.5 62t-31.5 43h-155v36h128l-40 49
l-25 31.5t-23.5 34.5t-17.5 38t-7 41q0 34 17 69t47.5 63t73.5 45.5t94 17.5q39 0 73 -12.5t59 -33t39.5 -46.5t14.5 -53q0 -32 -19.5 -53.5t-45.5 -21.5q-23 0 -38 15.5t-15 36.5q0 12 5 24t16 20q12 11 15 15t3 14t-6 23t-18.5 24t-32 18.5t-46.5 7.5q-36 0 -62 -13.5
t-43.5 -35t-26 -48.5t-8.5 -54q0 -21 4 -38t12.5 -34.5t22 -38l32.5 -48.5l38 -57h157v-36h-142q3 -7 8.5 -23t5.5 -43q0 -24 -5 -46.5t-12 -47.5l38 -21q28 -14 50 -23t42 -9q26 0 45 14q16 10 24.5 24t12.5 28t5 26.5t1 21.5v12zM198 86q-28 14 -47 20.5t-40 6.5
q-26 0 -38 -13.5t-12 -26.5q0 -17 19 -33.5t62 -16.5q21 0 38 4t30 10t21.5 12.5t12.5 10.5z" />
    <glyph glyph-name="fraction" unicode="&#x2044;" horiz-adv-x="125" 
d="M248 706l-339 -706h-31l340 706h30z" />
    <glyph glyph-name="yen" unicode="&#xa5;" horiz-adv-x="646" 
d="M483 21v-21h-312v21h99v203h-181v26h181v60l-24 41h-157v26h141l-168 285h-56v21h276v-21h-89l178 -312l163 312h-104v21h206v-21h-73l-147 -285h134v-26h-149l-20 -41v-60h169v-26h-169v-203h102z" />
    <glyph glyph-name="florin" unicode="&#x192;" horiz-adv-x="437" 
d="M339 386h-96l-41 -344q-4 -32 -9.5 -67.5t-15 -70.5t-24.5 -68.5t-38 -61.5q-22 -26 -51 -42t-63 -16q-39 0 -62 18.5t-23 41.5q0 17 10.5 26.5t25.5 9.5q18 0 27 -10.5t9 -24.5q0 -10 -5 -17q-5 -10 -5 -13q0 -10 10.5 -12t14.5 -2q25 0 41 15.5t25.5 39.5t14.5 53t8 57
l56 488h-93l2 26h94l1 8q3 22 8 47t13 52t21.5 54t33.5 53q19 24 39 38t37 20.5t30.5 8.5t20.5 2q39 0 59.5 -19.5t20.5 -42.5q0 -16 -11.5 -29t-32.5 -13q-17 0 -29 11.5t-12 27.5q0 12 5.5 17.5l6.5 6.5l7 5.5t2 6.5q0 3 -3 7t-12 4q-13 0 -22 -5t-16 -10
q-16 -13 -26.5 -31.5t-18 -44t-13 -59.5t-10.5 -78l-4 -37h95z" />
    <glyph glyph-name="section" unicode="&#xa7;" horiz-adv-x="479" 
d="M157 172q-23 11 -44.5 23t-37.5 28t-25.5 37t-9.5 51t9.5 53t24 40t32 27t33.5 14q-12 8 -25 18.5t-23.5 25t-17 33t-6.5 42.5q0 28 10.5 55.5t32.5 49.5t55.5 35.5t78.5 13.5q43 0 75 -10.5t53 -26.5t31 -36t10 -39q0 -29 -19.5 -46.5t-44.5 -17.5q-24 0 -39 15.5
t-15 34.5q0 25 18.5 39.5t44.5 19.5q-11 14 -25 23t-29 14.5t-30 7.5t-28 2q-62 0 -93 -25.5t-31 -65.5q0 -32 21 -51t66 -41l104 -52q33 -17 57.5 -31.5t40.5 -31t24 -37t8 -48.5q0 -19 -5 -39.5t-16.5 -39.5t-30.5 -34.5t-47 -24.5q15 -9 31.5 -20.5t31 -28t24 -38
t9.5 -48.5q0 -33 -15 -62.5t-42.5 -51t-68 -34.5t-91.5 -13q-43 0 -77.5 11.5t-58.5 29.5t-37 41t-13 47q0 29 19 51t48 22q19 0 38.5 -14t19.5 -44q0 -13 -5 -26t-15 -22.5t-25 -15t-34 -3.5q14 -18 33.5 -29t39.5 -17t38.5 -8t30.5 -2q30 0 58 6.5t49.5 19t34 32
t12.5 46.5q0 38 -26.5 59t-73.5 44zM264 214q14 -7 29.5 -13t31.5 -6q31 0 52 23.5t21 53.5q0 19 -7 33t-20 25.5t-31 21.5t-40 21l-74 37q-14 8 -32 14t-33 6q-18 0 -32 -7t-24 -18.5t-15.5 -25.5t-5.5 -28q0 -19 8 -33t21.5 -25t32 -20.5t38.5 -18.5z" />
    <glyph glyph-name="currency" unicode="&#xa4;" horiz-adv-x="667" 
d="M597 569l-71 -72l20 -29t18 -33.5t13 -41.5t5 -54q0 -32 -6 -57t-15 -44.5t-19 -33l-18 -23.5l73 -73l-34 -33l-72 72q-11 -9 -25 -18.5t-32.5 -18t-43 -14t-56.5 -5.5q-33 0 -58 6t-44.5 15t-33 18.5t-22.5 17.5l-73 -72l-33 33l73 72l-21.5 30t-18.5 33.5t-13 41
t-5 51.5q0 31 5.5 55t13.5 43t18.5 34l20.5 29l-71 71l33 33l70 -71q9 7 23 17t33.5 19t45 15t57.5 6q33 0 58 -6t44.5 -15t33 -19l22.5 -17l72 71zM537 340q0 45 -16 82.5t-43.5 65t-64.5 42.5t-78 15q-46 0 -83.5 -16.5t-64.5 -44.5t-42 -65t-15 -78q0 -45 16.5 -83
t44.5 -65.5t65.5 -43t79.5 -15.5q41 0 77.5 15t64 42.5t43.5 65.5t16 83z" />
    <glyph glyph-name="quotesingle" unicode="'" horiz-adv-x="208" 
d="M66 693q-1 9 -1 17t4 16q4 9 14.5 16t22.5 7q37 0 37 -43l-32 -254h-17z" />
    <glyph glyph-name="quotedblleft" unicode="&#x201c;" horiz-adv-x="458" 
d="M383 691q-20 -15 -32 -25.5t-27 -29.5q-22 -29 -29 -53.5t-7 -38.5q0 -2 0.5 -8.5t3 -14t8 -15.5t14.5 -12q-1 4 -1 10t2.5 15t8.5 17t15.5 13.5t24.5 5.5q25 0 40 -16t15 -40q0 -32 -22 -49t-51 -17q-21 0 -37.5 8.5t-28 22.5t-17 32.5t-5.5 38.5q0 42 25.5 88.5
t83.5 88.5zM154 691q-20 -15 -32 -25.5t-27 -29.5q-22 -29 -29 -53.5t-7 -38.5q0 -2 0.5 -8.5t3 -14t8 -15.5t14.5 -12q-1 4 -1 10t2.5 15t8 17t15.5 13.5t25 5.5q25 0 40 -16t15 -40q0 -32 -22 -49t-51 -17q-21 0 -37.5 8.5t-28 22.5t-17 32.5t-5.5 38.5q0 42 25.5 88.5
t83.5 88.5z" />
    <glyph glyph-name="guillemotleft" unicode="&#xab;" horiz-adv-x="354" 
d="M26 232l121 113h63l-119 -113l118 -109h-66zM148 232l117 113h66l-118 -113l118 -109h-66z" />
    <glyph glyph-name="guilsinglleft" unicode="&#x2039;" horiz-adv-x="229" 
d="M24 232l118 113h66l-118 -113l117 -109h-65z" />
    <glyph glyph-name="guilsinglright" unicode="&#x203a;" horiz-adv-x="229" 
d="M205 236l-118 -113h-65l117 113l-117 109h65z" />
    <glyph glyph-name="fi" unicode="&#xfb01;" horiz-adv-x="709" 
d="M321 131h-21q0 13 -2 29t-7 25q-5 10 -10.5 15t-16.5 7.5t-28.5 3t-45.5 0.5v-190h61v-21h-218v21h65v394h-65v21h365l8 -128h-20q-5 24 -11 40t-12.5 26t-12 15.5t-8.5 7.5q-17 14 -37 16t-59 2h-56v-185q39 0 60.5 1.5t32 9t13 24t4.5 47.5h21v-181zM676 415h-65v-394
h65v-21h-226v21h65v394h-65v21h226v-21z" />
    <glyph glyph-name="fl" unicode="&#xfb02;" horiz-adv-x="854" 
d="M321 131h-21q0 13 -2 29t-7 25q-5 10 -10.5 15t-16.5 7.5t-28.5 3t-45.5 0.5v-190h61v-21h-218v21h65v394h-65v21h365l8 -128h-20q-5 24 -11 40t-12.5 26t-12 15.5t-8.5 7.5q-17 14 -37 16t-59 2h-56v-185q39 0 60.5 1.5t32 9t13 24t4.5 47.5h21v-181zM839 139l-13 -139
h-376v21h65v394h-65v21h220v-21h-60v-394h69q31 0 52 2t36.5 13t27 35t23.5 68h21z" />
    <glyph glyph-name="endash" unicode="&#x2013;" 
d="M484 336v-71h-447v71h447z" />
    <glyph glyph-name="dagger" unicode="&#x2020;" horiz-adv-x="583" 
d="M422 414q21 5 38 7.5t32 2.5q29 0 51.5 -13.5t22.5 -45.5q0 -17 -6.5 -28.5t-17 -19t-23.5 -11t-25 -3.5q-17 0 -35 5t-38 12l-116 38q2 -31 5 -59.5t4 -39.5l13 -104q4 -26 6.5 -52.5t5.5 -52.5q5 -47 9 -95t4 -83q0 -45 -4.5 -62.5t-7.5 -24.5q-11 -22 -26 -30t-28 -8
q-14 0 -29 8.5t-24 28.5q-5 11 -7.5 26.5t-2.5 44.5q0 8 0.5 28t2.5 49q4 57 10 112t14 111q6 48 10.5 78.5t7 51.5t4 37t2.5 36l-110 -36q-24 -8 -43 -13t-36 -5q-34 0 -52.5 18t-18.5 43q0 29 20 44t49 15q14 0 31.5 -4l51.5 -12l108 -26l-30 146q-8 37 -13 62.5t-5 47.5
q0 42 20.5 61t46.5 19q35 0 49 -24.5t14 -56.5q0 -26 -6 -55.5t-12 -53.5l-35 -145z" />
    <glyph glyph-name="daggerdbl" unicode="&#x2021;" horiz-adv-x="583" 
d="M310 414q2 -29 3.5 -47t4 -35t6.5 -38.5l11 -57.5l1 -6l-2 -6q-5 -17 -9 -38.5t-7 -44t-5.5 -45t-3.5 -40.5l113 36l38 11t37 5q12 0 24.5 -3t23 -10t17 -18.5t6.5 -27.5q0 -28 -19.5 -44.5t-52.5 -16.5q-15 0 -32.5 3t-43.5 9l-111 27l34 -110l9.5 -43.5t4.5 -45.5
q0 -34 -15.5 -59t-48.5 -25q-9 0 -20 3t-20.5 12t-16.5 24.5t-7 39.5q0 23 4.5 44.5t9.5 42.5l32 117l-111 -24q-30 -7 -47.5 -10t-31.5 -3q-30 0 -49.5 15t-19.5 44t20 44.5t51 15.5q19 0 37 -4.5t35 -10.5l116 -37q-1 44 -6.5 84t-14.5 83l-2 8l2 6l7 35.5t5 32t4.5 42.5
t5.5 66l-103 -34q-20 -7 -41.5 -13t-42.5 -6q-38 0 -56 19t-18 42q0 21 17.5 40t52.5 19q13 0 28.5 -3t51.5 -11l108 -24l-30 110q-6 21 -9.5 38.5t-3.5 41.5q0 34 13.5 59t51.5 25q26 0 44 -19t18 -61q0 -22 -4 -39.5l-9 -37.5l-36 -117l108 26q20 5 39 9t38 4
q35 0 55 -16.5t20 -43.5t-20 -44t-52 -17q-20 0 -39.5 5.5t-39.5 12.5z" />
    <glyph glyph-name="periodcentered" unicode="&#xb7;" horiz-adv-x="229" 
d="M54 299q0 26 17.5 43.5t43.5 17.5t43.5 -17.5t17.5 -43.5t-17.5 -43.5t-43.5 -17.5t-43.5 17.5t-17.5 43.5z" />
    <glyph glyph-name="paragraph" unicode="&#xb6;" horiz-adv-x="667" 
d="M493 669v-836h-39v836h-163v-836h-39v505q-11 1 -23.5 3t-26 7t-28.5 13.5t-30 22.5q-31 30 -41 66t-10 66t6.5 53.5t15.5 40.5t19 28.5t17 17.5q19 18 40.5 27.5t43 14.5t42.5 6.5t39 1.5h210v-37h-33z" />
    <glyph glyph-name="bullet" unicode="&#x2022;" horiz-adv-x="333" 
d="M54 353q0 23 9 43.5t24 35.5t35.5 24t43.5 9t43.5 -9t35.5 -24t24 -35.5t9 -43.5t-9 -43.5t-24 -35.5t-35.5 -24t-43.5 -9t-43.5 9t-35.5 24t-24 35.5t-9 43.5z" />
    <glyph glyph-name="quotesinglbase" unicode="&#x201a;" horiz-adv-x="229" 
d="M69 -139q20 15 32 25.5t26 29.5q23 29 29.5 53.5t6.5 38.5q0 2 -0.5 8.5t-2.5 14t-7.5 15t-14.5 12.5l1 -10q0 -6 -2.5 -15t-8 -17t-15.5 -13.5t-25 -5.5q-25 0 -40 16t-15 39q0 32 22 49.5t51 17.5q21 0 37.5 -8.5t28 -22.5t17 -32.5t5.5 -38.5q0 -42 -25.5 -88.5
t-83.5 -88.5z" />
    <glyph glyph-name="quotedblbase" unicode="&#x201e;" horiz-adv-x="458" 
d="M304 -139q20 15 32.5 25.5t26.5 29.5q23 29 29.5 53.5t6.5 38.5q0 2 -0.5 8.5t-2.5 14t-7.5 15t-14.5 12.5v-10q0 -6 -2.5 -15t-8 -17t-15 -13.5t-24.5 -5.5q-26 0 -41 16t-15 39q0 32 22.5 49.5t51.5 17.5q21 0 37.5 -8.5t27.5 -22.5t16.5 -32.5t5.5 -38.5
q0 -42 -25.5 -88.5t-83.5 -88.5zM75 -139q20 15 32 25.5t27 29.5q22 29 29 53.5t7 38.5q0 2 -0.5 8.5t-3 14t-8 15t-14.5 12.5l1 -10q0 -6 -2.5 -15t-8 -17t-15 -13.5t-24.5 -5.5q-26 0 -41 16t-15 39q0 32 22.5 49.5t51.5 17.5q21 0 37 -8.5t27.5 -22.5t17 -32.5t5.5 -38.5
q0 -42 -25.5 -88.5t-83.5 -88.5z" />
    <glyph glyph-name="quotedblright" unicode="&#x201d;" horiz-adv-x="458" 
d="M304 454q20 15 32.5 25.5t26.5 30.5q23 29 29.5 53t6.5 39q0 2 -0.5 8.5t-2.5 14t-7.5 14.5t-14.5 12v-9q0 -7 -2.5 -16t-8 -17t-15 -13.5t-24.5 -5.5q-25 0 -40.5 16.5t-15.5 39.5q0 32 22.5 49t51.5 17q43 0 65 -30t22 -71q0 -43 -25.5 -89.5t-83.5 -88.5zM75 454
q20 15 32 25.5t27 30.5q22 29 29 53t7 39q0 2 -0.5 8.5t-3 14t-8 14.5t-14.5 12l1 -9q0 -7 -2.5 -16t-8 -17t-15 -13.5t-24.5 -5.5q-26 0 -41 16.5t-15 39.5q0 32 22.5 49t51.5 17q42 0 64.5 -30t22.5 -71q0 -43 -25.5 -89.5t-83.5 -88.5z" />
    <glyph glyph-name="guillemotright" unicode="&#xbb;" horiz-adv-x="354" 
d="M328 236l-121 -113h-62l118 113l-118 109h66zM207 236l-118 -113h-66l118 113l-118 109h66z" />
    <glyph glyph-name="ellipsis" unicode="&#x2026;" horiz-adv-x="1000" 
d="M771 56q0 26 18 44t44 18t44 -18t18 -44t-18 -44t-44 -18t-44 18t-18 44zM438 56q0 26 18 44t44 18t44 -18t18 -44t-18 -44t-44 -18t-44 18t-18 44zM105 56q0 26 18 44t44 18t44 -18t18 -44t-18 -44t-44 -18t-44 18t-18 44z" />
    <glyph glyph-name="perthousand" unicode="&#x2030;" horiz-adv-x="1188" 
d="M324 463q0 -56 -14 -98.5t-35 -71.5t-47 -44t-51 -15q-31 0 -58 19.5t-46.5 52t-30.5 73.5t-11 84q0 46 12 87.5t32.5 72.5t47 49.5t56.5 18.5q27 0 53.5 -16.5t47 -46.5t32.5 -72t12 -93zM246 463q1 60 -1 95t-7 55q-5 22 -17.5 39.5t-41.5 17.5q-26 0 -40 -14.5
t-21 -40.5t-8 -62.5t-1 -80.5q0 -41 0.5 -68.5t2 -45t2.5 -27.5t3 -17q1 -6 4 -16t9.5 -19.5t18 -17t29.5 -7.5t33 9.5t23 30.5q2 6 4 13.5t3.5 25t2.5 48t2 82.5zM1157 221q0 -55 -14 -97.5t-35 -71.5t-47 -44t-51 -15q-32 0 -58.5 19.5t-46 52t-30.5 73.5t-11 84
q0 46 12 87t32.5 72t47 49.5t56.5 18.5q27 0 53.5 -16.5t47 -46.5t32.5 -72t12 -93zM1079 221q1 60 -1 95t-7 55q-5 22 -17.5 39.5t-41.5 17.5q-26 0 -40 -14.5t-21 -40.5t-8 -62.5t-1 -80.5q0 -41 0.5 -68t2 -44.5t2.5 -27.5t3 -17q1 -6 4 -16t9.5 -19.5t18 -17t29.5 -7.5
t33 9.5t23 30.5q2 6 4 13.5t3.5 25t2.5 48t2 81.5zM803 221q0 -55 -14 -97.5t-35 -71.5t-47 -44t-51 -15q-32 0 -58.5 19.5t-46 52t-30.5 73.5t-11 84q0 46 12 87t32.5 72t47 49.5t56.5 18.5q27 0 53.5 -16.5t47 -46.5t32.5 -72t12 -93zM725 221q1 60 -1 95t-7 55
q-5 22 -17.5 39.5t-41.5 17.5q-26 0 -40 -14.5t-21 -40.5t-8 -62.5t-1 -80.5q0 -41 0.5 -68t2 -44.5t2.5 -27.5t3 -17q1 -6 4 -16t9.5 -19.5t18 -17t29.5 -7.5t33 9.5t23 30.5q2 6 4 13.5t3.5 25t2.5 48t2 81.5zM602 683l-328 -683h-42l329 683h41z" />
    <glyph glyph-name="questiondown" unicode="&#xbf;" horiz-adv-x="396" 
d="M161 650q0 26 18 44t44 18t44 -18t18 -44t-18 -44t-44 -18t-44 18t-18 44zM123 202q-19 -18 -38 -42t-19 -56q0 -14 6 -30.5t20 -30t35.5 -22.5t53.5 -9q30 0 51.5 7.5t35.5 17.5t20.5 20.5t6.5 16.5q0 4 -2 8.5t-14 12.5q-11 6 -21 15.5t-10 32.5q0 20 11.5 33t29.5 13
q17 0 34 -15.5t17 -47.5q0 -24 -10.5 -48t-30.5 -43.5t-49.5 -31.5t-66.5 -12q-42 0 -73 15t-52 39t-31.5 54.5t-10.5 60.5q0 29 9 59t26 53q17 25 40 42.5l46 33.5l18 15q20 16 33 29t20.5 27.5t10 32t1.5 43.5l17 9q2 -10 3.5 -21.5t1.5 -34.5q0 -49 -7 -82.5t-19.5 -58.5
t-29.5 -44t-37 -38z" />
    <glyph glyph-name="grave" unicode="`" horiz-adv-x="292" 
d="M47 667l-4.5 4.5t-2.5 5.5q0 1 1.5 3.5t8.5 2.5h92l107 -185q1 -2 2 -4.5t1 -4.5q0 -5 -2.5 -5.5t-3.5 -0.5q-4 0 -8 3z" />
    <glyph glyph-name="acute" unicode="&#xb4;" horiz-adv-x="292" 
d="M61 486l-4 -2t-4 -1t-4.5 1t-2.5 6q0 3 1.5 6.5t3.5 5.5l102 181h81q3 0 7.5 -1.5t4.5 -7.5q0 -4 -3 -7.5t-5 -5.5z" />
    <glyph glyph-name="circumflex" unicode="&#x2c6;" horiz-adv-x="292" 
d="M28 505q-4 -2 -6 -2q-6 0 -6 7q0 3 2.5 6t4.5 6l123 140l123 -141q2 -2 4 -5t2 -6q0 -7 -7 -7q-4 0 -7 3l-114 67z" />
    <glyph glyph-name="tilde" unicode="&#x2dc;" horiz-adv-x="292" 
d="M196 603q11 -4 22 -6.5t21 -2.5q20 0 32.5 10.5t19.5 26.5l15 -3q-3 -9 -12 -25t-22.5 -32t-31.5 -28t-41 -12q-11 0 -25 3.5t-41 12.5l-47 13l-26 6.5t-11 1.5q-19 0 -31.5 -13t-17.5 -21l-14 5q4 10 12.5 25.5t20.5 30t28.5 25t37.5 10.5q12 0 25 -3.5l36 -9.5z" />
    <glyph glyph-name="macron" unicode="&#xaf;" horiz-adv-x="292" 
d="M279 612v-57h-267v57h267z" />
    <glyph glyph-name="breve" unicode="&#x2d8;" horiz-adv-x="292" 
d="M55 648q2 -6 7 -16.5t15.5 -20.5t27 -17.5t42.5 -7.5q24 0 40.5 7t27 17t16 20.5t8.5 17.5h22q-1 -33 -10.5 -58.5t-25.5 -42.5t-36 -26t-42 -9q-19 0 -38.5 7.5t-36 24t-27.5 42.5t-14 62h24z" />
    <glyph glyph-name="dotaccent" unicode="&#x2d9;" horiz-adv-x="292" 
d="M205 581q-1 -26 -18.5 -42t-40.5 -16q-26 0 -42.5 17.5t-16.5 40.5q0 25 17 42.5t42 17.5q26 0 42.5 -18t16.5 -42z" />
    <glyph glyph-name="dieresis" unicode="&#xa8;" horiz-adv-x="292" 
d="M301 582q0 -23 -16.5 -38t-38.5 -15q-21 0 -37.5 15.5t-16.5 38.5q0 22 15.5 37.5t38.5 15.5t39 -15.5t16 -38.5zM101 582q0 -23 -16.5 -38t-38.5 -15q-21 0 -37.5 15.5t-16.5 38.5q0 22 15.5 37.5t38.5 15.5t39 -15.5t16 -38.5z" />
    <glyph glyph-name="ring" unicode="&#x2da;" horiz-adv-x="292" 
d="M227 585q0 -35 -23.5 -58.5t-57.5 -23.5t-57.5 24t-23.5 57t23.5 57t57.5 24t57.5 -23.5t23.5 -56.5zM199 584q0 22 -15.5 37t-37.5 15t-37.5 -15t-15.5 -37q0 -23 16 -37.5t37 -14.5t37 14.5t16 37.5z" />
    <glyph glyph-name="cedilla" unicode="&#xb8;" horiz-adv-x="292" 
d="M137 -4h26l-14 -50h14q18 0 34 -3t29 -10t20.5 -18.5t7.5 -27.5q0 -12 -7 -26.5t-21.5 -26.5t-37.5 -20t-55 -8q-26 0 -44.5 6.5t-29.5 16t-16 21t-5 20.5q0 22 17 22q9 0 15.5 -8.5t6.5 -24.5q0 -2 -1 -7t-1 -7q0 -5 12 -13t32 -8q26 0 41 14.5t15 38.5q0 16 -5.5 26.5
t-13.5 17t-17 9.5t-16 5z" />
    <glyph glyph-name="hungarumlaut" unicode="&#x2dd;" horiz-adv-x="292" 
d="M-15 488q-5 -5 -8 -5q-2 0 -5 1.5t-3 5.5t1.5 7t3.5 6l104 180h80q2 0 7.5 -1t5.5 -8q0 -4 -3 -7.5t-5 -5.5zM136 488q-5 -5 -8 -5q-2 0 -5 1.5t-3 5.5t1.5 7t3.5 6l104 180h80q2 0 8 -1t6 -8q0 -4 -3.5 -7.5l-5.5 -5.5z" />
    <glyph glyph-name="ogonek" unicode="&#x2db;" horiz-adv-x="292" 
d="M229 -131q-3 -2 -11 -6t-20 -8t-27 -7.5t-31 -3.5q-39 0 -58.5 20.5t-19.5 46.5q0 13 3.5 23.5t11 21t19.5 22.5l29 29l38 -3q-16 -17 -26 -31t-10 -34q0 -23 16.5 -41.5t47.5 -18.5q5 0 15 1t22 6z" />
    <glyph glyph-name="caron" unicode="&#x2c7;" horiz-adv-x="292" 
d="M262 660q4 2 6 2q7 0 7 -6q0 -4 -2.5 -7t-4.5 -5l-124 -141l-122 141q-2 2 -4 5t-2 7q0 6 7 6q1 0 7 -2l113 -67z" />
    <glyph glyph-name="emdash" unicode="&#x2014;" horiz-adv-x="646" 
d="M609 336v-71h-572v71h572z" />
    <glyph glyph-name="AE" unicode="&#xc6;" horiz-adv-x="896" 
d="M871 222l-12 -222h-532v21h91v201h-220l-97 -201h105v-21h-215v21h81l321 664h-104v21h550l7 -198h-15q-3 18 -7 37t-12 38t-20.5 37t-31.5 33q-16 12 -31 18.5t-39 9.5t-61.5 3.5t-98.5 0.5v-316h27q22 1 36.5 1.5t23.5 2t15.5 4.5t13.5 8q24 18 30 48t8 64h17v-288h-18
q-1 19 -3 45t-10 43q-8 18 -19.5 28t-26.5 14.5t-32 5.5t-35 1h-27v-325h81q27 0 44 0.5t27.5 1t17 1t14.5 1.5q14 2 29 7t29 15.5t28 28t26 45.5l7 16t6 17l7.5 26t12.5 42h12zM211 247h207v429z" />
    <glyph glyph-name="ordfeminine" unicode="&#xaa;" horiz-adv-x="313" 
d="M255 488q0 -17 1.5 -25.5t10.5 -8.5q5 0 10 4t10 9l11 -13q-5 -5 -17.5 -14t-33.5 -9q-47 0 -56 47l-11.5 -14.5t-16.5 -15.5t-24 -12t-33 -5q-32 0 -53.5 17t-21.5 48q0 19 9.5 35.5t25.5 27.5q25 18 59 24t66 6v61q0 7 -1 15.5t-5.5 15t-13 11t-23.5 4.5
q-21 0 -35.5 -9.5t-14.5 -15.5q0 -5 6.5 -10t6.5 -20q0 -11 -8.5 -20.5t-22.5 -9.5t-22.5 10t-8.5 23q0 12 8 24.5t22.5 22.5t34 16.5t43.5 6.5t45.5 -7t34.5 -20q14 -14 16 -30.5t2 -34.5v-134zM191 572q-38 0 -66.5 -15t-28.5 -50q0 -23 12 -32.5t26 -9.5q18 0 35 14
q14 14 17 30.5t5 42.5v20z" />
    <glyph glyph-name="Lslash" unicode="&#x141;" horiz-adv-x="604" 
d="M578 218l-18 -218h-530v21h90v240l-88 -81v47l88 83v375h-90v21h291v-21h-86v-269l168 159v-48l-168 -157v-349h116q29 0 51.5 1t41 5.5t33.5 14.5t29 28q15 20 25 44.5t16 46.5l14 57h17z" />
    <glyph glyph-name="Oslash" unicode="&#xd8;" horiz-adv-x="688" 
d="M592 677l-40 -55l29 -37t32 -54t25.5 -74.5t10.5 -98.5q0 -68 -18.5 -131t-64.5 -122q-13 -16 -33.5 -36t-48.5 -38t-64 -30.5t-80 -12.5q-37 0 -66 7.5t-51 19t-38 23.5t-26 21l-40 -57l-20 14l42 61q-14 15 -32.5 38t-34.5 56t-27 76.5t-11 99.5q0 70 19 133.5
t64 120.5q13 16 33.5 36.5t49 38.5t64 30t79.5 12q38 0 68 -8.5t53 -20.5t40 -25.5t28 -23.5l37 52zM500 591q-11 27 -28 46t-38 31t-43.5 17.5t-43.5 5.5q-11 0 -30.5 -2.5t-42 -12.5t-44 -29.5t-34.5 -52.5q-9 -24 -14.5 -65.5t-8.5 -87t-3.5 -89.5t-0.5 -72
q0 -37 1.5 -74.5t9.5 -72.5zM190 104q6 -12 16.5 -27.5t28 -29t42 -23t57.5 -9.5q23 0 46 5t44 16.5t37.5 30t27.5 45.5q9 23 14.5 63.5t8 85.5t3.5 88t1 71q0 11 -0.5 29l-1 37.5t-2 39t-3.5 34.5z" />
    <glyph glyph-name="OE" unicode="&#x152;" horiz-adv-x="958" 
d="M928 217l-16 -217h-448l-23 -3.5t-20 -3.5q-10 -1 -20.5 -1.5t-24.5 -0.5q-41 0 -76 7q-52 10 -99.5 40t-83.5 75.5t-57.5 105t-21.5 129.5q0 78 25.5 145.5t70.5 116.5t107 77t135 28q27 0 48.5 -3t37.5 -6h436l6 -198h-16q-8 35 -17 66t-30 57q-17 19 -36 30t-42.5 16
t-53 6.5t-65.5 1.5h-58v-314h42q19 0 38 2t34.5 11t26 28t13.5 54l2 33h18v-291h-18q-2 23 -3.5 43t-6.5 37q-6 21 -16.5 32.5t-24 17.5t-30 7.5t-32.5 2.5h-43v-327h102q44 0 79 3.5t62.5 22t48 58t35.5 112.5h15zM471 674q-38 9 -60.5 11t-35.5 2q-41 0 -72.5 -10
t-54.5 -27q-33 -24 -45.5 -53.5t-17.5 -55.5q-3 -19 -5 -54.5t-3 -70.5t-1.5 -61.5t-0.5 -27.5q0 -51 2.5 -87t6.5 -62q2 -15 8.5 -42.5t25.5 -53.5t54.5 -45.5t96.5 -19.5q17 0 44 2.5t58 11.5v643z" />
    <glyph glyph-name="ordmasculine" unicode="&#xba;" horiz-adv-x="333" 
d="M305 573q0 -32 -11.5 -58t-30.5 -44.5t-44 -29t-51 -10.5q-28 0 -53 10.5t-44.5 29.5t-31 45t-11.5 56q0 31 11.5 57t31 45t44.5 29.5t53 10.5q27 0 52 -10.5t43.5 -29.5t30 -44.5t11.5 -56.5zM227 624q0 8 -1.5 20t-7 23.5t-17 19.5t-32.5 8q-5 0 -13 -1t-16.5 -5
t-16.5 -11.5t-13 -19.5q-2 -6 -3.5 -13t-2 -18t-0.5 -28v-43q0 -35 3 -56t18 -35q17 -15 43 -15q20 0 30 7t12 9q6 6 9.5 13.5t5.5 19t2.5 29t0.5 44.5v26t-1 26z" />
    <glyph glyph-name="ae" unicode="&#xe6;" horiz-adv-x="646" 
d="M608 141l-9 -141h-374v21h62v114h-135l-62 -114h70v-21h-162v21h60l214 394h-73v21h386l5 -126l-20 -1q-4 20 -12.5 44t-31.5 42q-10 7 -20.5 11.5t-26.5 6.5t-39.5 2h-59.5v-184q26 0 42.5 1t26.5 8.5t15 23.5t7 45h21v-182h-22q-1 31 -6 48.5t-15.5 25t-27.5 9t-41 1.5
v-190h66t40 1.5t24 4t17 7.5q23 13 38 43t23 64h20zM163 156h124v229z" />
    <glyph glyph-name="dotlessi" unicode="&#x131;" horiz-adv-x="292" 
d="M259 415h-65v-394h65v-21h-226v21h65v394h-65v21h226v-21z" />
    <glyph glyph-name="lslash" unicode="&#x142;" horiz-adv-x="437" 
d="M298 314l-105 -92v-201h69q31 0 52 2t36.5 13t27 35t23.5 68h21l-13 -139h-376v21h65v117l-65 -57v37l65 57v240h-65v21h220v-21h-60v-157l105 92v-36z" />
    <glyph glyph-name="oslash" unicode="&#xf8;" 
d="M69 -14l44 57q-23 21 -38 42.5t-23 43t-11 42.5t-3 40q0 55 20 99t52.5 74.5t72.5 46.5t81 16q49 0 80 -15t48 -27l42 54l22 -18l-42 -55q24 -24 38 -48t21 -45.5t8.5 -39.5t1.5 -29q0 -55 -20 -99t-52 -74.5t-72.5 -46.5t-81.5 -16q-24 0 -44 4t-35 10t-25.5 12.5
l-16.5 10.5l-44 -56zM364 369q-8 18 -21 28.5t-27 16.5t-27.5 8t-22.5 2q-34 0 -61.5 -14.5t-40.5 -45.5q-6 -15 -9.5 -41t-6 -54.5t-3 -55.5t-0.5 -45q0 -19 1 -39t4 -38zM161 58q16 -24 41 -35.5t54 -11.5q36 0 57.5 12.5t32.5 29t15 33.5l6 26q3 23 5 50t3 50.5t1 40
v18.5q0 24 -1 37.5t-2 24.5z" />
    <glyph glyph-name="oe" unicode="&#x153;" horiz-adv-x="688" 
d="M637 0h-305l-16.5 -2l-17.5 -2q-8 0 -15.5 -0.5t-13.5 -0.5q-52 0 -94.5 18t-73 48.5t-47 70t-16.5 83.5q0 49 18 90.5t49.5 71.5t74 47t90.5 17q15 0 30 -1.5t31 -3.5h294l6 -124h-21q-8 25 -16.5 47.5t-26.5 36.5q-9 7 -18 11t-24.5 5.5t-40 2t-64.5 0.5v-185
q30 0 47.5 2t26.5 9.5t12 23.5t5 44h20v-183h-20q-2 30 -6 47.5t-13.5 25.5t-26.5 10t-45 2v-190h68q25 0 41.5 0.5t28.5 4t21 11.5t18 22q12 20 19.5 41t13.5 40h20zM327 415q-16 2 -27 2.5t-24 0.5q-8 0 -22 -1t-30.5 -5.5t-32 -15t-25.5 -29.5q-3 -5 -6 -13t-6 -25.5
t-4.5 -48t-1.5 -80.5q0 -45 4 -79.5t17.5 -58t37.5 -35t65 -11.5q16 0 28.5 1.5t26.5 3.5v394z" />
    <glyph glyph-name="germandbls" unicode="&#xdf;" horiz-adv-x="792" 
d="M321 445l4 -129h-23q-7 28 -13.5 45.5t-24.5 34.5q-15 14 -34 20.5t-39 6.5q-36 0 -60.5 -20.5t-24.5 -54.5q0 -17 6 -27t17 -17t28 -12t38 -10q28 -6 56 -14t50 -22.5t35.5 -38.5t13.5 -63q0 -32 -10 -60t-29.5 -48.5t-48 -32.5t-64.5 -12q-22 0 -40.5 4.5t-32 10
t-22.5 11t-12 8.5l-22 -25h-24l-4 147h26q2 -14 7 -37.5t22 -45.5q19 -25 45.5 -37.5t57.5 -12.5q28 0 47 9t29.5 22.5t15 29.5t4.5 29q0 22 -7 36t-21.5 23t-35.5 15t-48 12q-22 5 -45.5 12t-43 20t-32 33.5t-12.5 53.5q0 27 10 51.5t28 43.5t44.5 30t59.5 11q8 0 32.5 -3
t56.5 -20l23 23h17zM717 445l4 -129h-23q-7 28 -13.5 45.5t-24.5 34.5q-15 14 -34 20.5t-39 6.5q-36 0 -60.5 -20.5t-24.5 -54.5q0 -17 6 -27t17 -17t28 -12t38 -10q28 -6 56 -14t50 -22.5t35.5 -38.5t13.5 -63q0 -32 -10 -60t-29.5 -48.5t-48 -32.5t-64.5 -12
q-22 0 -40.5 4.5t-32 10t-22.5 11t-12 8.5l-22 -25h-24l-4 147h26q2 -14 7 -37.5t22 -45.5q19 -25 45.5 -37.5t57.5 -12.5q28 0 47 9t29.5 22.5t15 29.5t4.5 29q0 22 -7 36t-21.5 23t-35.5 15t-48 12q-22 5 -45.5 12t-43 20t-32 33.5t-12.5 53.5q0 27 10 51.5t28 43.5
t44.5 30t59.5 11q8 0 32.5 -3t56.5 -20l23 23h17z" />
    <glyph glyph-name="onesuperior" unicode="&#xb9;" horiz-adv-x="354" 
d="M81 677l144 8v-425h67v-19h-207v19h70v392q0 4 -1 6t-6 2l-67 -2v19z" />
    <glyph glyph-name="minus" unicode="&#x2212;" horiz-adv-x="667" 
d="M667 314v-46h-667v46h667z" />
    <glyph glyph-name="degree" unicode="&#xb0;" horiz-adv-x="354" 
d="M35 601q0 29 11 55t30.5 45.5t45.5 30.5t55 11t55 -11t45.5 -30.5t30.5 -45.5t11 -55t-11 -55t-30.5 -45.5t-45.5 -30.5t-55 -11t-55 11t-45.5 30.5t-30.5 45.5t-11 55zM80 601q0 -41 28 -69t69 -28t69 28t28 69t-28 69t-69 28t-69 -28t-28 -69z" />
    <glyph glyph-name="oacute" unicode="&#xf3;" 
d="M38 217q0 53 19 95.5t50.5 72.5t71.5 46t82 16t81.5 -16.5t71 -46.5t50.5 -72.5t19 -94.5t-19 -94.5t-50.5 -72.5t-71 -46t-81.5 -16t-82 16t-71.5 46t-50.5 72t-19 95zM261 11q3 0 16 1t29 7t31.5 18.5t24.5 35.5q5 13 7.5 32t4 39t1.5 39v33v34.5t-1.5 40t-4 39.5
t-7.5 32q-12 32 -39.5 47t-61.5 15t-62 -15t-40 -47q-5 -13 -7.5 -30.5t-4 -37t-1.5 -40v-38.5v-32t1.5 -39t4 -39.5t7.5 -32.5q9 -23 24.5 -35.5t31.5 -18.5t29 -7t17 -1zM231 486l-4 -2t-4 -1t-4.5 1t-2.5 6q0 3 1.5 6.5t3.5 5.5l102 181h81q3 0 7.5 -1.5t4.5 -7.5
q0 -4 -3 -7.5t-5 -5.5z" />
    <glyph glyph-name="Odieresis" unicode="&#xd6;" horiz-adv-x="688" 
d="M37 353q0 33 4.5 65.5t14.5 64.5q13 41 38 83t62 75.5t84 55t104 21.5q45 0 82 -13t65.5 -32t49 -40.5t32.5 -37.5q24 -32 39.5 -64t23.5 -63t11 -60t3 -55t-3 -55t-11 -60t-23.5 -63t-39.5 -64q-12 -16 -32 -37t-48.5 -40t-65.5 -32.5t-83 -13.5q-41 0 -78 12
q-35 10 -75.5 37t-74.5 70.5t-56.5 104.5t-22.5 141zM283 26q31 -11 61 -11t60 11q40 14 62.5 39t33.5 64t13.5 93.5t2.5 127.5q0 90 -4 149t-16 91q-12 33 -32.5 53t-43 30.5t-43.5 14t-33 3.5q-13 0 -34 -3.5t-43.5 -14t-43 -30.5t-32.5 -53q-12 -32 -16 -91t-4 -149
q0 -73 2.5 -127.5t13.5 -93.5t33.5 -64t62.5 -39zM510 831q-1 -23 -17.5 -36.5t-36.5 -13.5q-22 0 -37.5 15t-15.5 37t15.5 37.5t38.5 15.5t38.5 -16t14.5 -39zM285 831q-1 -23 -17.5 -36.5t-36.5 -13.5q-22 0 -37.5 15t-15.5 37t15.5 37.5t38.5 15.5t38.5 -16t14.5 -39z
" />
    <glyph glyph-name="odieresis" unicode="&#xf6;" 
d="M38 217q0 53 19 95.5t50.5 72.5t71.5 46t82 16t81.5 -16.5t71 -46.5t50.5 -72.5t19 -94.5t-19 -94.5t-50.5 -72.5t-71 -46t-81.5 -16t-82 16t-71.5 46t-50.5 72t-19 95zM261 11q3 0 16 1t29 7t31.5 18.5t24.5 35.5q5 13 7.5 32t4 39t1.5 39v33v34.5t-1.5 40t-4 39.5
t-7.5 32q-12 32 -39.5 47t-61.5 15t-62 -15t-40 -47q-5 -13 -7.5 -30.5t-4 -37t-1.5 -40v-38.5v-32t1.5 -39t4 -39.5t7.5 -32.5q9 -23 24.5 -35.5t31.5 -18.5t29 -7t17 -1zM415 582q0 -23 -16.5 -38t-38.5 -15q-21 0 -37.5 15.5t-16.5 38.5q0 22 15.5 37.5t38.5 15.5
t39 -15.5t16 -38.5zM215 582q0 -23 -16.5 -38t-38.5 -15q-21 0 -37.5 15.5t-16.5 38.5q0 22 15.5 37.5t38.5 15.5t39 -15.5t16 -38.5z" />
    <glyph glyph-name="Eacute" unicode="&#xc9;" horiz-adv-x="604" 
d="M577 220l-19 -220h-525v21h89v664h-87v21h505l8 -194h-14q-1 3 -3 10.5l-4.5 16.5t-4.5 17t-3 11q-4 13 -9 24t-13 25q-15 25 -32.5 39t-40 21t-50.5 8t-64 1h-79v-317h32q18 0 34 1t30.5 4.5t25.5 11.5t19 22t10.5 34t4.5 57h17v-291h-16q-2 45 -8 72t-20 42t-37.5 20
t-60.5 5h-31v-325h114q36 0 61 1t44 7t33.5 18.5t28.5 35.5q20 32 31 66.5t20 70.5h14zM405 895h106q4 0 8.5 -1.5t4.5 -9.5q0 -7 -6 -11t-14 -7l-253 -93q-2 -1 -6 -2t-7 -1q-6 0 -8 4q-1 2 -1 5q0 5 3.5 7.5t5.5 4.5z" />
    <glyph glyph-name="ucircumflex" unicode="&#xfb;" 
d="M491 415h-65v-255q0 -29 -3 -59.5t-18 -55t-47 -40t-90 -15.5q-42 0 -76 10.5t-57 29.5q-28 24 -33.5 53t-6.5 61v271h-65v21h223v-21h-68v-283q0 -19 2 -40.5t14 -37.5q6 -9 17 -16t23.5 -12.5t25.5 -8t25 -2.5q20 0 38.5 6.5t30.5 15.5q27 22 31.5 54t4.5 69v255h-63
v21h157v-21zM140 505q-4 -2 -6 -2q-6 0 -6 7q0 3 2.5 6t4.5 6l123 140l123 -141q2 -2 4 -5t2 -6q0 -7 -7 -7q-4 0 -7 3l-114 67z" />
    <glyph glyph-name="onequarter" unicode="&#xbc;" horiz-adv-x="833" 
d="M688 449h40v-308h54v51h21v-125h-21v51h-54v-99h53v-19h-184v19h61v99h-159v29zM625 682l-327 -682h-42l328 682h41zM521 141h137v219zM81 677l144 8v-425h67v-19h-207v19h70v392q0 4 -1 6t-6 2l-67 -2v19z" />
    <glyph glyph-name="logicalnot" unicode="&#xac;" horiz-adv-x="667" 
d="M623 0v268h-623v46h667v-314h-44z" />
    <glyph glyph-name="Ecircumflex" unicode="&#xca;" horiz-adv-x="604" 
d="M577 220l-19 -220h-525v21h89v664h-87v21h505l8 -194h-14q-1 3 -3 10.5l-4.5 16.5t-4.5 17t-3 11q-4 13 -9 24t-13 25q-15 25 -32.5 39t-40 21t-50.5 8t-64 1h-79v-317h32q18 0 34 1t30.5 4.5t25.5 11.5t19 22t10.5 34t4.5 57h17v-291h-16q-2 45 -8 72t-20 42t-37.5 20
t-60.5 5h-31v-325h114q36 0 61 1t44 7t33.5 18.5t28.5 35.5q20 32 31 66.5t20 70.5h14zM301 897l177 -114q2 -1 5 -3t3 -6q0 -2 -1.5 -4.5t-9.5 -0.5l-175 49l-169 -48q-4 -2 -6 -2q-7 0 -7 6q0 5 4.5 8t6.5 4z" />
    <glyph glyph-name="onehalf" unicode="&#xbd;" horiz-adv-x="833" 
d="M81 677l144 8v-425h67v-19h-207v19h70v392q0 4 -1 6t-6 2l-67 -2v19zM603 682l-329 -682h-42l330 682h41zM783 125l-4 -125h-267v37l99 102q27 28 45.5 49t30.5 40.5t17.5 40t5.5 46.5q0 14 -3 36t-18 42q-16 21 -33.5 26t-27.5 5q-17 0 -31.5 -6.5t-25 -16t-16 -22
t-5.5 -24.5q0 -5 1 -8.5t6 -3.5q3 0 11 3q5 2 8 2h5q14 0 25 -9t11 -24q0 -14 -10 -24t-27 -10q-24 0 -38 20t-14 44q0 18 8 36.5t23.5 33.5t39 24.5t54.5 9.5t55.5 -10t41 -25.5t25 -35.5t8.5 -41q0 -23 -9 -44.5t-23.5 -42.5t-33.5 -41t-39 -39l-111 -110h150q11 0 18 1
t11.5 3.5t7.5 7.5t5 15l6 38h18z" />
    <glyph glyph-name="Otilde" unicode="&#xd5;" horiz-adv-x="688" 
d="M37 353q0 33 4.5 65.5t14.5 64.5q13 41 38 83t62 75.5t84 55t104 21.5q45 0 82 -13t65.5 -32t49 -40.5t32.5 -37.5q24 -32 39.5 -64t23.5 -63t11 -60t3 -55t-3 -55t-11 -60t-23.5 -63t-39.5 -64q-12 -16 -32 -37t-48.5 -40t-65.5 -32.5t-83 -13.5q-41 0 -78 12
q-35 10 -75.5 37t-74.5 70.5t-56.5 104.5t-22.5 141zM283 26q31 -11 61 -11t60 11q40 14 62.5 39t33.5 64t13.5 93.5t2.5 127.5q0 90 -4 149t-16 91q-12 33 -32.5 53t-43 30.5t-43.5 14t-33 3.5q-13 0 -34 -3.5t-43.5 -14t-43 -30.5t-32.5 -53q-12 -32 -16 -91t-4 -149
q0 -73 2.5 -127.5t13.5 -93.5t33.5 -64t62.5 -39zM513 876q-8 -14 -19 -30.5t-25.5 -30.5t-32 -23t-38.5 -9q-16 0 -31.5 5t-29.5 10l-32 11l-22 6t-23 3q-28 0 -42.5 -12.5t-23.5 -23.5l-17 9q11 22 25 39q23 29 45.5 42.5t49.5 13.5q18 0 34 -5l31 -10l35 -13
q14 -5 23.5 -7.5t19.5 -2.5q19 0 33 11t25 24z" />
    <glyph glyph-name="uacute" unicode="&#xfa;" 
d="M491 415h-65v-255q0 -29 -3 -59.5t-18 -55t-47 -40t-90 -15.5q-42 0 -76 10.5t-57 29.5q-28 24 -33.5 53t-6.5 61v271h-65v21h223v-21h-68v-283q0 -19 2 -40.5t14 -37.5q6 -9 17 -16t23.5 -12.5t25.5 -8t25 -2.5q20 0 38.5 6.5t30.5 15.5q27 22 31.5 54t4.5 69v255h-63
v21h157v-21zM231 486l-4 -2t-4 -1t-4.5 1t-2.5 6q0 3 1.5 6.5t3.5 5.5l102 181h81q3 0 7.5 -1.5t4.5 -7.5q0 -4 -3 -7.5t-5 -5.5z" />
    <glyph glyph-name="eacute" unicode="&#xe9;" horiz-adv-x="458" 
d="M395 436l6 -124h-21q-8 25 -16.5 47.5t-25.5 36.5q-9 7 -18.5 11t-25 5.5t-40.5 2t-65 0.5v-185q30 0 47.5 2t27 9.5t12.5 23.5t5 44h21v-183h-21q-2 30 -5.5 47.5t-13.5 25.5t-27.5 10t-45.5 2v-190h69q25 0 42 0.5t29 4t20.5 11.5t17.5 22q13 20 20.5 42t12.5 39h20
l-13 -140h-374v21h65v394h-65v21h362zM200 486l-4 -2t-4 -1t-4.5 1t-2.5 6q0 3 1.5 6.5t3.5 5.5l102 181h81q3 0 7.5 -1.5t4.5 -7.5q0 -4 -3 -7.5t-5 -5.5z" />
    <glyph glyph-name="iacute" unicode="&#xed;" horiz-adv-x="292" 
d="M259 415h-65v-394h65v-21h-226v21h65v394h-65v21h226v-21zM117 486l-4 -2t-4 -1t-4.5 1t-2.5 6q0 3 1.5 6.5t3.5 5.5l102 181h81q3 0 7.5 -1.5t4.5 -7.5q0 -4 -3 -7.5t-5 -5.5z" />
    <glyph glyph-name="Egrave" unicode="&#xc8;" horiz-adv-x="604" 
d="M577 220l-19 -220h-525v21h89v664h-87v21h505l8 -194h-14q-1 3 -3 10.5l-4.5 16.5t-4.5 17t-3 11q-4 13 -9 24t-13 25q-15 25 -32.5 39t-40 21t-50.5 8t-64 1h-79v-317h32q18 0 34 1t30.5 4.5t25.5 11.5t19 22t10.5 34t4.5 57h17v-291h-16q-2 45 -8 72t-20 42t-37.5 20
t-60.5 5h-31v-325h114q36 0 61 1t44 7t33.5 18.5t28.5 35.5q20 32 31 66.5t20 70.5h14zM199 895l164 -102q3 -2 7 -5t4 -8q0 -2 -1 -5.5t-8 -3.5q-4 0 -6.5 1t-5.5 2l-255 92q-8 3 -14 6.5t-6 11.5t4 9.5t9 1.5h108z" />
    <glyph glyph-name="icircumflex" unicode="&#xee;" horiz-adv-x="292" 
d="M259 415h-65v-394h65v-21h-226v21h65v394h-65v21h226v-21zM26 505q-4 -2 -6 -2q-6 0 -6 7q0 3 2.5 6t4.5 6l123 140l123 -141q2 -2 4 -5t2 -6q0 -7 -7 -7q-4 0 -7 3l-114 67z" />
    <glyph glyph-name="mu" unicode="&#xb5;" horiz-adv-x="542" 
d="M357 0v56q-18 -33 -50.5 -50.5t-70.5 -17.5q-30 0 -43 6.5t-21 13.5v-270h77v-21h-238v21h65v653h-65v21h161v-279q1 -21 2.5 -42.5t8.5 -38t21.5 -27t40.5 -10.5q34 0 56.5 17t33.5 35q16 27 18.5 66t3.5 80v178h-67v21h161v-391h68v-21h-162z" />
    <glyph glyph-name="brokenbar" unicode="&#xa6;" horiz-adv-x="229" 
d="M137 308h-44v381h44v-381zM93 -191v381h44v-381h-44z" />
    <glyph glyph-name="thorn" unicode="&#xfe;" horiz-adv-x="458" 
d="M191 415v-62h35.5t38 -0.5t36 -2.5t30.5 -5q19 -5 37 -14.5t32.5 -23t23 -31t8.5 -38.5q0 -42 -32.5 -69.5t-81.5 -38.5q-28 -6 -61 -6.5t-66 -0.5v-102h67v-21h-225v21h65v394h-65v21h223v-21h-65zM191 144q42 0 66 0.5t33 5.5q14 6 22 16t11.5 22.5t4 25.5t0.5 24
q0 10 -0.5 22t-3 24t-7.5 22t-15 16q-11 8 -40 9t-71 1v-188z" />
    <glyph glyph-name="Aring" unicode="&#xc5;" horiz-adv-x="604" 
d="M349 225h-213l-68 -204h92v-21h-188v21h68l238 687h32l229 -687h74l1 -21h-289v21h93zM144 247h198l-99 292zM375 832q0 -34 -23.5 -57.5t-58.5 -23.5q-34 0 -57.5 23.5t-23.5 57.5q0 33 23.5 57t57.5 24t58 -23t24 -58zM346 833q0 22 -16 36.5t-37 14.5q-22 0 -37.5 -15
t-15.5 -37q0 -23 16 -38t37 -15q22 0 38 15.5t15 38.5z" />
    <glyph glyph-name="yacute" unicode="&#xfd;" horiz-adv-x="458" 
d="M400 415l-121 -208v-186h72v-21h-236v21h72v185l-139 209h-47v21h217v-21h-58l109 -168l99 168h-68v21h158v-21h-58zM200 486l-4 -2t-4 -1t-4.5 1t-2.5 6q0 3 1.5 6.5t3.5 5.5l102 181h81q3 0 7.5 -1.5t4.5 -7.5q0 -4 -3 -7.5t-5 -5.5z" />
    <glyph glyph-name="Ydieresis" unicode="&#x178;" horiz-adv-x="646" 
d="M563 685l-182 -351v-313h102v-21h-312v21h99v312l-208 352h-56v21h276v-21h-89l168 -290q4 -7 5.5 -10.5l4.5 -10.5l163 311h-105v21h206v-21h-72zM503 831q-1 -23 -17.5 -36.5t-36.5 -13.5q-22 0 -37.5 15t-15.5 37t15.5 37.5t38.5 15.5t38.5 -16t14.5 -39zM278 831
q-1 -23 -17.5 -36.5t-36.5 -13.5q-22 0 -37.5 15t-15.5 37t15.5 37.5t38.5 15.5t38.5 -16t14.5 -39z" />
    <glyph glyph-name="trademark" unicode="&#x2122;" horiz-adv-x="771" 
d="M521 374l-106 251v-171q0 -32 6 -40.5t27 -11.5l8 -1v-27q-18 0 -31 0.5t-24.5 0.5t-25 -0.5t-32.5 -0.5v27l6 1q11 2 17 5t9 9t4 15t1 23v212l-3 4q-8 5 -13 6.5t-16 2.5v28q11 -1 22.5 -1.5t22.5 -0.5t22 0.5t22 0.5l104 -255l109 255h23.5h18.5h19.5h27.5v-27h-7
q-25 -3 -29 -15t-3 -42v-168q0 -17 0.5 -27t3 -15t8 -7t15.5 -3l6 -1v-27q-14 1 -29 1.5t-30 0.5q-16 0 -31 -0.5t-31 -1.5v27l6 1q14 2 20 6t7 17v198l-106 -249h-18zM102 678q-26 -1 -36.5 -11t-21.5 -43h-24q1 15 1.5 24.5t1 18l1 17.5t0.5 22q35 0 69.5 -0.5t69.5 -0.5
t70 0.5t70 0.5v-22.5t0.5 -18.5t1.5 -18.5t2 -22.5h-25q-11 33 -21.5 43t-36.5 11h-32v-228q0 -14 1 -22.5t3.5 -13t7.5 -7t15 -4.5l19 -1v-28q-19 1 -40 1.5t-35 0.5t-35 -0.5t-40 -1.5v28l18 1q21 4 24.5 12t3.5 35v228h-32z" />
    <glyph glyph-name="registered" unicode="&#xae;" horiz-adv-x="833" 
d="M773 351q0 -74 -28 -138.5t-76 -112.5t-113 -75.5t-140 -27.5q-70 0 -134 26t-113 73t-78.5 112.5t-29.5 144.5q0 77 28.5 142t77 112.5t113 74.5t136.5 27q77 0 142.5 -28.5t113.5 -77.5t74.5 -114t26.5 -138zM741 351q0 67 -24 126t-67.5 103.5t-103 70.5t-128.5 26
t-128 -25.5t-103 -69.5t-69 -103t-25 -126q0 -68 25.5 -127.5t69.5 -103t102.5 -68.5t125.5 -25q69 0 128 25.5t102.5 69t69 102t25.5 125.5zM552 241q7 -29 13 -43t20 -14q9 0 15 5.5t10 13.5t6.5 18l4.5 18l25 -4q-2 -11 -6.5 -28.5t-13.5 -35t-22.5 -30t-34.5 -12.5
q-20 0 -33 8t-22 23t-15 37l-13 50q-7 30 -12.5 50t-14.5 32.5t-23.5 18.5t-38.5 8h-43v-128q0 -19 1 -31t6 -19.5t15.5 -12t29.5 -7.5v-25q-23 2 -40.5 2h-29.5q-22 0 -43 -0.5t-47 -1.5v25q17 3 26 6t13.5 10t5.5 19.5t1 35.5v262q0 15 -0.5 25.5t-5 17t-14 10t-26.5 5.5
v25q37 -2 52 -2h29q6 0 21.5 0.5t33 0.5t33 0.5t22.5 0.5q31 0 56 -3t45 -14t35.5 -33t15.5 -53q0 -17 -5.5 -33.5t-18.5 -30.5t-34.5 -25t-53.5 -16q18 -5 29 -15t18.5 -22t11.5 -25t7 -25zM396 390q24 0 36 1t23 3q9 2 21 7t22 14t17 22t7 31q0 23 -12 41q-8 13 -19 20
t-22 10.5t-22 4t-20 0.5q-27 0 -41.5 -3t-21.5 -11t-8.5 -22t-1.5 -36v-82h42z" />
    <glyph glyph-name="ocircumflex" unicode="&#xf4;" 
d="M38 217q0 53 19 95.5t50.5 72.5t71.5 46t82 16t81.5 -16.5t71 -46.5t50.5 -72.5t19 -94.5t-19 -94.5t-50.5 -72.5t-71 -46t-81.5 -16t-82 16t-71.5 46t-50.5 72t-19 95zM261 11q3 0 16 1t29 7t31.5 18.5t24.5 35.5q5 13 7.5 32t4 39t1.5 39v33v34.5t-1.5 40t-4 39.5
t-7.5 32q-12 32 -39.5 47t-61.5 15t-62 -15t-40 -47q-5 -13 -7.5 -30.5t-4 -37t-1.5 -40v-38.5v-32t1.5 -39t4 -39.5t7.5 -32.5q9 -23 24.5 -35.5t31.5 -18.5t29 -7t17 -1zM140 505q-4 -2 -6 -2q-6 0 -6 7q0 3 2.5 6t4.5 6l123 140l123 -141q2 -2 4 -5t2 -6q0 -7 -7 -7
q-4 0 -7 3l-114 67z" />
    <glyph glyph-name="Agrave" unicode="&#xc0;" horiz-adv-x="604" 
d="M349 225h-213l-68 -204h92v-21h-188v21h68l238 687h32l229 -687h74l1 -21h-289v21h93zM144 247h198l-99 292zM199 895l164 -102q3 -2 7 -5t4 -8q0 -2 -1 -5.5t-8 -3.5q-4 0 -6.5 1t-5.5 2l-255 92q-8 3 -14 6.5t-6 11.5t4 9.5t9 1.5h108z" />
    <glyph glyph-name="Scaron" unicode="&#x160;" 
d="M448 718l6 -185h-27q-6 32 -15.5 60.5t-40.5 56.5q-23 21 -51 31.5t-56 10.5q-24 0 -48 -8t-44 -23.5t-32.5 -39.5t-12.5 -57q0 -29 10.5 -48t30 -31.5t45.5 -20.5l58 -17l38 -9q25 -7 56.5 -18t59 -33.5t46 -59.5t18.5 -97q0 -47 -13.5 -91t-40 -77.5t-66 -53.5
t-91.5 -20q-47 0 -85.5 16t-72.5 48l-38 -52h-23l-6 218h29q5 -32 12.5 -61t30.5 -60q6 -8 18 -21.5t30.5 -26.5t45 -22.5t60.5 -9.5q38 0 66.5 12t48 33t29 49t9.5 60q0 38 -13.5 62t-34 39t-44.5 22.5l-45 13.5l-40 11q-35 8 -63.5 17.5t-51.5 25.5q-35 24 -52.5 61
t-17.5 82q0 39 13 77.5t38 68.5t61.5 48.5t83.5 18.5q24 0 44 -5t36.5 -11.5t29.5 -14t21 -13.5l36 44h15zM260 768l-177 114q-2 1 -5 3t-3 6q0 1 2 4t10 1l174 -49l169 48q4 2 6 2q8 0 8 -6q0 -5 -5 -8t-7 -4z" />
    <glyph glyph-name="Ugrave" unicode="&#xd9;" horiz-adv-x="667" 
d="M643 685h-77v-433q1 -43 -3 -92t-30 -90q-20 -30 -46 -47t-52.5 -24.5t-49.5 -9t-37 -1.5q-75 0 -122.5 21t-71.5 47q-19 20 -29 42t-15 45t-6.5 46t-1.5 44v452h-89v21h288v-21h-91v-471q0 -34 3.5 -71t25.5 -68q18 -26 53.5 -44.5t83.5 -18.5q30 0 52.5 7.5t38.5 18
t26.5 21.5t15.5 19q25 36 29 78t4 80v449h-88v21h189v-21zM230 895l164 -102q3 -2 7 -5t4 -8q0 -2 -1 -5.5t-8 -3.5q-4 0 -6.5 1t-5.5 2l-255 92q-8 3 -14 6.5t-6 11.5t4 9.5t9 1.5h108z" />
    <glyph glyph-name="Edieresis" unicode="&#xcb;" horiz-adv-x="604" 
d="M577 220l-19 -220h-525v21h89v664h-87v21h505l8 -194h-14q-1 3 -3 10.5l-4.5 16.5t-4.5 17t-3 11q-4 13 -9 24t-13 25q-15 25 -32.5 39t-40 21t-50.5 8t-64 1h-79v-317h32q18 0 34 1t30.5 4.5t25.5 11.5t19 22t10.5 34t4.5 57h17v-291h-16q-2 45 -8 72t-20 42t-37.5 20
t-60.5 5h-31v-325h114q36 0 61 1t44 7t33.5 18.5t28.5 35.5q20 32 31 66.5t20 70.5h14zM466 831q-1 -23 -17.5 -36.5t-36.5 -13.5q-22 0 -37.5 15t-15.5 37t15.5 37.5t38.5 15.5t38.5 -16t14.5 -39zM241 831q-1 -23 -17.5 -36.5t-36.5 -13.5q-22 0 -37.5 15t-15.5 37
t15.5 37.5t38.5 15.5t38.5 -16t14.5 -39z" />
    <glyph glyph-name="Uacute" unicode="&#xda;" horiz-adv-x="667" 
d="M643 685h-77v-433q1 -43 -3 -92t-30 -90q-20 -30 -46 -47t-52.5 -24.5t-49.5 -9t-37 -1.5q-75 0 -122.5 21t-71.5 47q-19 20 -29 42t-15 45t-6.5 46t-1.5 44v452h-89v21h288v-21h-91v-471q0 -34 3.5 -71t25.5 -68q18 -26 53.5 -44.5t83.5 -18.5q30 0 52.5 7.5t38.5 18
t26.5 21.5t15.5 19q25 36 29 78t4 80v449h-88v21h189v-21zM436 895h106q4 0 8.5 -1.5t4.5 -9.5q0 -7 -6 -11t-14 -7l-253 -93q-2 -1 -6 -2t-7 -1q-6 0 -8 4q-1 2 -1 5q0 5 3.5 7.5t5.5 4.5z" />
    <glyph glyph-name="otilde" unicode="&#xf5;" 
d="M38 217q0 53 19 95.5t50.5 72.5t71.5 46t82 16t81.5 -16.5t71 -46.5t50.5 -72.5t19 -94.5t-19 -94.5t-50.5 -72.5t-71 -46t-81.5 -16t-82 16t-71.5 46t-50.5 72t-19 95zM261 11q3 0 16 1t29 7t31.5 18.5t24.5 35.5q5 13 7.5 32t4 39t1.5 39v33v34.5t-1.5 40t-4 39.5
t-7.5 32q-12 32 -39.5 47t-61.5 15t-62 -15t-40 -47q-5 -13 -7.5 -30.5t-4 -37t-1.5 -40v-38.5v-32t1.5 -39t4 -39.5t7.5 -32.5q9 -23 24.5 -35.5t31.5 -18.5t29 -7t17 -1zM315 603q11 -4 22 -6.5t21 -2.5q20 0 32.5 10.5t19.5 26.5l15 -3q-3 -9 -12 -25t-22.5 -32
t-31.5 -28t-41 -12q-11 0 -25 3.5t-41 12.5l-47 13l-26 6.5t-11 1.5q-19 0 -31.5 -13t-17.5 -21l-14 5q4 10 12.5 25.5t20.5 30t28.5 25t37.5 10.5q12 0 25 -3.5l36 -9.5z" />
    <glyph glyph-name="ntilde" unicode="&#xf1;" 
d="M426 415v-415h-22l-277 376v-355h67v-21h-161v21h65v394h-65v21h163l201 -278v257h-63v21h157v-21h-65zM315 603q11 -4 22 -6.5t21 -2.5q20 0 32.5 10.5t19.5 26.5l15 -3q-3 -9 -12 -25t-22.5 -32t-31.5 -28t-41 -12q-11 0 -25 3.5t-41 12.5l-47 13l-26 6.5t-11 1.5
q-19 0 -31.5 -13t-17.5 -21l-14 5q4 10 12.5 25.5t20.5 30t28.5 25t37.5 10.5q12 0 25 -3.5l36 -9.5z" />
    <glyph glyph-name="ydieresis" unicode="&#xff;" horiz-adv-x="458" 
d="M400 415l-121 -208v-186h72v-21h-236v21h72v185l-139 209h-47v21h217v-21h-58l109 -168l99 168h-68v21h158v-21h-58zM383 582q0 -23 -16.5 -38t-38.5 -15q-21 0 -37.5 15.5t-16.5 38.5q0 22 15.5 37.5t38.5 15.5t39 -15.5t16 -38.5zM183 582q0 -23 -16.5 -38t-38.5 -15
q-21 0 -37.5 15.5t-16.5 38.5q0 22 15.5 37.5t38.5 15.5t39 -15.5t16 -38.5z" />
    <glyph glyph-name="Aacute" unicode="&#xc1;" horiz-adv-x="604" 
d="M349 225h-213l-68 -204h92v-21h-188v21h68l238 687h32l229 -687h74l1 -21h-289v21h93zM144 247h198l-99 292zM405 895h106q4 0 8.5 -1.5t4.5 -9.5q0 -7 -6 -11t-14 -7l-253 -93q-2 -1 -6 -2t-7 -1q-6 0 -8 4q-1 2 -1 5q0 5 3.5 7.5t5.5 4.5z" />
    <glyph glyph-name="eth" unicode="&#xf0;" 
d="M33 250h65v165h-65v21h163q58 0 103 -5t88 -32q45 -28 70.5 -74t25.5 -106q0 -57 -22.5 -98t-51.5 -67q-23 -20 -46.5 -30.5t-47 -16t-46 -6.5t-43.5 -1h-193v21h65v203h-65v26zM195 21q52 0 86 3.5t57 25.5q26 25 31 68t5 106q0 20 -0.5 42t-3 43t-8.5 39.5t-17 31.5
q-23 26 -58.5 30.5t-91.5 4.5v-165h97v-26h-97v-203z" />
    <glyph glyph-name="acircumflex" unicode="&#xe2;" horiz-adv-x="458" 
d="M126 136l-44 -115h72v-21h-154v21h52l160 415h36l154 -415h56v-21h-221v21h63l-42 115h-132zM250 156l-54 165l-63 -165h117zM109 505q-4 -2 -6 -2q-6 0 -6 7q0 3 2.5 6t4.5 6l123 140l123 -141q2 -2 4 -5t2 -6q0 -7 -7 -7q-4 0 -7 3l-114 67z" />
    <glyph glyph-name="aring" unicode="&#xe5;" horiz-adv-x="458" 
d="M126 136l-44 -115h72v-21h-154v21h52l160 415h36l154 -415h56v-21h-221v21h63l-42 115h-132zM250 156l-54 165l-63 -165h117zM316 585q0 -35 -23.5 -58.5t-57.5 -23.5t-57.5 24t-23.5 57t23.5 57t57.5 24t57.5 -23.5t23.5 -56.5zM288 584q0 22 -15.5 37t-37.5 15
t-37.5 -15t-15.5 -37q0 -23 16 -37.5t37 -14.5t37 14.5t16 37.5z" />
    <glyph glyph-name="Ograve" unicode="&#xd2;" horiz-adv-x="688" 
d="M37 353q0 33 4.5 65.5t14.5 64.5q13 41 38 83t62 75.5t84 55t104 21.5q45 0 82 -13t65.5 -32t49 -40.5t32.5 -37.5q24 -32 39.5 -64t23.5 -63t11 -60t3 -55t-3 -55t-11 -60t-23.5 -63t-39.5 -64q-12 -16 -32 -37t-48.5 -40t-65.5 -32.5t-83 -13.5q-41 0 -78 12
q-35 10 -75.5 37t-74.5 70.5t-56.5 104.5t-22.5 141zM283 26q31 -11 61 -11t60 11q40 14 62.5 39t33.5 64t13.5 93.5t2.5 127.5q0 90 -4 149t-16 91q-12 33 -32.5 53t-43 30.5t-43.5 14t-33 3.5q-13 0 -34 -3.5t-43.5 -14t-43 -30.5t-32.5 -53q-12 -32 -16 -91t-4 -149
q0 -73 2.5 -127.5t13.5 -93.5t33.5 -64t62.5 -39zM241 895l164 -102q3 -2 7 -5t4 -8q0 -2 -1 -5.5t-8 -3.5q-4 0 -6.5 1t-5.5 2l-255 92q-8 3 -14 6.5t-6 11.5t4 9.5t9 1.5h108z" />
    <glyph glyph-name="ccedilla" unicode="&#xe7;" horiz-adv-x="437" 
d="M391 0l-23 22q-21 -12 -45 -21.5t-61 -12.5l-12 -42h14q18 0 34 -3t29 -10t20.5 -18.5t7.5 -27.5q0 -12 -7 -26.5t-21.5 -26.5t-37.5 -20t-55 -8q-26 0 -44 6.5t-29 16t-16 21t-5 20.5t4.5 15.5t12.5 6.5t15 -8.5t7 -24.5q0 -2 -1 -7t-1 -7q0 -5 12 -13t32 -8
q25 0 40 14.5t15 38.5q0 16 -5.5 26.5t-13.5 17t-17 9.5t-16 5l13 53q-41 4 -77.5 22t-63.5 47.5t-42.5 69t-15.5 86.5q0 57 20 100.5t52 73.5t71.5 45t77.5 15t64 -11t46 -22l23 22h17l4 -140l-20 -1q-13 61 -47 94q-34 36 -86 36q-23 0 -43 -7.5t-32 -18.5
q-10 -10 -17 -23.5t-11.5 -36t-6.5 -56t-2 -84.5q0 -31 0.5 -55t3.5 -42.5t8.5 -33t15.5 -26.5q12 -15 33 -24t46 -9q28 0 50 10.5t39 29.5t29.5 44.5t22.5 54.5h20l-6 -148h-19z" />
    <glyph glyph-name="multiply" unicode="&#xd7;" horiz-adv-x="667" 
d="M578 77l-32 -31l-213 214l-213 -214l-32 31l213 215l-213 212l32 31l213 -212l213 212l32 -31l-212 -212z" />
    <glyph glyph-name="divide" unicode="&#xf7;" horiz-adv-x="667" 
d="M296 412q0 17 11 28t28 11t28 -11t11 -28t-11 -28t-28 -11t-28 11t-11 28zM667 314v-46h-667v46h667zM296 170q0 17 11 28t28 11t28 -11t11 -28t-11 -28t-28 -11t-28 11t-11 28z" />
    <glyph glyph-name="twosuperior" unicode="&#xb2;" horiz-adv-x="354" 
d="M303 366l-4 -125h-267v37l99 102q27 28 45.5 49.5t30.5 41t17.5 39.5t5.5 46q0 14 -3 36t-18 42q-16 21 -33.5 26t-27.5 5q-17 0 -31.5 -6.5t-25 -16t-16 -22t-5.5 -24.5q0 -5 1 -8.5t6 -3.5q3 0 11 3q4 2 7.5 2h5.5q15 0 25.5 -9.5t10.5 -23.5t-10.5 -24t-26.5 -10
q-24 0 -38 20t-14 44q0 18 8 36.5t23.5 33.5t39 24.5t54.5 9.5t55.5 -10t41 -25.5t25 -35.5t8.5 -41q0 -23 -9 -44.5t-23.5 -42t-33.5 -40.5l-39 -40l-111 -110h150q11 0 18 1t11.5 3.5t7.5 7.5t5 15l6 38h18z" />
    <glyph glyph-name="Ntilde" unicode="&#xd1;" horiz-adv-x="688" 
d="M597 685v-685h-19l-371 568l-33 49.5t-28 45.5v-642h92v-21h-210v21h92v664h-89v21h222l207 -319l28 -42.5l28 -43.5l11 -18l17 -27.5l17 -28l11 -18.5v476h-84v21h188v-21h-79zM513 876q-8 -14 -19 -30.5t-25.5 -30.5t-32 -23t-38.5 -9q-16 0 -31.5 5t-29.5 10l-32 11
l-22 6t-23 3q-28 0 -42.5 -12.5t-23.5 -23.5l-17 9q11 22 25 39q23 29 45.5 42.5t49.5 13.5q18 0 34 -5l31 -10l35 -13q14 -5 23.5 -7.5t19.5 -2.5q19 0 33 11t25 24z" />
    <glyph glyph-name="ugrave" unicode="&#xf9;" 
d="M491 415h-65v-255q0 -29 -3 -59.5t-18 -55t-47 -40t-90 -15.5q-42 0 -76 10.5t-57 29.5q-28 24 -33.5 53t-6.5 61v271h-65v21h223v-21h-68v-283q0 -19 2 -40.5t14 -37.5q6 -9 17 -16t23.5 -12.5t25.5 -8t25 -2.5q20 0 38.5 6.5t30.5 15.5q27 22 31.5 54t4.5 69v255h-63
v21h157v-21zM106 667l-4.5 4.5t-2.5 5.5q0 1 1.5 3.5t8.5 2.5h92l107 -185q1 -2 2 -4.5t1 -4.5q0 -5 -2.5 -5.5t-3.5 -0.5q-4 0 -8 3z" />
    <glyph glyph-name="Ucircumflex" unicode="&#xdb;" horiz-adv-x="667" 
d="M643 685h-77v-433q1 -43 -3 -92t-30 -90q-20 -30 -46 -47t-52.5 -24.5t-49.5 -9t-37 -1.5q-75 0 -122.5 21t-71.5 47q-19 20 -29 42t-15 45t-6.5 46t-1.5 44v452h-89v21h288v-21h-91v-471q0 -34 3.5 -71t25.5 -68q18 -26 53.5 -44.5t83.5 -18.5q30 0 52.5 7.5t38.5 18
t26.5 21.5t15.5 19q25 36 29 78t4 80v449h-88v21h189v-21zM332 897l177 -114q2 -1 5 -3t3 -6q0 -2 -1.5 -4.5t-9.5 -0.5l-175 49l-169 -48q-4 -2 -6 -2q-7 0 -7 6q0 5 4.5 8t6.5 4z" />
    <glyph glyph-name="Atilde" unicode="&#xc3;" horiz-adv-x="604" 
d="M349 225h-213l-68 -204h92v-21h-188v21h68l238 687h32l229 -687h74l1 -21h-289v21h93zM144 247h198l-99 292zM471 876q-8 -14 -19 -30.5t-25.5 -30.5t-32 -23t-38.5 -9q-16 0 -31.5 5t-29.5 10l-32 11l-22 6t-23 3q-28 0 -42.5 -12.5t-23.5 -23.5l-17 9q11 22 25 39
q23 29 45.5 42.5t49.5 13.5q18 0 34 -5l31 -10l35 -13q14 -5 23.5 -7.5t19.5 -2.5q19 0 33 11t25 24z" />
    <glyph glyph-name="zcaron" unicode="&#x17e;" horiz-adv-x="417" 
d="M51 436h349l-284 -415h113q24 0 40.5 0.5t28.5 4t21.5 11t19.5 21.5q12 17 20.5 40.5t13.5 42.5h19l-14 -141h-368v21l274 394h-95q-26 0 -45.5 -2t-35 -13t-28 -35t-25.5 -68h-20zM327 660q4 2 6 2q7 0 7 -6q0 -4 -2.5 -7t-4.5 -5l-124 -141l-122 141q-2 2 -4 5t-2 7
q0 6 7 6q1 0 7 -2l113 -67z" />
    <glyph glyph-name="idieresis" unicode="&#xef;" horiz-adv-x="292" 
d="M259 415h-65v-394h65v-21h-226v21h65v394h-65v21h226v-21zM300 582q0 -23 -16.5 -38t-38.5 -15q-21 0 -37.5 15.5t-16.5 38.5q0 22 15.5 37.5t38.5 15.5t39 -15.5t16 -38.5zM100 582q0 -23 -16.5 -38t-38.5 -15q-21 0 -37.5 15.5t-16.5 38.5q0 22 15.5 37.5t38.5 15.5
t39 -15.5t16 -38.5z" />
    <glyph glyph-name="Acircumflex" unicode="&#xc2;" horiz-adv-x="604" 
d="M349 225h-213l-68 -204h92v-21h-188v21h68l238 687h32l229 -687h74l1 -21h-289v21h93zM144 247h198l-99 292zM301 897l177 -114q2 -1 5 -3t3 -6q0 -2 -1.5 -4.5t-9.5 -0.5l-175 49l-169 -48q-4 -2 -6 -2q-7 0 -7 6q0 5 4.5 8t6.5 4z" />
    <glyph glyph-name="Icircumflex" unicode="&#xce;" horiz-adv-x="354" 
d="M324 685h-88v-664h88v-21h-290v21h86v664h-87v21h291v-21zM176 897l177 -114q2 -1 5 -3t3 -6q0 -2 -1.5 -4.5t-9.5 -0.5l-175 49l-169 -48q-4 -2 -6 -2q-7 0 -7 6q0 5 4.5 8t6.5 4z" />
    <glyph glyph-name="Yacute" unicode="&#xdd;" horiz-adv-x="646" 
d="M563 685l-182 -351v-313h102v-21h-312v21h99v312l-208 352h-56v21h276v-21h-89l168 -290q4 -7 5.5 -10.5l4.5 -10.5l163 311h-105v21h206v-21h-72zM426 895h106q4 0 8.5 -1.5t4.5 -9.5q0 -7 -6 -11t-14 -7l-253 -93q-2 -1 -6 -2t-7 -1q-6 0 -8 4q-1 2 -1 5q0 5 3.5 7.5
t5.5 4.5z" />
    <glyph glyph-name="Oacute" unicode="&#xd3;" horiz-adv-x="688" 
d="M37 353q0 33 4.5 65.5t14.5 64.5q13 41 38 83t62 75.5t84 55t104 21.5q45 0 82 -13t65.5 -32t49 -40.5t32.5 -37.5q24 -32 39.5 -64t23.5 -63t11 -60t3 -55t-3 -55t-11 -60t-23.5 -63t-39.5 -64q-12 -16 -32 -37t-48.5 -40t-65.5 -32.5t-83 -13.5q-41 0 -78 12
q-35 10 -75.5 37t-74.5 70.5t-56.5 104.5t-22.5 141zM283 26q31 -11 61 -11t60 11q40 14 62.5 39t33.5 64t13.5 93.5t2.5 127.5q0 90 -4 149t-16 91q-12 33 -32.5 53t-43 30.5t-43.5 14t-33 3.5q-13 0 -34 -3.5t-43.5 -14t-43 -30.5t-32.5 -53q-12 -32 -16 -91t-4 -149
q0 -73 2.5 -127.5t13.5 -93.5t33.5 -64t62.5 -39zM447 895h106q4 0 8.5 -1.5t4.5 -9.5q0 -7 -6 -11t-14 -7l-253 -93q-2 -1 -6 -2t-7 -1q-6 0 -8 4q-1 2 -1 5q0 5 3.5 7.5t5.5 4.5z" />
    <glyph glyph-name="Adieresis" unicode="&#xc4;" horiz-adv-x="604" 
d="M349 225h-213l-68 -204h92v-21h-188v21h68l238 687h32l229 -687h74l1 -21h-289v21h93zM144 247h198l-99 292zM459 831q-1 -23 -17.5 -36.5t-36.5 -13.5q-22 0 -37.5 15t-15.5 37t15.5 37.5t38.5 15.5t38.5 -16t14.5 -39zM234 831q-1 -23 -17.5 -36.5t-36.5 -13.5
q-22 0 -37.5 15t-15.5 37t15.5 37.5t38.5 15.5t38.5 -16t14.5 -39z" />
    <glyph glyph-name="Zcaron" unicode="&#x17d;" horiz-adv-x="562" 
d="M64 706h490l-420 -685h189q31 0 53.5 1.5t39.5 7t31 16.5t28 32q21 32 33 70t20 74h15l-20 -222h-518v25l407 660h-168q-32 0 -58.5 -3.5t-49.5 -23.5q-31 -28 -47 -74t-30 -96h-16zM281 768l-177 114q-2 1 -5 3t-3 6q0 1 2 4t10 1l174 -49l169 48q4 2 6 2q8 0 8 -6
q0 -5 -5 -8t-7 -4z" />
    <glyph glyph-name="agrave" unicode="&#xe0;" horiz-adv-x="458" 
d="M126 136l-44 -115h72v-21h-154v21h52l160 415h36l154 -415h56v-21h-221v21h63l-42 115h-132zM250 156l-54 165l-63 -165h117zM75 667l-4.5 4.5t-2.5 5.5q0 1 1.5 3.5t8.5 2.5h92l107 -185q1 -2 2 -4.5t1 -4.5q0 -5 -2.5 -5.5t-3.5 -0.5q-4 0 -8 3z" />
    <glyph glyph-name="threesuperior" unicode="&#xb3;" horiz-adv-x="354" 
d="M81 469v21h21q19 0 37.5 3t32.5 13t22.5 30t8.5 55q0 9 -1 22.5t-6 26t-16 21t-32 8.5q-22 0 -36 -9t-14 -14q0 -3 3.5 -5.5t7 -6.5t7 -10t3.5 -15q0 -8 -6 -20.5t-24 -12.5q-17 0 -26 12t-9 28q0 29 28 52t76 23q51 0 84.5 -28.5t33.5 -71.5q0 -24 -9.5 -41.5
t-21.5 -29.5q-17 -18 -34 -26t-34 -13q19 -3 39 -8t40 -19q20 -15 32 -38t12 -50q0 -23 -9.5 -46.5t-28.5 -42.5t-48 -31t-67 -12q-29 0 -51 7.5t-36.5 19.5t-22 26.5t-7.5 29.5q0 18 10.5 29.5t26.5 11.5q17 0 25.5 -10t8.5 -23q0 -7 -3 -15.5t-14 -16.5q-5 -4 -5.5 -4.5
t-0.5 -2.5q0 -6 16.5 -19.5t45.5 -13.5q44 0 62.5 30.5t18.5 72.5q0 38 -9 60.5t-24.5 33.5t-37.5 14.5t-48 4.5h-21z" />
    <glyph glyph-name="ograve" unicode="&#xf2;" 
d="M38 217q0 53 19 95.5t50.5 72.5t71.5 46t82 16t81.5 -16.5t71 -46.5t50.5 -72.5t19 -94.5t-19 -94.5t-50.5 -72.5t-71 -46t-81.5 -16t-82 16t-71.5 46t-50.5 72t-19 95zM261 11q3 0 16 1t29 7t31.5 18.5t24.5 35.5q5 13 7.5 32t4 39t1.5 39v33v34.5t-1.5 40t-4 39.5
t-7.5 32q-12 32 -39.5 47t-61.5 15t-62 -15t-40 -47q-5 -13 -7.5 -30.5t-4 -37t-1.5 -40v-38.5v-32t1.5 -39t4 -39.5t7.5 -32.5q9 -23 24.5 -35.5t31.5 -18.5t29 -7t17 -1zM106 667l-4.5 4.5t-2.5 5.5q0 1 1.5 3.5t8.5 2.5h92l107 -185q1 -2 2 -4.5t1 -4.5q0 -5 -2.5 -5.5
t-3.5 -0.5q-4 0 -8 3z" />
    <glyph glyph-name="threequarters" unicode="&#xbe;" horiz-adv-x="833" 
d="M688 449h40v-308h55v51h21v-125h-21v51h-55v-99h53v-19h-183v19h60v99h-158v29zM614 684l-328 -684h-42l329 684h41zM522 141h136v219zM81 469v21h21q19 0 37.5 3t32.5 13t22.5 30t8.5 55q0 9 -1 22.5t-6 26t-16 21t-32 8.5q-22 0 -36 -9t-14 -14q0 -3 4 -6q1 0 9 -8.5
t8 -22.5q0 -8 -6 -20.5t-24 -12.5q-17 0 -26 12t-9 28q0 29 28 52t76 23q51 0 84.5 -28.5t33.5 -71.5q0 -24 -9.5 -41.5t-21.5 -29.5q-17 -18 -34 -26t-34 -13q19 -3 39 -8t40 -19q20 -15 32 -38t12 -50q0 -23 -9.5 -46.5t-29 -42.5t-48 -31t-67.5 -12q-29 0 -51 7.5
t-36.5 19.5t-22 26.5t-7.5 29.5q0 18 10.5 29.5t26.5 11.5q17 0 25.5 -10t8.5 -23q0 -7 -3 -15.5t-14 -16.5q-5 -4 -5.5 -4.5t-0.5 -2.5q0 -6 16.5 -19.5t46.5 -13.5q44 0 62.5 30.5t18.5 72.5q0 38 -9 60.5t-25 33.5t-38 14.5t-48 4.5h-20z" />
    <glyph glyph-name="Eth" unicode="&#xd0;" horiz-adv-x="708" 
d="M31 20h89v362h-89v30h89v273h-83v21h250q37 0 70 -1.5t64 -8t60 -19t58 -33.5q26 -20 49.5 -48t41.5 -64t29 -80t11 -97q0 -74 -25.5 -142.5t-76.5 -121.5q-33 -34 -66.5 -52.5t-67 -27t-66 -10t-62.5 -1.5h-275v20zM235 382v-360l54 -1q37 0 76 3t72 18t58 47t34 89
q3 19 5 49t2.5 59.5t1 52.5t0.5 26q0 74 -4.5 120.5t-11.5 74.5t-16 42.5t-18 25.5q-20 21 -44 33t-50 17t-52 6t-48 1q-21 0 -35 -0.5t-24 -1.5v-271h163v-30h-163z" />
    <glyph glyph-name="plusminus" unicode="&#xb1;" horiz-adv-x="667" 
d="M358 381v-265h-46v265h-271v45h271v265h46v-265h268v-45h-268zM626 46v-46h-585v46h585z" />
    <glyph glyph-name="udieresis" unicode="&#xfc;" 
d="M491 415h-65v-255q0 -29 -3 -59.5t-18 -55t-47 -40t-90 -15.5q-42 0 -76 10.5t-57 29.5q-28 24 -33.5 53t-6.5 61v271h-65v21h223v-21h-68v-283q0 -19 2 -40.5t14 -37.5q6 -9 17 -16t23.5 -12.5t25.5 -8t25 -2.5q20 0 38.5 6.5t30.5 15.5q27 22 31.5 54t4.5 69v255h-63
v21h157v-21zM432 582q0 -23 -16.5 -38t-38.5 -15q-21 0 -37.5 15.5t-16.5 38.5q0 22 15.5 37.5t38.5 15.5t39 -15.5t16 -38.5zM232 582q0 -23 -16.5 -38t-38.5 -15q-21 0 -37.5 15.5t-16.5 38.5q0 22 15.5 37.5t38.5 15.5t39 -15.5t16 -38.5z" />
    <glyph glyph-name="edieresis" unicode="&#xeb;" horiz-adv-x="458" 
d="M395 436l6 -124h-21q-8 25 -16.5 47.5t-25.5 36.5q-9 7 -18.5 11t-25 5.5t-40.5 2t-65 0.5v-185q30 0 47.5 2t27 9.5t12.5 23.5t5 44h21v-183h-21q-2 30 -5.5 47.5t-13.5 25.5t-27.5 10t-45.5 2v-190h69q25 0 42 0.5t29 4t20.5 11.5t17.5 22q13 20 20.5 42t12.5 39h20
l-13 -140h-374v21h65v394h-65v21h362zM383 582q0 -23 -16.5 -38t-38.5 -15q-21 0 -37.5 15.5t-16.5 38.5q0 22 15.5 37.5t38.5 15.5t39 -15.5t16 -38.5zM183 582q0 -23 -16.5 -38t-38.5 -15q-21 0 -37.5 15.5t-16.5 38.5q0 22 15.5 37.5t38.5 15.5t39 -15.5t16 -38.5z" />
    <glyph glyph-name="aacute" unicode="&#xe1;" horiz-adv-x="458" 
d="M126 136l-44 -115h72v-21h-154v21h52l160 415h36l154 -415h56v-21h-221v21h63l-42 115h-132zM250 156l-54 165l-63 -165h117zM200 486l-4 -2t-4 -1t-4.5 1t-2.5 6q0 3 1.5 6.5t3.5 5.5l102 181h81q3 0 7.5 -1.5t4.5 -7.5q0 -4 -3 -7.5t-5 -5.5z" />
    <glyph glyph-name="igrave" unicode="&#xec;" horiz-adv-x="292" 
d="M259 415h-65v-394h65v-21h-226v21h65v394h-65v21h226v-21zM-8 667l-4.5 4.5t-2.5 5.5q0 1 1.5 3.5t8.5 2.5h92l107 -185q1 -2 2 -4.5t1 -4.5q0 -5 -2.5 -5.5t-3.5 -0.5q-4 0 -8 3z" />
    <glyph glyph-name="Idieresis" unicode="&#xcf;" horiz-adv-x="354" 
d="M324 685h-88v-664h88v-21h-290v21h86v664h-87v21h291v-21zM341 831q-1 -23 -17.5 -36.5t-36.5 -13.5q-22 0 -37.5 15t-15.5 37t15.5 37.5t38.5 15.5t38.5 -16t14.5 -39zM116 831q-1 -23 -17.5 -36.5t-36.5 -13.5q-22 0 -37.5 15t-15.5 37t15.5 37.5t38.5 15.5t38.5 -16
t14.5 -39z" />
    <glyph glyph-name="adieresis" unicode="&#xe4;" horiz-adv-x="458" 
d="M126 136l-44 -115h72v-21h-154v21h52l160 415h36l154 -415h56v-21h-221v21h63l-42 115h-132zM250 156l-54 165l-63 -165h117zM389 582q0 -23 -16.5 -38t-38.5 -15q-21 0 -37.5 15.5t-16.5 38.5q0 22 15.5 37.5t38.5 15.5t39 -15.5t16 -38.5zM189 582q0 -23 -16.5 -38
t-38.5 -15q-21 0 -37.5 15.5t-16.5 38.5q0 22 15.5 37.5t38.5 15.5t39 -15.5t16 -38.5z" />
    <glyph glyph-name="Iacute" unicode="&#xcd;" horiz-adv-x="354" 
d="M324 685h-88v-664h88v-21h-290v21h86v664h-87v21h291v-21zM280 895h106q4 0 8.5 -1.5t4.5 -9.5q0 -7 -6 -11t-14 -7l-253 -93q-2 -1 -6 -2t-7 -1q-6 0 -8 4q-1 2 -1 5q0 5 3.5 7.5t5.5 4.5z" />
    <glyph glyph-name="copyright" unicode="&#xa9;" horiz-adv-x="833" 
d="M773 351q0 -74 -28 -138.5t-76 -112.5t-113 -75.5t-140 -27.5q-71 0 -135 26t-113 73.5t-78 113t-29 143.5q0 76 28 141t76.5 113t113 75t138.5 27q78 0 143.5 -28.5t112.5 -77.5t73.5 -114t26.5 -138zM741 351q0 68 -24.5 127.5t-67.5 103.5t-102 69.5t-128 25.5
t-129 -25.5t-103.5 -70t-68.5 -103.5t-25 -125q0 -70 26 -129t70 -102.5t103 -68t125 -24.5q70 0 129 26t102.5 70t68 102.5t24.5 123.5zM565 440q-5 20 -12 41t-20.5 38t-35.5 27.5t-58 10.5q-7 0 -18 -1t-24 -4.5t-27 -10t-26 -16.5q-17 -15 -27.5 -34.5t-16.5 -40.5
t-8 -42.5t-2 -39.5q0 -22 2 -49t8 -54t17.5 -51.5t29.5 -41.5q15 -14 38 -23.5t58 -9.5q40 0 63.5 12t36.5 30t18 39.5t8 39.5h21v-125l-95 -10l-41.5 -4t-41.5 -2q-32 0 -60.5 6t-54.5 21q-29 17 -47 42t-28.5 53t-14.5 57t-4 54q0 12 1 29.5t4 36.5t8 37.5t14 33.5
q28 49 75 69t100 20q20 0 39.5 -2l39.5 -4l21 -2q18 -2 31.5 -3t35.5 -2l14 -125h-21z" />
    <glyph glyph-name="Igrave" unicode="&#xcc;" horiz-adv-x="354" 
d="M324 685h-88v-664h88v-21h-290v21h86v664h-87v21h291v-21zM74 895l164 -102q3 -2 7 -5t4 -8q0 -2 -1 -5.5t-8 -3.5q-4 0 -6.5 1t-5.5 2l-255 92q-8 3 -14 6.5t-6 11.5t4 9.5t9 1.5h108z" />
    <glyph glyph-name="Ccedilla" unicode="&#xc7;" horiz-adv-x="604" 
d="M545 521q-16 64 -45 99t-59 51t-55 18.5t-33 2.5q-36 0 -66.5 -11t-50.5 -30q-18 -16 -29.5 -37t-19 -57t-10.5 -91t-3 -139q0 -54 0.5 -94.5t5 -71.5t14 -54.5t27.5 -43.5q20 -23 52 -37t73 -14q45 0 76.5 16t54.5 39q29 28 43.5 58.5t31.5 72.5h17l-4 -198h-15l-37 50
q-76 -59 -173 -62l-12 -42h14q18 0 34 -3t29 -10t20.5 -18.5t7.5 -27.5q0 -12 -7 -26.5t-21.5 -27t-37.5 -20.5t-55 -8q-26 0 -44 6.5t-29.5 16t-16.5 21t-5 20.5q0 10 4.5 16.5t12.5 6.5t15 -9t7 -25l-2 -14q0 -5 12.5 -13t32.5 -8q25 0 40 14.5t15 38.5q0 17 -6 27.5
t-14.5 17t-17 9.5l-14.5 5l14 54q-23 3 -52 10t-67 31q-17 11 -44.5 34.5t-53 61.5t-44 92.5t-18.5 126.5q0 92 29 161.5t74.5 116.5t101 71t108.5 24q27 0 49.5 -5t42.5 -13.5t38 -19t36 -22.5l33 48h15l2 -185h-21z" />
    <glyph glyph-name="scaron" unicode="&#x161;" horiz-adv-x="396" 
d="M321 445l4 -129h-23q-7 28 -13.5 45.5t-24.5 34.5q-15 14 -34 20.5t-39 6.5q-36 0 -60.5 -20.5t-24.5 -54.5q0 -17 6 -27t17 -17t28 -12t38 -10q28 -6 56 -14t50 -22.5t35.5 -38.5t13.5 -63q0 -32 -10 -60t-29.5 -48.5t-48 -32.5t-64.5 -12q-22 0 -40.5 4.5t-32 10
t-22.5 11t-12 8.5l-22 -25h-24l-4 147h26q2 -14 7 -37.5t22 -45.5q19 -25 45.5 -37.5t57.5 -12.5q28 0 47 9t29.5 22.5t15 29.5t4.5 29q0 22 -7 36t-21.5 23t-35.5 15t-48 12q-22 5 -45.5 12t-43 20t-32 33.5t-12.5 53.5q0 27 10 51.5t28 43.5t44.5 30t59.5 11q8 0 32.5 -3
t56.5 -20l23 23h17zM322 660q4 2 6 2q7 0 7 -6q0 -4 -2.5 -7t-4.5 -5l-124 -141l-122 141q-2 2 -4 5t-2 7q0 6 7 6q1 0 7 -2l113 -67z" />
    <glyph glyph-name="egrave" unicode="&#xe8;" horiz-adv-x="458" 
d="M395 436l6 -124h-21q-8 25 -16.5 47.5t-25.5 36.5q-9 7 -18.5 11t-25 5.5t-40.5 2t-65 0.5v-185q30 0 47.5 2t27 9.5t12.5 23.5t5 44h21v-183h-21q-2 30 -5.5 47.5t-13.5 25.5t-27.5 10t-45.5 2v-190h69q25 0 42 0.5t29 4t20.5 11.5t17.5 22q13 20 20.5 42t12.5 39h20
l-13 -140h-374v21h65v394h-65v21h362zM75 667l-4.5 4.5t-2.5 5.5q0 1 1.5 3.5t8.5 2.5h92l107 -185q1 -2 2 -4.5t1 -4.5q0 -5 -2.5 -5.5t-3.5 -0.5q-4 0 -8 3z" />
    <glyph glyph-name="Ocircumflex" unicode="&#xd4;" horiz-adv-x="688" 
d="M37 353q0 33 4.5 65.5t14.5 64.5q13 41 38 83t62 75.5t84 55t104 21.5q45 0 82 -13t65.5 -32t49 -40.5t32.5 -37.5q24 -32 39.5 -64t23.5 -63t11 -60t3 -55t-3 -55t-11 -60t-23.5 -63t-39.5 -64q-12 -16 -32 -37t-48.5 -40t-65.5 -32.5t-83 -13.5q-41 0 -78 12
q-35 10 -75.5 37t-74.5 70.5t-56.5 104.5t-22.5 141zM283 26q31 -11 61 -11t60 11q40 14 62.5 39t33.5 64t13.5 93.5t2.5 127.5q0 90 -4 149t-16 91q-12 33 -32.5 53t-43 30.5t-43.5 14t-33 3.5q-13 0 -34 -3.5t-43.5 -14t-43 -30.5t-32.5 -53q-12 -32 -16 -91t-4 -149
q0 -73 2.5 -127.5t13.5 -93.5t33.5 -64t62.5 -39zM343 897l177 -114q2 -1 5 -3t3 -6q0 -2 -1.5 -4.5t-9.5 -0.5l-175 49l-169 -48q-4 -2 -6 -2q-7 0 -7 6q0 5 4.5 8t6.5 4z" />
    <glyph glyph-name="Thorn" unicode="&#xde;" horiz-adv-x="604" 
d="M297 562q45 0 82.5 -1.5t70.5 -11.5q66 -19 102.5 -65t36.5 -106q0 -34 -11.5 -60.5t-30 -47t-41.5 -34t-45 -21.5q-40 -14 -82 -16.5t-87 -2.5h-59v-175h90v-21h-290v21h88v664h-90v21h293v-21h-91v-123h64zM233 540v-321h72q44 1 73.5 5t51.5 29q17 19 24 47t7 79
q0 50 -5 73.5t-10 34.5q-10 20 -24 30.5t-34 15.5t-46.5 6t-61.5 1h-47z" />
    <glyph glyph-name="atilde" unicode="&#xe3;" horiz-adv-x="458" 
d="M126 136l-44 -115h72v-21h-154v21h52l160 415h36l154 -415h56v-21h-221v21h63l-42 115h-132zM250 156l-54 165l-63 -165h117zM284 603q11 -4 22 -6.5t21 -2.5q20 0 32.5 10.5t19.5 26.5l15 -3q-3 -9 -12 -25t-22.5 -32t-31.5 -28t-41 -12q-11 0 -25 3.5t-41 12.5l-47 13
l-26 6.5t-11 1.5q-19 0 -31.5 -13t-17.5 -21l-14 5q4 10 12.5 25.5t20.5 30t28.5 25t37.5 10.5q12 0 25 -3.5l36 -9.5z" />
    <glyph glyph-name="Udieresis" unicode="&#xdc;" horiz-adv-x="667" 
d="M643 685h-77v-433q1 -43 -3 -92t-30 -90q-20 -30 -46 -47t-52.5 -24.5t-49.5 -9t-37 -1.5q-75 0 -122.5 21t-71.5 47q-19 20 -29 42t-15 45t-6.5 46t-1.5 44v452h-89v21h288v-21h-91v-471q0 -34 3.5 -71t25.5 -68q18 -26 53.5 -44.5t83.5 -18.5q30 0 52.5 7.5t38.5 18
t26.5 21.5t15.5 19q25 36 29 78t4 80v449h-88v21h189v-21zM530 831q-1 -23 -17.5 -36.5t-36.5 -13.5q-22 0 -37.5 15t-15.5 37t15.5 37.5t38.5 15.5t38.5 -16t14.5 -39zM305 831q-1 -23 -17.5 -36.5t-36.5 -13.5q-22 0 -37.5 15t-15.5 37t15.5 37.5t38.5 15.5t38.5 -16
t14.5 -39z" />
    <glyph glyph-name="ecircumflex" unicode="&#xea;" horiz-adv-x="458" 
d="M395 436l6 -124h-21q-8 25 -16.5 47.5t-25.5 36.5q-9 7 -18.5 11t-25 5.5t-40.5 2t-65 0.5v-185q30 0 47.5 2t27 9.5t12.5 23.5t5 44h21v-183h-21q-2 30 -5.5 47.5t-13.5 25.5t-27.5 10t-45.5 2v-190h69q25 0 42 0.5t29 4t20.5 11.5t17.5 22q13 20 20.5 42t12.5 39h20
l-13 -140h-374v21h65v394h-65v21h362zM114 505q-4 -2 -6 -2q-6 0 -6 7q0 3 2.5 6t4.5 6l123 140l123 -141q2 -2 4 -5t2 -6q0 -7 -7 -7q-4 0 -7 3l-114 67z" />
    <glyph glyph-name="numbersign" unicode="#" horiz-adv-x="667" 
d="M419 263l-39 -262h-40l38 262h-117l-37 -262h-43l37 262h-171v41h177l15 111h-169v41h175l34 250h44l-35 -250h116l35 250h41l-34 -250h171v-41h-177l-16 -111h172v-41h-177zM266 304h116l17 111h-117z" />
    <glyph glyph-name="exclam" unicode="!" horiz-adv-x="271" 
d="M109 561q-5 23 -8.5 43t-3.5 37q0 40 20 57t41 17q10 0 20.5 -4t19.5 -13t14.5 -23t5.5 -34q0 -17 -3 -37t-8 -43l-14 -68l-11 -62.5t-8 -65.5q-1 -9 -2 -28t-2.5 -41.5t-2.5 -46t-1 -41.5h-17q0 20 -1 44.5t-2 36.5l-3.5 60t-4.5 46.5l-6.5 44.5t-9.5 53zM95 56
q0 26 18 44t44 18t44 -18t18 -44t-18 -44t-44 -18t-44 18t-18 44z" />
    <glyph glyph-name="quotedbl" unicode="&#x22;" horiz-adv-x="396" 
d="M243 693q0 4 -0.5 7.5t-0.5 7.5q0 20 12.5 30.5t28.5 10.5q7 0 15 -3q15 -7 18.5 -17.5t3.5 -22.5l-32 -254h-17zM77 693q-2 10 -2 15q0 15 10 28t30 13q4 0 11 -1t13 -5.5t10.5 -13t3.5 -23.5l-31 -254h-17z" />
    </font>
</defs>
</svg>
